<?xml version="1.0" standalone="no"?>
<!DOCTYPE svg PUBLIC "-//W3C//DTD SVG 20010904//EN"
 "http://www.w3.org/TR/2001/REC-SVG-20010904/DTD/svg10.dtd">
<svg version="1.0" xmlns="http://www.w3.org/2000/svg"
 width="960.000000pt" height="960.000000pt" viewBox="0 0 960.000000 960.000000"
 preserveAspectRatio="xMidYMid meet">

<g transform="translate(0.000000,960.000000) scale(0.100000,-0.100000)"
fill="#000000" stroke="none">
<path d="M388 9556 c-8 -64 -60 -168 -114 -226 -53 -57 -160 -115 -229 -126
l-45 -6 0 -778 0 -777 54 -11 c151 -30 278 -148 321 -297 27 -93 18 -212 -24
-296 -58 -118 -168 -204 -293 -231 l-58 -12 0 -787 0 -786 49 -7 c69 -9 157
-57 219 -118 175 -174 165 -460 -22 -625 -55 -49 -119 -81 -193 -96 l-53 -11
0 -777 0 -776 56 -11 c126 -26 239 -116 297 -240 30 -62 32 -75 32 -172 0
-135 -22 -195 -105 -284 -64 -68 -138 -110 -226 -129 l-54 -11 0 -788 0 -788
23 0 c12 0 44 -7 71 -15 145 -44 270 -184 291 -328 l7 -47 778 0 777 0 17 67
c31 128 107 223 224 281 74 36 79 37 186 37 104 0 115 -2 178 -32 124 -58 214
-171 240 -297 l11 -56 782 0 782 0 7 40 c24 153 145 291 294 336 61 19 193 18
256 -1 146 -45 270 -184 291 -328 l7 -47 778 0 777 0 17 67 c31 128 107 223
224 281 74 36 79 37 186 37 104 0 115 -2 178 -32 124 -58 214 -171 240 -297
l11 -56 781 0 782 0 12 58 c18 88 56 154 127 220 67 63 142 100 223 109 l42 6
0 786 0 786 -57 11 c-200 39 -343 209 -343 409 0 208 135 374 338 416 l62 13
0 777 0 776 -49 7 c-72 10 -180 67 -235 126 -26 28 -62 81 -79 118 -30 63 -32
73 -32 182 0 104 3 120 27 173 57 122 197 229 316 244 l52 6 0 786 0 786 -57
11 c-81 16 -146 49 -208 106 -98 90 -140 195 -133 333 5 100 44 190 114 265
55 59 159 115 233 125 l51 7 0 778 0 777 -47 7 c-68 9 -165 57 -223 112 -59
55 -116 163 -126 235 l-7 49 -783 0 -784 0 0 -22 c0 -74 -55 -185 -126 -255
-181 -181 -487 -158 -639 48 -42 57 -85 164 -85 210 0 18 -21 19 -779 19
l-778 0 -5 -44 c-8 -65 -60 -168 -114 -226 -31 -33 -74 -64 -123 -88 -73 -36
-78 -37 -185 -37 -104 0 -115 2 -178 32 -37 17 -90 53 -118 79 -59 55 -116
163 -126 235 l-7 49 -782 0 -782 0 -7 -47 c-9 -74 -59 -167 -121 -229 -182
-182 -488 -160 -640 47 -42 57 -85 164 -85 210 0 18 -21 19 -779 19 l-778 0
-5 -44z m848 -458 c93 -63 157 -185 176 -338 6 -47 12 -87 14 -89 2 -2 46 -9
98 -16 71 -9 114 -21 168 -47 82 -40 161 -113 179 -165 9 -29 8 -39 -15 -77
-60 -102 -191 -167 -387 -191 l-46 -6 -11 -94 c-18 -157 -94 -291 -196 -346
l-44 -23 -48 30 c-97 60 -165 185 -185 343 l-12 91 -31 4 c-17 3 -62 9 -99 15
-128 19 -262 103 -308 193 -19 38 -19 38 0 77 50 98 200 184 343 197 42 3 81
10 87 13 6 4 16 48 22 97 20 167 114 320 219 357 24 9 26 8 76 -25z m2400 0
c93 -63 157 -185 176 -338 6 -47 12 -87 14 -89 2 -2 47 -10 99 -16 74 -10 113
-21 168 -48 119 -59 199 -155 177 -212 -40 -106 -186 -193 -362 -215 -45 -5
-83 -10 -84 -10 -1 0 -5 -30 -8 -67 -18 -176 -87 -307 -194 -370 l-45 -27 -44
24 c-109 58 -177 189 -198 382 -6 55 -8 58 -38 62 -18 3 -63 9 -102 15 -128
19 -267 107 -309 196 -16 33 -16 37 3 73 51 99 184 177 337 197 52 7 96 14 99
16 2 3 9 45 15 94 21 165 109 313 212 355 33 13 31 13 84 -22z m2430 0 c93
-63 157 -185 176 -338 6 -47 12 -87 14 -89 2 -2 46 -9 98 -16 71 -9 114 -21
168 -47 82 -40 161 -113 179 -165 9 -29 8 -39 -15 -77 -60 -102 -191 -167
-387 -191 l-46 -6 -11 -94 c-18 -157 -94 -291 -196 -346 l-44 -23 -48 30 c-97
60 -165 185 -185 343 l-12 91 -31 4 c-17 3 -62 9 -99 15 -128 19 -262 103
-308 193 -19 38 -19 38 0 77 50 98 200 184 343 197 42 3 81 10 87 13 6 4 16
48 22 97 20 167 114 320 219 357 24 9 26 8 76 -25z m2400 0 c93 -63 157 -185
176 -338 6 -47 12 -86 13 -88 2 -2 46 -9 99 -17 116 -16 205 -55 275 -120 62
-58 85 -103 71 -140 -40 -106 -186 -193 -361 -215 -45 -5 -83 -11 -84 -12 -2
-2 -7 -44 -13 -95 -18 -154 -89 -281 -190 -340 l-45 -27 -44 24 c-109 58 -177
189 -198 382 -6 55 -8 58 -38 62 -18 3 -63 9 -102 15 -128 19 -267 107 -309
196 -16 33 -16 37 3 73 51 99 184 177 337 197 52 7 96 14 99 16 2 3 9 45 15
94 21 165 109 313 212 355 33 13 31 13 84 -22z m-5914 -1495 c168 -79 255
-225 246 -412 -3 -72 -9 -97 -38 -154 -43 -87 -135 -176 -217 -208 -86 -34
-218 -38 -302 -9 -117 39 -200 114 -255 229 -29 61 -31 74 -31 171 0 97 2 110
31 171 53 111 135 185 255 230 43 15 74 19 149 16 82 -2 104 -7 162 -34z
m2420 0 c116 -54 199 -150 233 -268 26 -88 17 -212 -20 -290 -73 -153 -219
-245 -390 -245 -251 0 -436 194 -423 445 9 175 118 315 293 378 39 14 72 17
146 14 82 -3 106 -8 161 -34z m2410 0 c168 -79 255 -225 246 -412 -6 -119 -43
-197 -134 -280 -85 -78 -148 -103 -269 -109 -74 -3 -102 0 -154 18 -117 39
-200 114 -255 229 -29 61 -31 74 -31 171 0 97 2 110 31 171 53 111 135 185
255 230 43 15 74 19 149 16 82 -2 104 -7 162 -34z m-6163 -912 c96 -49 173
-187 192 -342 l12 -97 95 -10 c157 -18 302 -102 347 -202 l18 -40 -29 -47
c-60 -96 -185 -164 -342 -184 l-90 -11 -7 -72 c-15 -164 -87 -301 -190 -362
-36 -20 -47 -23 -70 -14 -108 41 -194 183 -215 357 -6 48 -12 88 -13 89 -1 1
-47 9 -103 17 -124 18 -214 58 -283 127 -65 65 -75 96 -49 149 51 103 194 180
365 196 l72 7 6 56 c21 186 80 308 182 372 55 35 54 35 102 11z m2400 0 c102
-52 179 -199 196 -372 l7 -66 95 -11 c158 -18 303 -102 348 -202 l18 -40 -29
-47 c-60 -96 -185 -164 -342 -184 l-90 -11 -7 -72 c-15 -162 -88 -302 -191
-362 l-44 -26 -45 22 c-108 52 -178 187 -200 383 -4 33 -11 57 -18 57 -7 0
-53 6 -103 14 -150 22 -274 95 -324 189 l-24 44 27 45 c63 108 194 177 363
193 l72 7 11 89 c20 156 81 274 175 337 57 38 56 38 105 13z m2430 0 c96 -49
173 -187 192 -342 l12 -97 95 -10 c157 -18 302 -102 347 -202 l18 -40 -29 -47
c-60 -96 -185 -164 -342 -184 l-90 -11 -7 -72 c-15 -164 -87 -301 -190 -362
-36 -20 -47 -23 -70 -14 -108 41 -194 183 -215 357 -6 48 -12 88 -13 89 -1 1
-47 9 -103 17 -124 18 -214 58 -283 127 -65 65 -75 96 -49 149 51 103 194 180
365 196 l72 7 6 56 c21 186 80 308 182 372 55 35 54 35 102 11z m2400 0 c102
-52 179 -199 196 -372 l7 -66 97 -12 c159 -19 301 -102 346 -201 l18 -40 -29
-47 c-60 -96 -185 -164 -342 -184 l-90 -11 -7 -72 c-15 -162 -88 -302 -191
-362 l-44 -26 -45 22 c-108 52 -178 187 -200 383 -4 33 -11 57 -18 57 -7 0
-53 6 -103 14 -150 22 -274 95 -324 189 l-24 44 27 45 c62 106 197 178 363
193 l72 7 11 90 c20 154 86 280 178 339 55 34 54 34 102 10z m-3465 -1510
c343 -169 308 -669 -55 -791 -52 -18 -81 -21 -155 -18 -81 3 -100 8 -166 41
-92 45 -157 112 -201 205 -30 63 -32 73 -32 182 0 104 3 120 27 173 37 78 126
170 202 207 112 55 269 56 380 1z m-2422 -4 c92 -45 157 -112 201 -205 78
-164 32 -378 -106 -498 -231 -201 -599 -95 -688 198 -68 224 49 450 276 531
38 13 73 17 146 14 88 -2 103 -6 171 -40z m4830 0 c92 -45 157 -112 201 -205
78 -164 32 -378 -106 -498 -231 -201 -599 -95 -688 198 -68 224 49 450 276
531 38 13 73 17 146 14 88 -2 103 -6 171 -40z m-6156 -909 c93 -63 157 -185
176 -338 6 -47 12 -86 13 -88 2 -2 47 -9 100 -17 157 -22 293 -102 340 -202
21 -44 10 -76 -52 -139 -72 -74 -182 -119 -345 -139 l-46 -6 -7 -72 c-15 -170
-92 -311 -199 -368 l-44 -23 -48 30 c-97 60 -165 185 -185 343 l-12 91 -31 4
c-17 3 -62 9 -99 15 -128 19 -262 103 -308 193 -19 38 -19 38 0 76 55 108 233
201 385 202 17 0 36 4 42 8 7 4 18 52 27 107 23 160 105 299 200 340 42 19 38
20 93 -17z m2400 0 c93 -63 157 -185 176 -337 5 -48 11 -87 13 -89 2 -2 47 -9
100 -17 156 -22 293 -102 340 -200 14 -31 14 -38 1 -69 -21 -51 -93 -116 -167
-153 -60 -29 -119 -44 -230 -58 l-47 -6 -6 -67 c-18 -175 -87 -306 -194 -369
l-45 -27 -44 24 c-109 58 -177 189 -198 382 -6 55 -8 58 -38 62 -18 3 -63 9
-102 15 -129 19 -267 107 -309 196 -16 32 -16 38 -1 69 44 92 185 178 323 197
130 18 120 12 127 77 17 156 54 249 131 327 37 39 90 73 115 75 4 0 29 -15 55
-32z m2430 0 c93 -63 157 -185 176 -338 6 -47 12 -86 13 -88 2 -2 47 -9 100
-17 157 -22 293 -102 340 -202 21 -44 10 -76 -52 -139 -72 -74 -182 -119 -345
-139 l-46 -6 -7 -72 c-15 -170 -92 -311 -199 -368 l-44 -23 -48 30 c-97 60
-165 185 -185 343 l-12 91 -31 4 c-17 3 -62 9 -99 15 -128 19 -262 103 -308
193 -19 38 -19 38 0 76 55 108 233 201 385 202 17 0 36 4 42 8 7 4 18 52 27
107 23 160 105 299 200 340 42 19 38 20 93 -17z m2400 0 c93 -63 157 -185 176
-337 5 -48 11 -87 13 -89 2 -2 47 -9 100 -17 156 -22 293 -102 340 -200 14
-30 14 -38 1 -69 -45 -107 -192 -186 -397 -211 l-47 -6 -6 -67 c-18 -175 -87
-306 -194 -369 l-45 -27 -44 24 c-109 58 -177 189 -198 382 -6 55 -8 58 -38
62 -18 3 -63 9 -102 15 -129 19 -267 107 -309 196 -16 32 -16 38 -1 69 44 92
185 178 323 197 130 18 120 12 127 77 17 151 56 251 130 327 38 39 91 73 116
75 4 0 29 -15 55 -32z m-5914 -1495 c116 -55 200 -150 233 -267 24 -84 17
-212 -17 -286 -48 -105 -154 -198 -267 -235 -84 -27 -227 -17 -305 21 -90 44
-159 113 -203 202 -37 73 -38 80 -38 181 0 98 2 111 31 172 53 111 135 185
255 230 43 15 74 19 149 16 82 -2 104 -7 162 -34z m2431 -6 c90 -45 156 -112
200 -205 30 -62 32 -75 32 -172 0 -87 -4 -115 -23 -162 -25 -63 -104 -156
-162 -193 -141 -89 -343 -87 -474 5 -131 91 -192 216 -184 375 9 175 118 315
293 378 39 14 72 17 147 14 88 -4 105 -8 171 -40z m2399 6 c166 -78 255 -225
246 -406 -6 -104 -35 -180 -95 -247 -93 -103 -193 -150 -323 -150 -179 0 -317
87 -393 248 -30 62 -32 75 -32 172 0 97 2 110 31 171 53 111 135 185 255 230
43 15 74 19 149 16 82 -2 104 -7 162 -34z m-6163 -912 c96 -49 173 -187 192
-342 l12 -97 95 -10 c157 -18 302 -102 347 -202 l18 -40 -29 -47 c-60 -96
-185 -164 -342 -184 l-90 -11 -7 -75 c-15 -162 -88 -299 -190 -359 -36 -20
-47 -23 -70 -14 -108 41 -197 188 -216 359 -5 47 -11 86 -12 87 -1 1 -47 9
-103 17 -162 23 -299 105 -340 203 -14 34 -14 38 11 79 59 102 199 175 362
190 l72 7 6 56 c21 189 79 307 184 374 53 33 52 33 100 9z m2400 0 c101 -52
181 -202 196 -367 l7 -71 95 -11 c158 -18 303 -102 348 -202 l18 -40 -29 -47
c-60 -96 -185 -164 -342 -184 l-89 -11 -11 -93 c-17 -154 -89 -283 -188 -341
l-44 -26 -45 22 c-108 52 -178 187 -200 383 -4 33 -11 57 -18 57 -7 0 -53 6
-103 14 -150 22 -274 95 -324 189 l-24 44 27 45 c62 106 197 178 364 193 l72
7 6 56 c21 189 91 328 194 382 45 24 44 24 90 1z m2430 0 c96 -49 173 -187
192 -342 l12 -97 95 -10 c157 -18 302 -102 347 -202 l18 -40 -29 -47 c-60 -96
-185 -164 -342 -184 l-90 -11 -7 -75 c-15 -162 -88 -299 -190 -359 -36 -20
-47 -23 -70 -14 -108 41 -197 188 -216 359 -5 47 -11 86 -12 87 -1 1 -47 9
-103 17 -162 23 -299 105 -340 203 -14 34 -14 38 11 79 59 102 199 175 362
190 l72 7 6 56 c21 189 79 307 184 374 53 33 52 33 100 9z m2400 0 c102 -52
179 -199 197 -373 l6 -66 72 -7 c39 -4 92 -13 117 -20 113 -32 220 -110 254
-185 l18 -40 -29 -47 c-60 -96 -185 -164 -342 -184 l-90 -11 -7 -72 c-15 -162
-88 -302 -191 -362 l-44 -26 -45 22 c-108 52 -178 187 -200 383 -4 33 -11 57
-18 57 -7 0 -53 6 -103 14 -150 22 -274 95 -324 189 l-24 44 27 45 c62 106
197 178 364 193 l71 7 7 61 c19 180 93 324 194 377 45 24 44 24 90 1z"/>
</g>
</svg>
