<?xml version="1.0" standalone="no"?>
<!DOCTYPE svg PUBLIC "-//W3C//DTD SVG 20010904//EN"
 "http://www.w3.org/TR/2001/REC-SVG-20010904/DTD/svg10.dtd">
<svg version="1.0" xmlns="http://www.w3.org/2000/svg"
 width="960.000000pt" height="960.000000pt" viewBox="0 0 960.000000 960.000000"
 preserveAspectRatio="xMidYMid meet">

<g transform="translate(0.000000,960.000000) scale(0.100000,-0.100000)"
fill="#000000" stroke="none">
<path d="M0 4800 l0 -4800 4800 0 4800 0 0 4800 0 4800 -4800 0 -4800 0 0
-4800z m435 4613 c221 -433 339 -590 521 -695 43 -25 98 -60 121 -77 54 -39
154 -170 297 -385 l113 -171 269 -220 c148 -121 333 -273 412 -338 l143 -119
-3 -66 -3 -67 -710 -2 c-390 -1 -703 1 -695 4 212 78 318 135 453 241 80 63
160 166 183 237 l17 49 -42 37 c-23 20 -70 48 -104 62 -55 22 -92 31 -213 53
-21 4 -21 4 4 76 21 59 25 92 25 168 -1 134 -15 164 -90 186 -92 27 -269 4
-364 -47 -14 -7 -17 2 -23 64 -9 94 -38 190 -76 250 -29 46 -31 48 -68 41 -90
-16 -174 -68 -275 -171 -95 -97 -159 -189 -229 -328 -33 -66 -62 -122 -64
-124 -2 -2 -4 329 -4 737 l0 742 168 0 167 0 70 -137z m439 -50 c106 -208 191
-346 254 -410 22 -23 86 -71 141 -107 114 -74 154 -122 308 -369 l86 -137 306
-264 c168 -145 314 -273 324 -284 15 -16 17 -34 15 -107 l-3 -87 -360 296
c-359 294 -360 295 -419 388 -109 171 -249 361 -310 422 -35 35 -102 85 -156
116 -123 72 -197 142 -274 259 -78 119 -256 443 -256 466 0 3 56 5 125 5 l124
0 95 -187z m452 60 c66 -143 141 -273 182 -317 15 -15 53 -46 84 -67 82 -56
106 -85 199 -242 l83 -140 218 -200 218 -201 0 -139 c0 -84 -4 -137 -10 -135
-5 2 -126 104 -269 227 -212 183 -267 236 -297 285 -68 112 -196 300 -236 349
-22 26 -84 77 -138 112 -54 36 -113 79 -131 97 -51 51 -122 166 -209 340 l-81
158 164 0 164 0 59 -127z m361 15 c57 -113 109 -176 195 -241 21 -15 61 -66
90 -114 46 -75 72 -104 196 -211 l142 -125 0 -144 c0 -80 -4 -143 -9 -141 -5
2 -79 68 -164 146 -120 110 -164 158 -191 205 -57 102 -136 220 -175 260 -20
22 -62 57 -94 79 -32 21 -72 58 -88 81 -32 44 -159 289 -159 307 0 6 39 10
100 10 l99 0 58 -112z m618 99 c3 -7 4 -144 3 -304 l-3 -293 -81 71 c-60 51
-97 94 -138 158 -53 84 -87 120 -169 184 -31 23 -104 131 -123 181 -5 14 22
16 250 16 197 0 258 -3 261 -13z m533 -77 c164 -321 296 -533 385 -622 30 -30
106 -87 168 -126 63 -39 135 -92 161 -119 52 -54 165 -210 281 -388 l78 -120
409 -335 409 -335 1 -72 0 -73 -707 0 -708 1 86 33 c293 115 515 296 564 460
13 42 13 45 -13 68 -56 51 -171 100 -267 113 -89 12 -85 7 -63 78 28 89 35
219 14 289 -14 51 -20 58 -54 70 -23 8 -77 13 -142 12 -87 -1 -117 -6 -176
-28 -39 -14 -75 -26 -80 -26 -5 0 -10 24 -12 53 -6 102 -47 229 -96 290 -36
46 -189 -28 -315 -152 -117 -117 -210 -258 -289 -441 -8 -18 -11 177 -11 718
l-1 742 168 -2 167 -3 43 -85z m463 -91 c162 -325 243 -433 384 -516 109 -64
177 -146 344 -419 48 -77 77 -111 149 -173 49 -42 169 -146 267 -231 98 -85
202 -175 231 -200 l54 -45 0 -93 0 -94 -25 19 c-13 10 -174 142 -357 293
l-334 274 -84 129 c-196 303 -304 429 -426 497 -171 96 -243 174 -372 402 -74
132 -172 320 -172 331 0 4 56 7 125 7 l125 0 91 -181z m448 51 c109 -235 163
-312 272 -386 60 -41 81 -64 134 -144 34 -52 78 -125 99 -161 31 -57 71 -99
256 -269 l220 -203 0 -139 c0 -77 -4 -138 -9 -136 -4 2 -125 104 -268 228
-167 144 -268 239 -283 265 -12 22 -69 110 -126 196 -108 164 -180 242 -270
294 -84 48 -131 93 -188 178 -49 74 -216 384 -216 401 0 3 72 5 161 4 l161 -3
57 -125z m357 20 c65 -125 105 -176 169 -217 33 -20 63 -55 112 -130 57 -88
86 -119 205 -224 l138 -121 0 -145 c0 -80 -4 -143 -9 -141 -4 2 -77 66 -160
143 -142 130 -157 148 -220 255 -102 171 -144 223 -228 281 -88 61 -113 93
-192 248 -89 175 -91 161 28 161 l100 0 57 -110z m624 -196 l0 -306 -28 24
c-15 12 -51 43 -80 68 -30 25 -79 85 -113 137 -57 86 -100 133 -181 195 -21
16 -51 58 -77 107 l-42 81 260 0 261 0 0 -306z m524 209 c144 -292 285 -519
384 -618 35 -36 102 -85 164 -122 57 -34 126 -83 152 -110 58 -57 170 -211
285 -388 46 -73 100 -143 121 -160 21 -16 205 -167 409 -335 l371 -304 0 -73
0 -73 -707 1 c-705 0 -708 1 -655 19 167 60 341 161 449 264 84 79 120 129
144 199 17 51 17 52 -4 75 -45 48 -175 104 -272 117 -90 12 -86 8 -63 73 17
45 21 82 22 172 1 135 -10 173 -57 190 -89 31 -237 21 -349 -24 l-56 -23 -7
71 c-9 90 -45 206 -81 258 -26 37 -30 39 -63 33 -170 -29 -376 -238 -518 -525
l-52 -105 -1 743 0 742 168 0 167 0 49 -97z m457 -84 c162 -325 223 -408 368
-503 53 -35 117 -86 142 -112 42 -45 134 -180 238 -349 39 -62 81 -102 362
-344 l319 -274 0 -95 0 -95 -22 20 c-13 11 -173 142 -356 293 l-333 272 -104
157 c-218 330 -274 391 -457 500 -129 77 -190 145 -310 346 -49 82 -188 345
-188 356 0 5 56 9 125 9 l125 0 91 -181z m443 73 c114 -247 184 -345 308 -429
50 -34 109 -115 198 -271 29 -51 61 -98 70 -105 10 -7 106 -95 214 -196 l196
-183 0 -139 c0 -76 -2 -139 -5 -139 -2 0 -122 102 -266 227 -209 181 -270 240
-300 288 -104 168 -200 305 -249 358 -30 33 -98 88 -152 123 -108 70 -149 118
-237 273 -50 89 -151 287 -151 296 0 3 73 5 163 5 l162 0 49 -108z m347 36
c61 -128 121 -211 182 -251 51 -34 96 -90 161 -202 10 -16 80 -84 156 -150
l139 -120 1 -148 0 -148 -29 23 c-16 13 -87 77 -158 143 -118 109 -136 131
-201 240 -95 158 -137 213 -197 255 -94 66 -147 129 -207 245 -31 61 -63 127
-72 148 l-15 37 103 0 102 0 35 -72z m639 -234 l0 -305 -82 73 c-59 52 -102
102 -149 174 -53 80 -79 110 -129 145 -53 37 -70 57 -106 124 -24 44 -44 83
-44 88 0 4 115 7 255 7 l255 0 0 -306z m566 154 c209 -413 321 -564 499 -673
44 -27 102 -65 129 -84 56 -42 180 -203 315 -412 l94 -144 408 -335 408 -335
0 -72 1 -73 -707 1 -708 0 54 20 c87 31 254 113 322 160 129 87 234 202 269
295 20 54 20 57 3 77 -46 50 -177 108 -278 122 -90 12 -86 6 -58 93 21 66 24
91 21 177 -3 55 -10 112 -18 127 -33 68 -238 76 -391 14 l-55 -22 -11 85 c-13
100 -42 189 -79 243 -25 35 -30 38 -63 32 -167 -27 -366 -226 -510 -509 l-51
-100 0 733 0 732 164 0 165 0 77 -152z m433 -43 c158 -313 226 -404 375 -499
45 -30 96 -68 114 -86 39 -39 134 -175 227 -325 l68 -110 318 -275 319 -275 0
-93 c0 -88 -1 -92 -18 -80 -10 7 -170 138 -355 291 l-337 278 -124 187 c-206
309 -258 365 -430 466 -155 92 -231 188 -411 524 -46 86 -87 165 -91 175 -6
16 2 17 122 15 l128 -3 95 -190z m455 40 c107 -221 149 -281 251 -355 71 -51
92 -73 143 -152 33 -51 76 -123 96 -160 20 -36 58 -85 84 -109 26 -23 101 -93
167 -154 66 -61 144 -133 173 -159 l52 -49 0 -138 c0 -77 -2 -139 -6 -139 -3
0 -123 102 -266 227 -208 181 -268 239 -297 286 -95 156 -207 317 -254 366
-29 29 -96 82 -150 118 -121 80 -166 140 -297 396 l-91 177 160 0 160 0 75
-155z m337 57 c68 -129 104 -179 157 -216 64 -43 85 -67 142 -160 41 -67 73
-102 190 -204 l140 -123 0 -144 c0 -80 -3 -145 -6 -145 -3 0 -75 64 -160 143
-144 132 -159 150 -223 257 -108 180 -143 223 -231 285 -64 45 -88 69 -124
128 -38 60 -136 258 -136 273 0 3 46 3 101 2 l101 -3 49 -93z m629 -208 l0
-306 -61 54 c-34 29 -72 62 -84 73 -13 11 -55 67 -94 125 -52 79 -82 114 -121
140 -55 36 -90 80 -134 168 l-26 52 260 0 260 0 0 -306z m-9131 -2236 c244
-467 337 -593 526 -703 161 -95 208 -146 421 -464 l110 -166 410 -335 409
-335 3 -63 3 -62 -678 0 -678 0 99 45 c266 120 458 292 490 441 6 27 3 35 -25
58 -67 56 -229 116 -315 116 l-32 0 25 78 c30 90 36 211 14 285 -16 56 -42 71
-143 82 -71 7 -194 -14 -267 -46 -24 -10 -45 -19 -46 -19 -1 0 -5 30 -9 68
-12 118 -49 228 -94 279 -17 19 -24 21 -63 12 -112 -25 -264 -148 -374 -299
-33 -46 -88 -140 -122 -209 l-63 -126 0 743 0 742 168 0 167 0 64 -122z m386
60 c41 -94 182 -355 228 -422 63 -93 103 -132 206 -200 138 -90 161 -118 373
-451 39 -62 85 -105 361 -340 174 -149 319 -279 322 -290 3 -11 5 -55 3 -98
l-3 -79 -360 295 -360 295 -90 138 c-195 299 -288 404 -440 493 -49 29 -109
68 -131 87 -77 62 -184 225 -327 495 -37 70 -67 130 -67 133 0 3 58 6 129 6
l128 0 28 -62z m513 -63 c114 -242 163 -311 273 -385 73 -50 100 -83 194 -242
l78 -130 218 -201 219 -202 0 -138 c0 -85 -4 -137 -10 -135 -5 2 -126 103
-269 226 l-260 223 -70 114 c-161 258 -222 329 -361 420 -52 34 -107 75 -121
91 -44 48 -115 164 -200 329 l-81 155 167 -2 167 -3 56 -120z m346 38 c63
-124 104 -182 156 -220 73 -54 92 -75 145 -161 41 -67 74 -102 190 -204 l140
-124 3 -143 c1 -87 -1 -142 -7 -139 -5 1 -78 66 -163 144 -147 135 -157 146
-231 271 -94 154 -140 211 -217 263 -80 55 -118 102 -188 238 -90 176 -92 162
27 162 l101 0 44 -87z m636 -213 c0 -165 -3 -300 -6 -300 -4 0 -41 30 -84 68
-55 47 -98 98 -148 173 -55 82 -83 114 -122 139 -59 38 -85 70 -129 158 l-31
62 260 0 260 0 0 -300z m542 187 c153 -300 291 -519 380 -603 29 -28 105 -82
168 -121 157 -97 190 -134 397 -447 l113 -170 187 -154 c417 -343 560 -459
595 -488 37 -28 38 -31 38 -91 l0 -63 -672 0 c-369 0 -669 2 -667 4 2 2 41 19
86 39 164 70 340 196 418 298 21 27 48 75 61 107 l23 57 -22 24 c-59 64 -222
130 -324 131 -18 0 -33 2 -33 3 0 2 10 30 21 63 17 47 22 83 23 174 2 179 -24
205 -199 204 -84 -1 -143 -15 -255 -58 -12 -5 -16 5 -18 51 -4 85 -40 208 -76
261 -28 43 -34 47 -66 44 -19 -2 -63 -17 -96 -34 -151 -73 -315 -263 -425
-492 l-49 -101 0 738 0 737 168 0 167 0 57 -113z m445 -55 c162 -328 229 -419
398 -531 115 -76 151 -118 299 -354 l93 -148 249 -216 c137 -118 282 -243 322
-276 l72 -61 0 -94 c0 -74 -3 -92 -12 -85 -7 6 -168 137 -357 292 l-344 282
-115 172 c-206 309 -264 374 -420 465 -159 93 -218 160 -358 403 -70 122 -164
302 -164 314 0 3 57 5 128 4 l127 0 82 -167z m482 -16 c79 -161 99 -193 153
-248 35 -35 84 -78 110 -95 55 -37 92 -86 184 -241 65 -110 71 -117 285 -314
l219 -201 0 -139 c0 -77 -4 -138 -9 -136 -5 2 -125 103 -267 226 l-258 223
-86 138 c-97 154 -183 272 -226 312 -16 15 -67 52 -114 82 -47 30 -102 72
-122 93 -49 53 -122 172 -207 343 l-71 141 159 0 159 0 91 -184z m313 106 c60
-128 109 -194 178 -243 50 -35 74 -63 124 -141 53 -84 79 -111 198 -215 l137
-118 0 -149 1 -149 -57 54 c-32 30 -106 99 -165 153 -76 69 -118 117 -142 160
-54 96 -135 218 -170 255 -17 18 -56 50 -86 71 -71 49 -99 80 -147 165 -35 60
-113 221 -113 231 0 2 46 4 103 4 l102 0 37 -78z m638 -222 c0 -165 -3 -300
-6 -300 -3 0 -41 30 -83 68 -55 47 -97 97 -145 170 -48 73 -81 113 -114 135
-66 45 -92 75 -135 156 l-38 71 260 0 261 0 0 -300z m522 207 c241 -470 356
-625 546 -736 157 -91 211 -152 423 -474 l99 -150 238 -195 c130 -107 315
-258 410 -335 l172 -141 0 -63 0 -63 -672 0 c-369 0 -669 2 -667 4 2 2 42 20
89 40 240 104 432 269 483 418 l18 53 -33 28 c-69 57 -231 117 -320 117 -25 0
-29 3 -23 18 45 104 58 269 29 354 -14 42 -19 47 -62 59 -80 24 -204 16 -303
-18 l-87 -30 -7 66 c-8 82 -30 162 -61 221 -40 77 -44 80 -94 69 -181 -41
-409 -288 -535 -579 l-24 -55 -1 743 0 742 168 0 167 0 47 -93z m465 -99 c161
-313 242 -420 380 -499 108 -62 157 -120 327 -390 l81 -127 318 -273 317 -272
0 -94 0 -94 -114 93 c-63 51 -223 183 -357 292 l-244 200 -94 144 c-128 195
-229 329 -294 388 -30 27 -98 76 -152 109 -124 73 -169 114 -243 223 -76 111
-272 462 -272 487 0 3 56 5 124 5 l125 0 98 -192z m469 24 c101 -208 147 -271
246 -340 82 -56 113 -95 222 -282 43 -74 73 -110 152 -183 55 -50 148 -136
208 -191 60 -56 113 -104 118 -107 5 -3 7 -70 6 -149 l-3 -143 -264 227 -264
227 -78 126 c-160 256 -232 339 -347 405 -123 70 -195 165 -331 437 l-71 141
162 0 163 0 81 -168z m334 65 c59 -121 92 -163 167 -219 39 -29 73 -67 118
-137 53 -81 83 -115 199 -216 l136 -119 0 -143 c0 -79 -2 -143 -4 -143 -3 0
-75 65 -161 145 -148 136 -161 151 -227 262 -96 163 -137 213 -223 272 -94 65
-131 117 -224 317 l-40 84 104 0 103 0 52 -103z m620 -198 c0 -286 -1 -301
-17 -288 -93 72 -152 135 -205 216 -54 84 -125 163 -147 163 -17 0 -63 55 -96
114 -59 107 -83 96 209 96 l256 0 0 -301z m536 209 c150 -300 288 -522 383
-617 34 -34 101 -84 158 -117 54 -32 118 -76 142 -98 56 -52 158 -189 284
-381 l98 -150 409 -335 409 -335 1 -62 0 -63 -672 0 -673 0 98 44 c248 112
439 279 483 421 l15 50 -33 28 c-67 57 -231 117 -320 117 -25 0 -29 3 -23 18
45 104 58 269 30 354 -17 50 -37 60 -141 74 -59 7 -194 -16 -263 -47 -24 -10
-45 -19 -46 -19 -2 0 -6 33 -10 74 -8 86 -52 222 -86 264 -30 37 -54 35 -154
-13 -143 -69 -297 -244 -407 -464 l-58 -114 0 731 0 732 165 0 165 0 46 -92z
m457 -83 c100 -201 176 -329 239 -399 23 -28 86 -78 138 -112 52 -33 112 -80
133 -103 39 -43 159 -221 232 -343 35 -59 78 -100 362 -345 l323 -278 0 -93 0
-94 -24 19 c-14 10 -175 141 -358 292 l-333 275 -94 144 c-201 308 -286 403
-440 493 -47 28 -105 67 -129 86 -74 60 -213 275 -332 513 l-60 120 128 0 127
0 88 -175z m447 53 c65 -142 138 -270 183 -317 18 -18 57 -50 88 -71 76 -53
107 -90 196 -241 76 -129 81 -134 248 -287 93 -86 191 -177 218 -201 l47 -44
0 -139 c0 -76 -2 -138 -6 -138 -3 0 -122 101 -266 226 l-260 225 -79 125
c-162 260 -213 319 -348 408 -53 35 -108 77 -122 92 -44 47 -114 164 -200 329
l-81 155 164 0 163 0 55 -122z m354 25 c63 -128 105 -184 168 -224 40 -26 66
-56 117 -134 57 -87 85 -118 203 -221 l137 -119 1 -148 0 -148 -161 148 c-154
142 -163 153 -237 276 -90 150 -143 213 -222 267 -32 22 -72 56 -88 76 -29 35
-138 236 -161 297 l-11 27 103 0 102 0 49 -97z m626 -204 c0 -180 -4 -299 -9
-297 -5 2 -43 33 -84 70 -48 43 -98 103 -142 169 -47 70 -82 111 -114 133 -65
44 -91 74 -134 155 l-38 71 260 0 261 0 0 -301z m-9115 -2246 c197 -383 322
-558 461 -644 224 -136 245 -159 458 -479 l124 -185 207 -170 c115 -93 298
-245 409 -336 l201 -165 0 -70 0 -69 -710 -2 -710 -2 100 38 c219 85 398 208
492 340 29 40 58 91 64 113 10 38 9 42 -18 70 -51 54 -218 118 -307 118 -42 0
-43 3 -14 90 27 83 29 235 4 292 -14 33 -23 40 -73 54 -92 27 -269 4 -364 -47
-14 -7 -17 2 -23 64 -9 94 -38 190 -76 250 -29 46 -31 48 -68 42 -170 -29
-374 -234 -519 -524 l-53 -106 0 733 0 732 173 0 172 0 70 -137z m434 -40
c104 -204 188 -339 252 -402 24 -24 88 -72 141 -107 111 -72 152 -122 305
-367 l86 -137 311 -268 c171 -148 317 -276 324 -284 9 -11 12 -43 10 -103 l-3
-87 -360 296 c-359 294 -360 295 -419 388 -109 171 -249 361 -310 422 -35 35
-102 85 -156 116 -162 95 -244 189 -387 445 -53 95 -133 251 -133 260 0 3 56
5 125 5 l124 0 90 -177z m456 51 c64 -138 131 -252 173 -298 15 -15 53 -46 84
-67 82 -56 106 -85 198 -240 54 -92 99 -154 134 -186 28 -26 110 -102 181
-169 72 -66 147 -136 168 -153 l37 -33 0 -140 c0 -85 -4 -138 -10 -136 -5 2
-127 104 -270 228 -214 184 -268 236 -297 285 -63 105 -194 298 -235 348 -22
26 -84 77 -138 112 -54 36 -113 79 -131 97 -50 50 -121 165 -204 329 l-76 149
164 0 164 0 58 -126z m357 24 c52 -103 107 -169 190 -231 21 -15 61 -66 90
-114 45 -74 73 -103 195 -211 l143 -124 0 -145 c0 -80 -4 -143 -9 -141 -5 2
-79 68 -164 146 -134 123 -163 155 -203 225 -106 185 -161 253 -257 319 -73
49 -103 91 -183 251 l-64 127 104 0 105 0 53 -102z m618 -195 c0 -281 -1 -295
-17 -281 -125 105 -159 141 -209 219 -52 83 -85 119 -167 182 -30 22 -117 150
-117 171 0 3 115 6 255 6 l255 0 0 -297z m554 180 c131 -265 270 -487 360
-577 30 -29 105 -85 167 -124 162 -100 209 -153 408 -457 l110 -167 298 -245
c164 -135 342 -282 396 -327 55 -44 105 -85 113 -89 10 -6 14 -29 14 -82 l0
-75 -707 0 -708 0 95 39 c184 74 302 146 412 249 75 71 124 141 143 206 13 42
13 45 -13 68 -58 53 -178 103 -276 114 -77 9 -79 11 -55 74 29 77 37 218 15
292 -14 48 -21 58 -48 68 -89 31 -237 21 -346 -23 l-60 -24 -6 30 c-3 16 -6
41 -6 55 0 68 -50 210 -94 265 -35 45 -187 -27 -310 -147 -115 -113 -212 -255
-281 -416 l-24 -55 -1 733 0 732 173 0 172 0 59 -117z m435 -42 c164 -327 229
-415 373 -509 52 -33 112 -80 135 -104 44 -48 136 -182 222 -324 44 -72 75
-108 146 -170 171 -149 440 -382 498 -430 l57 -48 0 -94 0 -94 -25 19 c-13 10
-174 142 -357 293 l-334 274 -84 129 c-196 303 -304 429 -426 497 -197 111
-267 198 -463 569 l-79 151 129 0 129 0 79 -159z m411 134 c23 -62 144 -296
178 -345 24 -34 70 -79 123 -118 91 -69 131 -119 224 -283 34 -58 75 -115 103
-140 26 -24 103 -95 172 -159 69 -64 146 -136 173 -159 l47 -44 0 -139 c0 -77
-4 -138 -9 -136 -4 2 -125 104 -268 228 -167 144 -268 239 -283 265 -12 22
-69 110 -126 196 -108 164 -180 242 -270 294 -84 48 -131 93 -188 178 -49 74
-206 364 -206 380 0 4 72 7 160 7 l160 0 10 -25z m402 -77 c52 -101 100 -158
185 -225 23 -18 67 -73 98 -122 47 -75 78 -108 196 -210 l139 -122 0 -151 0
-150 -121 113 c-67 63 -139 129 -160 147 -21 18 -69 85 -107 150 -103 172
-145 225 -229 283 -41 28 -88 69 -104 91 -32 45 -149 270 -149 287 0 7 35 11
99 11 l100 0 53 -102z m618 -194 l0 -296 -28 24 c-15 12 -51 43 -80 68 -30 25
-79 85 -113 137 -57 86 -100 133 -181 195 -20 15 -51 57 -72 97 l-37 71 255 0
256 0 0 -296z m529 209 c138 -282 284 -514 380 -609 32 -33 106 -87 162 -121
57 -34 126 -83 153 -110 57 -57 168 -208 285 -388 74 -115 95 -139 176 -205
51 -41 234 -192 409 -335 l316 -260 0 -72 0 -73 -707 1 c-705 0 -708 1 -655
19 293 104 546 305 597 474 13 42 13 45 -13 68 -56 51 -171 100 -267 113 -89
12 -86 8 -62 73 17 45 21 81 21 172 1 135 -10 173 -57 190 -89 31 -237 21
-349 -24 l-56 -23 -7 71 c-9 90 -45 206 -81 258 -26 37 -30 39 -63 33 -170
-29 -376 -238 -518 -525 l-52 -105 -1 733 0 732 173 0 173 0 43 -87z m457 -84
c157 -315 221 -402 364 -495 52 -34 115 -83 140 -110 43 -45 136 -181 239
-349 39 -62 81 -102 362 -344 l319 -274 0 -95 0 -95 -22 20 c-13 11 -173 142
-356 293 l-333 272 -104 157 c-218 330 -274 391 -457 500 -159 94 -236 195
-418 544 l-78 147 129 0 129 0 86 -171z m438 83 c105 -234 185 -346 308 -429
49 -34 99 -100 188 -254 52 -90 69 -108 273 -298 l217 -202 0 -140 c0 -110 -3
-139 -12 -133 -7 5 -127 107 -266 227 -201 174 -261 232 -290 279 -97 157
-202 308 -252 361 -30 33 -98 88 -152 123 -108 70 -149 118 -237 273 -50 89
-141 267 -141 276 0 3 73 5 163 5 l162 0 39 -88z m355 21 c59 -123 110 -192
171 -233 54 -37 97 -90 164 -205 10 -16 80 -84 157 -150 l138 -120 1 -149 0
-149 -22 19 c-13 10 -86 78 -163 149 -119 110 -147 143 -189 215 -106 184
-151 242 -237 301 -31 21 -72 56 -91 79 -32 37 -133 218 -157 283 l-11 27 103
0 103 0 33 -67z m631 -229 l0 -295 -83 73 c-60 53 -101 101 -149 174 -53 82
-77 109 -126 143 -47 32 -69 56 -96 104 -60 108 -83 97 203 97 l251 0 0 -296z
m569 158 c199 -398 327 -568 501 -671 41 -24 97 -60 123 -79 56 -40 179 -201
316 -413 93 -142 95 -145 234 -259 77 -63 197 -162 266 -219 69 -57 190 -156
268 -220 l142 -116 0 -72 1 -73 -707 0 -708 1 75 28 c178 67 323 154 438 265
77 74 111 123 137 195 14 41 14 46 -2 64 -46 50 -177 108 -278 122 -90 12 -86
6 -58 93 21 66 24 91 21 177 -3 55 -10 112 -18 127 -33 68 -238 76 -391 14
l-55 -22 -11 85 c-13 100 -42 189 -79 243 -25 35 -30 38 -63 32 -167 -27 -368
-228 -510 -510 l-51 -99 0 723 0 722 170 0 170 0 69 -138z m433 -40 c97 -197
182 -335 249 -401 24 -24 80 -68 124 -96 44 -29 95 -67 113 -86 41 -42 136
-177 227 -324 l68 -110 318 -275 319 -275 0 -93 c0 -88 -1 -92 -18 -80 -10 7
-170 138 -355 291 l-337 278 -124 187 c-206 309 -258 365 -430 466 -154 91
-229 186 -405 513 -44 81 -83 156 -87 166 -6 16 4 17 122 17 l129 -1 87 -177z
m457 32 c102 -211 146 -273 244 -341 67 -48 89 -71 139 -147 33 -50 78 -123
99 -162 34 -62 67 -97 259 -274 l220 -202 0 -139 c0 -76 -2 -139 -6 -139 -3 0
-122 102 -265 226 -208 181 -268 238 -297 286 -100 162 -208 318 -255 367 -29
29 -96 82 -150 118 -120 79 -166 140 -292 386 l-86 167 160 0 160 0 70 -146z
m328 78 c53 -113 107 -187 170 -233 68 -50 68 -51 133 -155 42 -67 75 -102
190 -203 l140 -121 0 -145 c0 -80 -3 -145 -6 -145 -3 0 -75 65 -160 143 -144
134 -160 152 -228 265 -108 178 -139 215 -226 277 -89 62 -120 105 -201 272
-27 56 -49 105 -49 108 0 3 46 5 103 5 l102 0 32 -68z m633 -228 l0 -296 -61
54 c-106 92 -115 102 -150 158 -57 94 -98 143 -153 182 -53 38 -85 77 -125
156 l-21 42 255 0 255 0 0 -296z m-9105 -2276 c165 -315 279 -487 373 -567 26
-21 90 -64 142 -95 149 -90 196 -142 406 -455 l110 -166 410 -335 409 -335 3
-73 3 -72 -708 1 c-705 0 -708 1 -655 19 289 103 549 310 593 472 9 36 8 43
-11 63 -51 54 -236 125 -326 125 l-32 0 25 77 c30 91 36 212 14 286 -16 56
-42 71 -143 82 -71 7 -194 -14 -267 -46 -24 -10 -45 -19 -46 -19 -1 0 -5 30
-9 68 -12 118 -49 228 -94 279 -17 19 -24 21 -63 12 -79 -18 -160 -70 -254
-164 -106 -105 -177 -207 -252 -360 l-53 -110 0 743 0 742 168 0 167 0 90
-172z m370 90 c59 -125 172 -335 217 -402 65 -95 107 -135 208 -201 136 -88
159 -117 372 -450 39 -61 85 -105 361 -340 174 -149 319 -279 322 -290 3 -11
5 -55 3 -98 l-3 -79 -360 295 -360 295 -90 138 c-198 305 -288 404 -450 499
-118 69 -180 129 -257 245 -54 82 -258 447 -258 463 0 4 58 7 128 7 l129 0 38
-82z m503 -43 c116 -245 163 -311 273 -385 73 -50 100 -83 193 -239 55 -94 94
-144 143 -192 71 -67 257 -238 331 -303 l42 -38 0 -140 c0 -86 -4 -138 -10
-136 -5 2 -127 104 -270 227 l-260 224 -70 113 c-159 255 -221 328 -360 419
-52 34 -107 75 -121 91 -44 48 -115 164 -200 329 l-81 155 167 -2 166 -3 57
-120z m342 45 c67 -133 107 -188 173 -236 66 -49 70 -54 137 -161 35 -56 77
-100 185 -195 l140 -124 3 -143 c1 -87 -1 -142 -7 -139 -5 1 -78 66 -163 144
-147 135 -157 146 -231 271 -94 154 -140 211 -217 263 -32 22 -74 58 -94 82
-32 37 -166 287 -166 309 0 5 45 9 100 9 l100 0 40 -80z m640 -220 c0 -165 -3
-300 -6 -300 -4 0 -41 30 -84 68 -55 47 -98 98 -148 173 -55 82 -83 114 -122
139 -59 38 -85 70 -129 158 l-31 62 260 0 260 0 0 -300z m542 187 c154 -303
295 -524 386 -608 32 -30 100 -79 151 -109 51 -30 111 -70 132 -89 52 -44 138
-157 279 -368 l115 -173 376 -307 c206 -170 390 -320 407 -335 30 -25 32 -30
32 -97 l0 -71 -702 0 -703 0 109 45 c261 106 458 266 522 423 l23 57 -22 24
c-59 64 -222 130 -324 131 -18 0 -33 2 -33 3 0 2 10 30 21 63 17 47 22 83 23
174 2 179 -24 205 -199 204 -70 -1 -108 -7 -170 -28 -44 -15 -84 -28 -89 -29
-5 -1 -11 23 -13 53 -6 86 -43 207 -77 258 -28 43 -34 47 -66 44 -19 -2 -63
-17 -96 -34 -152 -74 -317 -265 -425 -492 l-48 -101 -1 738 0 737 168 0 167 0
57 -113z m457 -77 c102 -206 187 -344 250 -404 22 -22 85 -69 138 -105 112
-76 155 -126 303 -362 l90 -144 247 -213 c137 -118 281 -242 320 -275 l72 -62
1 -94 c0 -73 -3 -91 -12 -84 -7 6 -168 137 -357 292 l-344 282 -115 172 c-206
309 -264 374 -420 465 -157 92 -215 157 -352 393 -66 113 -170 311 -170 324 0
3 57 5 128 4 l127 -1 94 -188z m454 38 c113 -234 154 -289 279 -375 55 -38 93
-88 184 -241 58 -98 81 -126 178 -215 61 -56 136 -125 166 -153 30 -28 79 -72
108 -99 l52 -48 0 -139 c0 -77 -4 -138 -9 -136 -5 2 -125 103 -267 226 l-258
223 -86 138 c-97 154 -183 272 -226 312 -16 15 -67 52 -114 82 -47 30 -102 72
-122 93 -49 53 -122 172 -207 343 l-71 141 159 0 159 0 75 -152z m351 36 c60
-119 98 -166 176 -220 32 -22 62 -58 103 -125 51 -84 73 -107 197 -214 l139
-120 1 -143 c0 -80 -4 -142 -9 -140 -5 2 -79 68 -164 146 -120 110 -164 158
-191 205 -54 96 -135 219 -170 256 -17 18 -56 50 -86 71 -71 49 -99 80 -147
165 -35 60 -113 221 -113 231 0 2 46 4 103 4 l102 0 59 -116z m616 -184 c0
-165 -3 -300 -6 -300 -3 0 -41 30 -83 68 -53 47 -97 98 -145 170 -48 73 -81
113 -114 135 -66 45 -92 75 -135 156 l-38 71 260 0 261 0 0 -300z m522 207
c241 -470 356 -626 546 -736 157 -91 211 -151 422 -472 l99 -150 343 -282
c189 -155 374 -306 411 -336 l67 -54 0 -74 0 -73 -702 0 -703 0 105 43 c271
109 469 272 530 434 l21 57 -33 28 c-69 58 -231 118 -320 118 -25 0 -29 3 -23
17 45 105 58 270 29 355 -14 42 -19 47 -62 59 -74 22 -205 16 -287 -13 -38
-14 -77 -28 -86 -32 -14 -6 -18 3 -24 61 -8 84 -30 164 -61 223 -40 77 -44 80
-94 69 -168 -38 -367 -241 -501 -513 l-59 -119 0 742 0 741 168 0 167 0 47
-93z m465 -99 c159 -310 242 -420 376 -497 111 -63 162 -123 331 -392 l81
-127 318 -273 317 -272 0 -94 0 -94 -114 93 c-63 51 -223 183 -357 292 l-244
200 -94 144 c-128 195 -229 329 -294 388 -30 27 -98 76 -152 109 -124 73 -169
114 -243 223 -76 111 -272 462 -272 487 0 3 56 5 124 5 l125 0 98 -192z m469
24 c101 -208 147 -271 246 -340 82 -56 113 -95 221 -280 49 -84 71 -108 270
-292 l217 -201 0 -140 c0 -110 -3 -139 -12 -133 -7 5 -127 107 -267 227 l-254
219 -78 125 c-160 255 -232 339 -347 405 -124 70 -189 155 -322 420 l-81 158
163 0 163 0 81 -168z m333 64 c61 -121 93 -162 168 -218 39 -29 73 -67 118
-137 53 -81 83 -115 199 -216 l136 -119 0 -143 c0 -79 -2 -143 -4 -143 -3 0
-75 65 -161 145 -148 136 -161 151 -227 262 -96 163 -137 213 -223 273 -92 63
-137 127 -223 313 l-41 87 103 0 103 0 52 -104z m621 -197 c0 -286 -1 -301
-17 -288 -95 74 -153 135 -207 219 -34 52 -79 109 -99 125 -98 79 -117 100
-151 164 -20 38 -36 72 -36 75 0 3 115 6 255 6 l255 0 0 -301z m536 209 c150
-300 288 -522 383 -617 34 -34 101 -84 158 -117 158 -93 208 -149 413 -459
l111 -169 212 -174 c117 -96 248 -204 293 -241 44 -36 133 -109 197 -161 l116
-95 0 -72 1 -73 -702 0 -703 0 105 43 c250 101 431 238 509 387 48 93 48 105
-1 141 -78 57 -225 109 -310 109 -25 0 -29 3 -23 17 45 105 58 270 30 355 -17
50 -37 60 -141 74 -59 7 -194 -16 -263 -47 -24 -10 -45 -19 -46 -19 -2 0 -6
33 -10 74 -8 86 -52 222 -86 264 -30 37 -54 35 -157 -15 -142 -68 -308 -261
-417 -485 l-45 -92 0 732 0 732 165 0 165 0 46 -92z m457 -83 c100 -201 176
-329 239 -399 23 -28 86 -78 138 -112 52 -33 112 -80 133 -103 39 -43 159
-221 232 -343 35 -58 79 -100 362 -345 l323 -278 0 -93 0 -94 -24 19 c-14 10
-175 141 -358 292 l-333 275 -94 144 c-203 310 -286 403 -445 497 -50 29 -110
69 -132 89 -71 61 -211 281 -330 518 l-54 108 128 0 127 0 88 -175z m446 54
c64 -141 139 -270 184 -318 18 -18 57 -50 88 -71 76 -53 107 -90 196 -241 l77
-130 218 -201 218 -201 0 -139 c0 -76 -2 -138 -6 -138 -3 0 -122 101 -266 226
l-260 225 -79 125 c-162 260 -213 319 -348 408 -53 35 -108 77 -122 92 -44 47
-114 164 -200 329 l-81 155 164 0 163 0 54 -121z m355 24 c63 -128 105 -184
168 -224 40 -26 66 -56 117 -134 57 -87 85 -118 203 -221 l137 -119 1 -142 c0
-79 -3 -143 -6 -143 -3 0 -77 65 -163 145 -152 140 -160 150 -233 273 -88 147
-138 208 -218 262 -32 22 -72 56 -88 76 -29 35 -138 236 -161 297 l-11 27 103
0 102 0 49 -97z m626 -204 c0 -180 -4 -299 -9 -297 -5 2 -43 33 -84 70 -48 43
-98 103 -142 169 -47 70 -82 111 -114 133 -65 44 -91 74 -134 155 l-38 71 260
0 261 0 0 -301z"/>
</g>
</svg>
