<?xml version="1.0" standalone="no"?>
<!DOCTYPE svg PUBLIC "-//W3C//DTD SVG 20010904//EN"
 "http://www.w3.org/TR/2001/REC-SVG-20010904/DTD/svg10.dtd">
<svg version="1.0" xmlns="http://www.w3.org/2000/svg"
 width="960.000000pt" height="960.000000pt" viewBox="0 0 960.000000 960.000000"
 preserveAspectRatio="xMidYMid meet">

<g transform="translate(0.000000,960.000000) scale(0.100000,-0.100000)"
fill="#000000" stroke="none">
<path d="M780 9587 c0 -16 -45 -59 -80 -78 -17 -8 -66 -13 -147 -13 -137 0
-137 2 -3 -66 139 -70 182 -180 97 -244 -60 -44 -182 -13 -299 77 -27 20 -48
35 -48 32 0 -3 20 -36 44 -74 93 -145 111 -213 69 -269 -70 -95 -178 -49 -263
112 -19 36 -37 66 -40 66 -3 0 -4 -37 -2 -82 5 -104 -11 -160 -55 -198 -18
-17 -38 -30 -43 -30 -6 0 -10 -151 -10 -405 0 -327 3 -405 13 -405 24 0 77
-62 88 -103 6 -24 9 -91 7 -153 l-3 -112 53 98 c62 117 95 154 149 170 77 23
139 -31 137 -120 -1 -40 -61 -166 -106 -222 -16 -21 -27 -38 -24 -38 3 0 37
20 75 44 104 67 146 86 191 86 47 0 95 -22 110 -49 14 -28 12 -87 -4 -119 -16
-31 -84 -82 -169 -128 l-57 -30 113 0 c107 1 116 0 155 -26 56 -37 73 -91 46
-140 -11 -19 -39 -43 -64 -56 -41 -21 -56 -23 -168 -20 -67 2 -122 2 -122 1 0
-2 40 -23 89 -48 150 -75 204 -146 170 -227 -19 -46 -84 -73 -141 -57 -56 15
-131 53 -192 97 -56 41 -55 37 19 -77 59 -91 78 -152 65 -201 -16 -58 -53 -83
-115 -77 -44 4 -54 10 -97 56 -26 28 -61 80 -79 116 -17 36 -32 65 -33 65 0 0
-1 -51 -1 -113 0 -128 -13 -165 -71 -199 l-34 -20 0 -394 0 -394 22 -9 c30
-12 64 -49 78 -86 7 -16 12 -80 13 -142 l1 -111 46 82 c78 140 106 166 178
166 72 0 122 -68 107 -148 -7 -37 -54 -138 -86 -184 -11 -14 -19 -29 -19 -32
0 -3 31 14 69 38 128 83 209 95 264 41 30 -31 39 -71 27 -117 -15 -52 -68
-101 -164 -152 l-49 -26 96 1 c66 0 104 -4 123 -14 106 -55 105 -158 -1 -215
-23 -12 -60 -16 -152 -16 -137 0 -137 2 -3 -66 139 -70 182 -180 97 -244 -60
-44 -182 -13 -300 77 -26 20 -47 35 -47 32 0 -3 20 -36 44 -74 99 -154 113
-218 61 -279 -35 -41 -73 -48 -128 -24 -47 21 -85 67 -142 174 l-31 58 4 -90
c6 -114 -9 -170 -55 -210 -18 -17 -38 -30 -43 -30 -6 0 -10 -151 -10 -405 0
-327 3 -405 13 -405 24 0 77 -62 88 -103 6 -24 9 -91 7 -153 l-3 -112 53 98
c62 117 95 154 149 170 77 23 139 -31 137 -120 -1 -40 -61 -166 -106 -223 -16
-20 -27 -37 -24 -37 3 0 37 20 75 44 104 67 146 86 191 86 47 0 95 -22 110
-49 14 -28 12 -87 -4 -119 -16 -31 -84 -82 -169 -128 l-57 -30 113 0 c107 1
116 0 155 -26 56 -37 73 -91 46 -140 -11 -19 -39 -43 -64 -56 -41 -21 -56 -23
-168 -20 -67 2 -122 2 -122 1 0 -2 40 -23 89 -48 150 -75 204 -146 170 -227
-19 -46 -84 -73 -141 -57 -56 15 -131 53 -192 97 -56 41 -55 37 19 -77 59 -91
78 -152 65 -201 -16 -58 -53 -83 -115 -77 -44 4 -54 10 -97 56 -26 28 -61 80
-79 116 -17 36 -32 65 -33 65 0 0 -1 -51 -1 -113 0 -128 -13 -165 -71 -199
l-34 -20 0 -401 0 -402 32 -15 c60 -28 73 -67 73 -222 l0 -138 47 95 c26 51
65 112 85 133 86 90 202 57 206 -59 2 -52 -42 -152 -100 -232 -21 -28 -31 -47
-23 -42 8 5 51 31 95 59 44 27 100 55 124 63 114 34 196 -56 146 -160 -19 -38
-80 -86 -164 -128 -33 -17 -61 -31 -61 -32 0 -1 51 -2 113 -2 134 0 170 -15
202 -83 l19 -42 398 0 c382 0 398 1 398 19 0 25 36 68 73 88 25 13 58 16 147
15 l115 -2 -73 37 c-89 44 -157 102 -172 148 -24 74 30 145 112 145 47 0 71
-11 187 -83 l93 -58 -35 49 c-48 64 -107 189 -107 225 0 84 63 138 139 117 52
-14 100 -69 156 -180 25 -49 47 -90 48 -90 2 0 0 30 -5 67 -12 84 5 218 30
253 25 34 81 60 115 53 77 -15 113 -108 105 -271 l-5 -93 54 98 c58 105 83
137 125 159 47 24 86 18 124 -20 29 -29 34 -41 34 -82 0 -55 -31 -130 -83
-203 -18 -25 -37 -52 -41 -59 -4 -7 33 12 83 43 111 69 169 89 221 75 49 -13
71 -40 77 -92 7 -72 -53 -138 -184 -203 -29 -14 -53 -27 -53 -28 0 -1 51 -2
113 -2 98 0 116 -3 148 -22 34 -22 59 -58 59 -88 0 -13 57 -15 405 -15 389 0
405 1 405 19 0 25 35 68 73 88 25 14 57 17 142 17 l111 0 -70 34 c-139 70
-202 161 -159 234 27 46 57 59 129 56 60 -4 94 -19 209 -94 l30 -19 -27 35
c-15 19 -43 70 -64 113 -29 63 -36 85 -31 118 11 84 71 122 157 99 51 -14 86
-48 133 -131 l34 -61 6 91 c4 50 13 106 21 124 44 104 174 114 231 17 17 -31
20 -52 20 -172 l0 -138 47 95 c26 51 65 112 85 133 86 90 202 57 206 -59 2
-52 -42 -152 -100 -232 -21 -28 -31 -47 -23 -42 8 5 51 31 95 59 44 27 100 55
124 63 114 34 196 -56 146 -160 -19 -38 -80 -86 -164 -128 -33 -17 -61 -31
-61 -32 0 -1 51 -2 113 -2 134 0 170 -15 202 -83 l19 -42 398 0 c382 0 398 1
398 19 0 25 36 68 73 88 25 13 58 16 147 15 l115 -2 -73 37 c-89 44 -157 102
-172 148 -24 74 30 145 112 145 47 0 71 -11 187 -83 l93 -58 -35 49 c-48 64
-107 189 -107 225 0 84 63 138 139 117 52 -14 100 -69 156 -180 25 -49 47 -90
48 -90 2 0 0 30 -5 67 -12 84 5 218 30 253 25 34 81 60 115 53 78 -15 113
-108 105 -272 l-5 -94 52 97 c55 103 84 140 127 162 47 24 86 18 124 -20 30
-30 34 -41 34 -83 0 -51 -41 -145 -94 -218 -13 -16 -26 -35 -30 -42 -4 -7 40
16 97 51 58 35 121 66 140 69 111 18 183 -79 127 -170 -23 -38 -93 -91 -167
-128 -29 -14 -53 -27 -53 -28 0 -1 51 -2 113 -2 98 0 116 -3 148 -22 34 -22
59 -58 59 -88 0 -13 57 -15 405 -15 389 0 405 1 405 19 0 25 36 68 73 88 25
13 57 16 145 15 l114 -1 -73 36 c-93 46 -165 115 -174 165 -13 70 40 128 117
128 53 0 66 -6 240 -116 l42 -26 -37 49 c-48 65 -107 190 -107 226 0 123 130
165 212 68 18 -22 53 -77 78 -124 l45 -85 0 117 c0 131 11 174 55 216 l30 29
0 404 0 404 -25 20 c-49 38 -60 73 -60 195 l0 112 -27 -57 c-83 -173 -199
-238 -272 -151 -19 22 -26 42 -26 74 0 54 18 96 85 201 30 46 53 84 51 84 -2
0 -21 -14 -42 -31 -22 -17 -75 -49 -119 -71 -65 -32 -88 -39 -122 -35 -115 12
-147 111 -65 198 20 21 78 60 128 86 l91 48 -126 0 c-137 1 -170 10 -210 61
-28 35 -28 93 1 129 34 43 75 55 195 55 l108 0 -60 33 c-100 54 -144 89 -166
135 -19 38 -20 49 -10 83 14 45 44 69 98 76 45 6 99 -16 199 -79 38 -24 75
-48 83 -53 8 -4 -2 14 -23 41 -21 27 -54 82 -73 123 -30 61 -35 81 -30 119 10
87 97 130 172 84 34 -21 64 -63 121 -169 l39 -72 0 117 c0 133 12 180 56 216
l29 25 0 410 c0 397 -1 410 -20 416 -10 3 -29 23 -42 43 -20 33 -23 50 -23
149 0 62 0 113 -1 113 -1 0 -16 -29 -34 -65 -74 -146 -158 -202 -239 -161 -33
18 -51 54 -51 107 0 44 21 90 84 189 23 36 46 71 51 79 4 8 -16 -4 -46 -27
-130 -98 -248 -127 -307 -77 -39 33 -47 71 -26 124 19 48 62 85 159 134 103
53 103 53 2 49 -130 -6 -198 10 -236 54 -42 47 -43 100 -3 142 35 37 86 52
181 52 l75 0 -60 36 c-32 19 -74 49 -91 66 -63 61 -68 145 -12 192 56 47 137
36 239 -34 14 -9 43 -27 65 -40 l39 -24 -26 34 c-46 60 -98 181 -98 226 0 49
34 104 71 118 73 25 140 -24 208 -152 22 -42 44 -82 48 -89 5 -6 8 44 8 110 1
133 15 183 61 214 l24 15 0 400 0 400 -25 20 c-49 38 -60 74 -60 194 l0 111
-27 -56 c-84 -173 -200 -236 -272 -150 -19 23 -26 42 -26 75 0 57 14 89 84
198 l57 89 -49 -37 c-27 -19 -84 -52 -126 -72 -62 -29 -84 -36 -117 -31 -112
15 -142 113 -61 198 20 21 78 60 128 86 l91 48 -126 0 c-137 1 -170 10 -210
61 -28 35 -28 93 1 129 34 43 75 55 195 55 l108 0 -60 33 c-99 53 -144 89
-166 135 -45 92 27 178 134 158 30 -6 118 -54 222 -122 29 -19 29 -18 -9 31
-20 28 -54 83 -73 124 -30 61 -35 81 -30 119 10 87 97 130 172 84 34 -21 64
-63 121 -168 l39 -72 1 122 c0 131 13 178 60 215 l24 19 0 409 0 410 -23 12
c-48 26 -62 66 -62 188 0 62 0 113 -1 113 -1 0 -16 -29 -34 -65 -74 -146 -158
-202 -239 -161 -33 18 -51 54 -51 107 0 44 21 90 84 189 23 36 46 71 51 79 4
8 -16 -4 -46 -27 -130 -98 -248 -127 -307 -77 -39 33 -47 71 -26 124 19 48 62
85 159 134 39 20 75 40 81 44 7 4 -48 8 -121 8 -148 0 -168 7 -210 73 l-20 31
-400 1 -400 0 -17 -29 c-9 -16 -28 -37 -42 -46 -38 -25 -162 -40 -246 -28 -38
5 -70 8 -70 7 0 -2 45 -26 99 -54 110 -57 166 -108 176 -163 13 -68 -45 -127
-123 -127 -35 0 -174 67 -226 109 -21 17 -40 31 -42 31 -2 0 21 -38 51 -85 73
-112 89 -154 82 -213 -4 -34 -12 -53 -31 -69 -40 -34 -68 -37 -119 -15 -51 23
-100 81 -145 174 l-28 58 0 -113 c0 -87 -3 -119 -17 -144 -52 -98 -161 -98
-215 0 -13 25 -17 57 -17 138 l0 107 -30 -57 c-68 -126 -125 -181 -190 -181
-62 0 -105 49 -105 119 0 45 18 87 84 190 23 36 46 72 51 80 4 8 -16 -4 -46
-27 -130 -98 -248 -127 -307 -77 -39 33 -47 71 -26 124 20 50 62 84 177 143
l87 45 -97 -5 c-135 -6 -203 9 -242 54 -17 19 -31 39 -31 44 0 6 -151 10 -405
10 -328 0 -405 -3 -405 -13 0 -16 -45 -59 -80 -78 -17 -8 -66 -13 -147 -13
-137 0 -137 2 -3 -66 139 -70 182 -180 97 -244 -60 -44 -182 -13 -299 77 -27
20 -48 35 -48 32 0 -3 20 -36 44 -74 93 -145 111 -213 69 -269 -32 -44 -68
-57 -117 -42 -52 16 -100 67 -152 164 l-41 77 5 -82 c9 -164 -36 -249 -134
-249 -92 0 -131 47 -141 169 l-6 80 -46 -66 c-27 -38 -61 -74 -81 -85 -66 -35
-154 -17 -178 37 -28 61 -6 142 69 252 33 47 37 64 11 40 -9 -8 -51 -32 -92
-51 -96 -46 -172 -50 -218 -11 -39 33 -47 71 -26 124 19 49 62 85 164 137 l75
39 -128 6 c-140 6 -162 14 -202 77 l-20 31 -400 1 -400 0 -17 -29 c-9 -16 -28
-37 -42 -46 -38 -25 -162 -40 -246 -28 -38 5 -70 8 -70 6 0 -1 41 -23 90 -48
112 -56 166 -103 181 -158 20 -75 -34 -137 -118 -137 -36 0 -161 59 -226 107
l-49 36 56 -88 c74 -114 90 -154 83 -213 -4 -34 -12 -53 -31 -69 -40 -34 -68
-37 -119 -15 -51 23 -100 81 -145 174 l-28 58 0 -113 c0 -87 -3 -119 -17 -144
-42 -78 -120 -96 -181 -42 -44 38 -61 110 -52 219 l6 75 -41 -74 c-22 -41 -52
-88 -66 -105 -89 -108 -223 -75 -223 53 0 45 18 87 84 190 23 36 46 72 51 80
4 8 -16 -4 -46 -27 -130 -98 -248 -127 -307 -77 -39 33 -47 71 -26 124 20 50
62 84 177 143 l87 45 -97 -5 c-135 -6 -203 9 -242 54 -17 19 -31 39 -31 44 0
6 -151 10 -405 10 -328 0 -405 -3 -405 -13z m430 -387 c25 -14 76 -99 99 -167
37 -110 54 -261 43 -383 l-7 -75 150 2 c180 2 257 -12 372 -67 92 -45 129 -81
112 -112 -17 -31 -108 -84 -199 -114 -80 -26 -96 -28 -262 -28 -173 -1 -178
-2 -171 -21 13 -42 5 -270 -12 -345 -31 -136 -90 -251 -136 -265 -45 -15 -116
94 -155 235 -14 50 -18 103 -19 230 l0 165 -165 0 c-140 0 -177 4 -243 23
-121 35 -227 98 -227 135 0 19 59 72 107 96 100 50 187 66 363 66 l166 0 -4
120 c-7 202 37 383 114 474 38 44 45 47 74 31z m2426 -17 c34 -36 78 -130 101
-213 13 -49 17 -105 18 -230 l0 -165 165 0 c141 0 176 -4 243 -23 99 -28 163
-61 205 -105 l33 -34 -33 -33 c-39 -39 -126 -82 -218 -107 -50 -14 -103 -18
-230 -18 l-165 0 0 -170 c0 -150 -3 -179 -23 -245 -31 -96 -63 -160 -102 -199
-29 -29 -33 -30 -53 -16 -30 21 -73 88 -98 153 -37 100 -52 205 -47 347 l3
130 -132 -3 c-190 -5 -338 27 -446 99 -60 40 -67 62 -30 101 37 39 103 72 200
100 67 20 102 23 243 23 l165 0 0 165 c0 178 11 241 61 350 26 57 79 120 101
120 7 0 24 -12 39 -27z m2414 17 c25 -14 76 -99 99 -167 37 -110 54 -261 43
-383 l-7 -75 150 2 c180 2 257 -12 372 -67 92 -45 129 -81 112 -112 -17 -31
-108 -84 -199 -114 -80 -26 -96 -28 -262 -28 -173 -1 -178 -2 -171 -21 13 -42
5 -270 -12 -345 -31 -136 -90 -251 -136 -265 -45 -15 -116 94 -155 235 -14 50
-18 103 -19 230 l0 165 -165 0 c-140 0 -177 4 -243 23 -121 35 -227 98 -227
135 0 19 59 72 107 96 100 50 187 66 363 66 l166 0 -4 120 c-7 202 37 383 114
474 38 44 45 47 74 31z m2426 -17 c34 -36 78 -130 101 -213 13 -49 17 -105 18
-230 l0 -165 165 0 c141 0 176 -4 243 -23 99 -28 163 -61 205 -105 l33 -34
-33 -33 c-39 -39 -126 -82 -218 -107 -50 -14 -103 -18 -230 -18 l-165 0 0
-165 c0 -107 -5 -184 -14 -220 -20 -81 -73 -191 -110 -228 -30 -30 -34 -31
-54 -17 -30 21 -73 88 -98 153 -37 100 -52 205 -47 347 l3 130 -132 -3 c-190
-5 -338 27 -446 99 -60 40 -67 62 -30 101 37 39 103 72 200 100 67 20 102 23
243 23 l165 0 0 165 c0 142 3 176 23 243 27 94 51 144 93 192 37 42 50 43 85
8z m-6022 -1194 c52 -41 61 -72 61 -214 l0 -130 43 85 c25 47 60 104 78 127
81 99 200 73 212 -46 4 -41 -1 -60 -31 -123 -19 -40 -52 -95 -72 -121 l-37
-48 70 45 c110 70 167 96 213 96 70 0 119 -43 119 -106 0 -62 -66 -129 -183
-188 l-72 -36 95 5 c123 5 167 -5 208 -49 63 -69 30 -160 -69 -186 -26 -7 -89
-11 -155 -8 l-111 3 94 -50 c117 -63 157 -98 173 -151 15 -49 2 -85 -42 -117
-56 -42 -176 -10 -291 78 -26 20 -47 34 -47 31 0 -3 28 -50 61 -105 70 -114
84 -173 55 -229 -20 -38 -44 -52 -91 -52 -71 0 -117 43 -185 172 l-36 67 0
-107 c0 -123 -15 -169 -69 -202 -41 -25 -71 -25 -112 0 -54 33 -67 70 -68 196
l0 110 -32 -66 c-80 -164 -195 -224 -268 -138 -44 52 -32 130 36 233 14 22 39
60 54 84 l27 45 -49 -37 c-65 -48 -190 -107 -226 -107 -49 0 -96 26 -114 64
-36 77 17 148 173 229 l83 43 -117 -1 c-133 0 -179 12 -217 56 -49 59 -24 144
51 175 21 9 73 14 141 14 l108 0 -60 33 c-99 53 -144 89 -166 135 -45 92 27
178 134 158 29 -5 121 -56 219 -120 22 -15 18 -5 -27 64 -80 122 -100 192 -70
250 20 39 53 60 95 60 70 0 121 -53 199 -207 17 -35 33 -63 35 -63 1 0 -1 24
-6 53 -10 64 -1 189 19 240 30 74 110 101 167 56z m2444 -10 c43 -42 55 -93
50 -225 l-3 -112 53 98 c62 117 95 154 149 170 77 23 139 -31 137 -120 -1 -40
-61 -166 -106 -222 -16 -21 -27 -38 -24 -38 3 0 37 20 75 44 104 67 146 86
191 86 47 0 95 -22 110 -49 14 -28 12 -87 -4 -119 -16 -31 -84 -82 -169 -128
l-57 -30 113 0 c107 1 116 0 155 -26 56 -37 73 -91 46 -140 -11 -19 -39 -43
-64 -56 -41 -21 -56 -23 -168 -20 -67 2 -122 2 -122 1 0 -2 40 -23 89 -48 150
-75 204 -146 170 -227 -19 -46 -84 -73 -141 -57 -56 15 -131 53 -192 97 -56
41 -55 37 19 -77 59 -91 78 -152 65 -201 -16 -58 -53 -83 -115 -77 -44 4 -54
10 -95 54 -25 27 -60 79 -79 116 -19 37 -34 67 -35 67 -1 0 -1 -51 -1 -113 0
-127 -12 -163 -68 -198 -24 -15 -44 -19 -80 -16 -81 7 -116 57 -125 179 l-5
79 -27 -48 c-77 -132 -196 -173 -265 -91 -24 28 -27 39 -23 89 4 56 16 82 97
208 15 24 15 23 -29 -4 -25 -15 -68 -39 -98 -52 -170 -75 -303 53 -184 178 20
21 78 60 128 86 l91 48 -126 0 c-99 1 -133 4 -158 18 -74 40 -96 118 -48 176
36 42 84 55 200 53 l100 -1 -60 32 c-100 54 -144 89 -167 136 -20 41 -20 47
-7 85 27 79 125 99 227 47 31 -17 71 -39 87 -50 45 -31 48 -26 14 23 -84 125
-99 219 -43 277 24 25 35 29 84 29 82 0 113 -25 175 -142 20 -38 37 -68 38
-68 1 0 2 42 3 93 1 158 38 217 138 217 45 0 57 -4 84 -31z m2396 10 c52 -41
61 -72 61 -214 l0 -130 46 89 c58 111 92 154 137 173 76 32 141 -10 150 -96 4
-41 -1 -60 -31 -123 -19 -40 -52 -95 -72 -121 l-37 -48 70 45 c39 25 93 56
121 70 108 55 211 16 211 -80 0 -62 -66 -129 -183 -188 l-72 -36 95 5 c123 5
167 -5 208 -49 63 -69 30 -160 -69 -186 -26 -7 -89 -11 -155 -8 l-111 3 94
-50 c118 -64 157 -98 174 -154 15 -50 4 -79 -43 -114 -56 -42 -176 -10 -291
78 -26 20 -47 34 -47 31 0 -3 28 -50 61 -105 70 -114 84 -173 55 -229 -20 -38
-44 -52 -91 -52 -71 0 -117 43 -185 172 l-36 67 0 -107 c0 -123 -15 -169 -69
-202 -41 -25 -71 -25 -112 0 -54 33 -67 70 -68 196 l0 110 -32 -66 c-80 -164
-195 -224 -268 -138 -43 51 -31 137 35 233 15 22 40 60 55 84 l27 45 -48 -36
c-70 -51 -167 -99 -212 -105 -55 -7 -108 18 -129 61 -36 77 17 148 173 229
l83 43 -117 -1 c-133 0 -179 12 -217 56 -49 59 -24 144 51 175 21 9 73 14 141
14 l108 0 -60 33 c-99 53 -144 89 -166 135 -45 92 27 178 134 158 30 -6 121
-56 220 -121 27 -17 25 -13 -16 46 -86 126 -113 210 -83 267 43 84 146 83 210
-1 14 -18 48 -75 76 -127 28 -52 47 -81 43 -65 -4 17 -7 74 -7 128 2 110 20
175 61 207 34 27 92 26 127 -1z m-6044 -1241 c35 -48 66 -126 86 -222 16 -72
23 -303 10 -341 -6 -20 -4 -21 71 -13 205 21 460 -40 546 -130 35 -36 28 -53
-43 -101 -103 -70 -281 -108 -465 -98 l-110 6 6 -67 c14 -158 -11 -330 -67
-451 -25 -56 -78 -121 -99 -121 -21 0 -64 55 -94 120 -55 117 -66 178 -66 355
l0 160 -160 1 c-129 1 -175 5 -237 22 -130 35 -238 101 -238 144 0 43 158 124
289 148 79 14 221 20 291 11 l55 -7 -3 131 c-6 208 43 394 128 485 25 27 32
30 50 20 11 -6 34 -29 50 -52z m2411 -6 c71 -113 102 -255 97 -446 l-3 -132
70 8 c123 14 301 -8 416 -52 68 -26 149 -85 149 -108 0 -43 -104 -106 -237
-144 -66 -19 -103 -23 -238 -23 l-160 0 3 -132 c4 -148 -11 -252 -54 -358 -26
-65 -86 -145 -109 -145 -17 0 -70 61 -95 110 -48 94 -64 185 -65 360 l0 165
-160 1 c-130 0 -174 5 -237 22 -129 35 -238 101 -238 143 0 43 141 118 272
145 82 17 232 24 308 15 l55 -6 0 165 c0 129 4 180 19 235 25 92 62 169 102
212 28 30 35 33 54 23 12 -6 35 -32 51 -58z m2429 6 c35 -48 66 -126 86 -222
16 -72 23 -303 10 -341 -6 -20 -4 -21 71 -13 205 21 460 -40 546 -130 35 -36
28 -53 -43 -101 -103 -70 -281 -108 -465 -98 l-110 6 6 -67 c14 -158 -11 -330
-67 -451 -25 -56 -78 -121 -99 -121 -21 0 -64 55 -94 120 -55 117 -66 178 -66
355 l0 160 -160 1 c-129 1 -175 5 -237 22 -130 35 -238 101 -238 144 0 43 158
124 289 148 79 14 221 20 291 11 l55 -7 -3 131 c-6 208 43 394 128 485 25 27
32 30 50 20 11 -6 34 -29 50 -52z m2411 -6 c71 -113 102 -255 97 -448 l-3
-133 25 7 c45 12 263 5 336 -11 141 -32 274 -102 274 -146 0 -43 -101 -104
-235 -143 -68 -19 -104 -23 -240 -23 l-160 0 3 -132 c4 -148 -11 -252 -54
-358 -26 -65 -86 -145 -109 -145 -17 0 -70 61 -95 110 -48 95 -65 185 -65 360
l0 165 -160 1 c-130 0 -174 5 -237 22 -129 35 -238 101 -238 143 0 43 141 118
272 145 82 17 232 24 308 15 l56 -7 -4 124 c-7 191 29 356 98 456 54 79 80 79
131 -2z m-6054 -1142 c57 -34 68 -69 68 -212 0 -69 4 -121 8 -115 4 7 24 43
43 81 65 125 109 166 179 166 70 0 105 -43 105 -127 0 -50 -45 -153 -97 -221
-25 -33 -24 -33 56 17 45 28 99 58 121 67 92 37 180 -11 180 -99 0 -72 -43
-122 -161 -187 l-54 -30 96 1 c106 1 142 -11 178 -57 43 -55 17 -140 -53 -169
-45 -19 -161 -28 -233 -17 -35 5 -63 7 -63 5 0 -1 41 -23 90 -48 112 -56 166
-103 181 -158 20 -75 -34 -137 -119 -137 -35 0 -174 67 -226 109 -21 17 -40
31 -42 31 -2 0 21 -38 51 -85 73 -112 89 -154 82 -213 -4 -34 -12 -53 -31 -69
-40 -34 -68 -37 -119 -15 -51 23 -100 81 -145 174 l-28 58 0 -113 c0 -87 -3
-119 -17 -144 -42 -78 -120 -96 -181 -42 -44 38 -61 110 -52 219 l6 75 -33
-60 c-70 -131 -127 -185 -192 -185 -62 0 -105 49 -105 119 0 45 18 87 84 190
23 36 46 72 51 80 4 8 -16 -4 -46 -27 -130 -98 -248 -127 -307 -77 -39 33 -47
71 -26 124 20 50 62 84 177 143 l87 45 -97 -5 c-135 -6 -203 9 -242 54 -43 48
-43 101 -1 143 38 38 84 51 180 51 l75 0 -60 36 c-112 67 -154 127 -141 199 7
38 55 84 89 87 62 4 108 -10 172 -52 22 -14 58 -37 80 -50 l39 -24 -26 34
c-15 20 -43 70 -64 113 -31 65 -36 85 -31 123 9 82 58 123 131 110 50 -10 94
-57 152 -164 l49 -90 0 117 c0 100 3 122 22 161 37 76 98 98 160 60z m2453
-15 c39 -37 50 -74 53 -178 1 -48 3 -87 4 -87 2 0 15 24 29 53 56 110 102 148
180 149 54 1 91 -22 111 -70 20 -48 11 -97 -35 -185 -20 -40 -38 -75 -40 -79
-2 -4 28 11 67 33 38 22 88 43 110 46 116 16 188 -51 160 -150 -12 -43 -58
-89 -138 -137 l-59 -36 86 0 c94 -1 129 -13 172 -59 34 -36 34 -94 0 -130 -47
-51 -75 -59 -207 -59 -137 0 -137 2 -3 -66 139 -70 182 -180 97 -244 -60 -44
-182 -13 -299 77 -27 20 -48 35 -48 32 0 -3 20 -36 44 -74 99 -154 113 -218
61 -279 -35 -41 -73 -48 -128 -24 -47 21 -85 67 -143 175 l-31 58 5 -82 c9
-164 -36 -249 -134 -249 -92 0 -131 47 -141 169 l-6 80 -46 -66 c-27 -38 -61
-74 -81 -85 -66 -35 -154 -17 -178 37 -28 61 -6 142 69 252 33 47 37 64 12 40
-10 -8 -52 -32 -93 -51 -96 -46 -172 -50 -218 -11 -39 33 -47 71 -26 124 19
48 61 83 164 137 l75 39 -120 6 c-135 7 -161 14 -198 59 -31 36 -35 76 -12
120 24 46 68 63 172 68 l93 4 -58 35 c-109 65 -151 126 -138 198 14 71 109
111 193 81 23 -8 67 -31 99 -51 31 -20 54 -32 52 -28 -2 4 -23 46 -46 92 -50
100 -54 150 -19 202 26 40 74 56 133 44 48 -9 103 -63 143 -142 l28 -56 6 96
c6 109 25 160 71 189 45 28 117 20 156 -17z m2387 15 c57 -34 68 -69 68 -212
0 -71 1 -128 2 -128 2 0 21 37 44 82 70 140 110 178 184 178 47 0 71 -14 90
-50 34 -66 7 -174 -70 -282 l-35 -48 80 50 c44 28 98 57 120 66 92 37 180 -11
180 -99 0 -72 -43 -122 -161 -187 l-54 -30 96 1 c106 1 142 -11 178 -57 43
-55 17 -140 -53 -169 -45 -19 -161 -28 -233 -17 -35 5 -63 7 -63 5 0 -1 41
-23 90 -48 112 -56 166 -103 181 -158 20 -75 -34 -137 -119 -137 -35 0 -174
67 -226 109 -21 17 -40 31 -42 31 -2 0 21 -39 52 -86 72 -113 88 -153 81 -212
-4 -34 -12 -53 -31 -69 -40 -34 -68 -37 -119 -15 -51 23 -100 81 -145 174
l-28 58 0 -113 c0 -87 -3 -119 -17 -144 -42 -78 -120 -96 -181 -42 -44 38 -61
110 -52 219 l6 75 -33 -60 c-70 -131 -127 -185 -192 -185 -62 0 -105 49 -105
119 0 45 18 87 84 190 23 36 46 72 51 80 4 8 -16 -4 -46 -27 -130 -98 -248
-127 -307 -77 -39 33 -47 71 -26 124 20 50 62 84 177 143 l87 45 -97 -5 c-135
-6 -203 9 -242 54 -43 48 -43 101 -1 143 38 38 84 51 180 51 l75 0 -60 36
c-112 67 -154 127 -141 199 7 38 55 84 89 87 62 4 108 -10 172 -52 22 -14 58
-37 80 -50 l39 -24 -26 34 c-41 54 -98 181 -98 218 0 73 46 132 103 132 72 0
113 -39 190 -182 l42 -76 0 116 c0 101 3 123 22 162 37 76 98 98 160 60z
m-6077 -1200 c25 -14 76 -99 99 -167 37 -110 54 -261 43 -383 l-7 -75 150 2
c180 2 257 -12 372 -67 92 -45 129 -81 112 -112 -17 -31 -108 -84 -199 -114
-80 -26 -96 -28 -262 -28 -173 -1 -178 -2 -171 -21 13 -42 5 -270 -12 -345
-31 -136 -90 -251 -136 -265 -45 -15 -116 94 -155 235 -14 50 -18 103 -19 230
l0 165 -165 0 c-140 0 -177 4 -243 23 -121 35 -227 98 -227 135 0 19 59 72
107 96 100 50 187 66 363 66 l166 0 -4 120 c-7 202 37 383 114 474 38 44 45
47 74 31z m2426 -17 c33 -36 78 -130 101 -213 14 -50 18 -103 18 -230 l0 -165
165 0 c141 0 176 -4 243 -23 99 -28 163 -61 205 -105 l33 -34 -33 -33 c-39
-39 -126 -82 -218 -107 -50 -14 -103 -18 -230 -18 l-165 0 0 -170 c0 -150 -3
-179 -23 -245 -31 -96 -63 -160 -102 -199 -29 -29 -33 -30 -53 -16 -30 21 -73
88 -98 153 -37 100 -52 205 -47 347 l3 130 -132 -3 c-190 -5 -338 27 -446 99
-60 40 -67 62 -30 101 37 39 103 72 200 100 67 20 101 23 243 23 l165 0 0 165
c0 142 3 176 23 243 28 97 55 152 95 195 38 39 49 40 83 5z m2414 17 c25 -14
76 -99 99 -167 37 -110 54 -261 43 -383 l-7 -75 150 2 c180 2 257 -12 372 -67
92 -45 129 -81 112 -112 -17 -31 -108 -84 -199 -114 -80 -26 -96 -28 -262 -28
-173 -1 -178 -2 -171 -21 13 -42 5 -270 -12 -345 -31 -136 -90 -251 -136 -265
-45 -15 -116 94 -155 235 -14 50 -18 103 -19 230 l0 165 -165 0 c-140 0 -177
4 -243 23 -121 35 -227 98 -227 135 0 19 59 72 107 96 100 50 187 66 363 66
l166 0 -4 120 c-7 202 37 383 114 474 38 44 45 47 74 31z m2426 -17 c34 -36
78 -130 101 -213 13 -49 17 -105 18 -230 l0 -165 165 0 c141 0 176 -4 243 -23
99 -28 163 -61 205 -105 l33 -34 -33 -33 c-39 -39 -126 -82 -218 -107 -50 -14
-103 -18 -230 -18 l-165 0 0 -170 c0 -150 -3 -179 -23 -245 -31 -96 -63 -160
-102 -199 -29 -29 -33 -30 -53 -16 -30 21 -73 88 -98 153 -37 100 -52 205 -47
347 l3 130 -132 -3 c-190 -5 -338 27 -446 99 -60 40 -67 62 -30 101 37 39 103
72 200 100 67 20 102 23 243 23 l165 0 0 165 c0 178 11 241 61 350 26 57 79
120 101 120 7 0 24 -12 39 -27z m-6022 -1194 c52 -41 61 -72 61 -214 l0 -130
46 89 c58 111 92 154 137 173 76 32 141 -10 150 -96 4 -41 -1 -60 -31 -123
-19 -40 -52 -95 -72 -121 l-37 -48 70 45 c39 25 93 56 121 70 108 55 211 16
211 -80 0 -62 -66 -129 -183 -188 l-72 -36 95 5 c123 5 167 -5 208 -49 63 -69
30 -160 -69 -186 -26 -7 -89 -11 -155 -8 l-111 3 94 -50 c118 -64 157 -98 174
-154 15 -50 4 -79 -43 -114 -56 -42 -176 -10 -291 78 -26 20 -47 34 -47 31 0
-3 28 -50 61 -105 70 -114 84 -173 55 -229 -20 -38 -44 -52 -91 -52 -71 0
-117 43 -185 172 l-36 67 0 -107 c0 -123 -15 -169 -69 -202 -41 -25 -71 -25
-112 0 -54 33 -67 70 -68 195 l0 110 -32 -66 c-82 -165 -196 -223 -268 -137
-44 52 -32 130 36 233 14 22 39 60 54 84 l27 45 -49 -37 c-65 -48 -190 -107
-226 -107 -49 0 -96 26 -114 64 -36 77 17 148 173 229 l83 43 -117 -1 c-133 0
-179 12 -217 56 -49 59 -24 144 51 175 21 9 73 14 141 14 l108 0 -60 33 c-99
53 -144 89 -166 135 -45 92 27 178 134 158 30 -6 121 -56 220 -121 27 -17 25
-13 -16 46 -86 126 -113 210 -83 267 43 84 146 83 210 -1 14 -18 48 -75 76
-127 28 -52 47 -81 43 -65 -4 17 -7 74 -7 128 2 110 20 175 61 207 34 27 92
26 127 -1z m2444 -10 c43 -42 55 -93 50 -225 l-3 -112 53 98 c62 117 95 154
149 170 77 23 139 -31 137 -120 -1 -40 -61 -166 -106 -222 -16 -21 -27 -38
-24 -38 3 0 37 20 75 44 104 67 146 86 191 86 47 0 95 -22 110 -49 14 -28 12
-87 -4 -119 -16 -31 -84 -82 -169 -128 l-57 -30 113 0 c107 1 116 0 155 -26
56 -37 73 -91 46 -140 -11 -19 -39 -43 -64 -56 -41 -21 -56 -23 -168 -20 -67
2 -122 2 -122 1 0 -2 40 -23 89 -48 150 -75 204 -146 170 -227 -19 -46 -84
-73 -141 -57 -56 15 -131 53 -192 97 -56 41 -55 37 19 -77 59 -91 78 -152 65
-201 -16 -58 -53 -83 -115 -77 -44 4 -54 10 -95 54 -25 27 -60 79 -79 116 -19
37 -34 67 -35 67 -1 0 -1 -51 -1 -113 0 -127 -12 -163 -68 -198 -24 -15 -44
-19 -80 -16 -81 7 -116 57 -125 179 l-5 79 -27 -48 c-77 -132 -196 -173 -265
-91 -24 28 -27 39 -23 89 4 56 16 82 97 208 15 24 15 23 -29 -4 -71 -45 -148
-75 -191 -75 -96 0 -154 61 -131 137 16 53 61 94 168 150 l91 48 -126 0 c-99
1 -133 4 -158 18 -74 40 -96 118 -48 176 36 42 84 55 200 53 l100 -1 -60 32
c-100 54 -144 89 -167 136 -20 41 -20 47 -7 85 27 79 125 99 227 47 31 -17 71
-39 87 -50 45 -31 48 -26 14 23 -86 128 -100 225 -40 278 26 23 41 28 84 28
77 0 110 -26 169 -135 l33 -60 7 80 c11 124 16 142 52 180 30 32 38 35 88 35
47 0 58 -4 86 -31z m2396 10 c52 -41 61 -72 61 -214 l0 -130 43 85 c25 47 60
104 78 127 81 99 200 73 212 -46 4 -41 -1 -60 -31 -123 -19 -40 -52 -95 -72
-121 l-37 -48 70 45 c110 70 167 96 213 96 70 0 119 -43 119 -106 0 -62 -66
-129 -183 -188 l-72 -36 95 5 c123 5 167 -5 208 -49 63 -69 30 -160 -69 -186
-26 -7 -89 -11 -155 -8 l-111 3 94 -50 c117 -63 157 -98 173 -151 15 -49 2
-85 -42 -117 -56 -42 -176 -10 -291 78 -26 20 -47 34 -47 31 0 -3 28 -50 61
-105 70 -114 84 -173 55 -229 -20 -38 -44 -52 -91 -52 -71 0 -117 43 -185 172
l-36 67 0 -107 c0 -123 -15 -169 -69 -202 -41 -25 -71 -25 -112 0 -54 33 -67
70 -68 196 l0 110 -32 -66 c-80 -164 -195 -224 -268 -138 -44 52 -32 130 36
233 14 22 39 60 54 84 l27 45 -49 -37 c-65 -48 -190 -107 -226 -107 -49 0 -96
26 -114 64 -36 77 17 148 173 229 l83 43 -117 -1 c-133 0 -179 12 -217 56 -49
59 -24 144 51 175 21 9 73 14 141 14 l108 0 -60 33 c-99 53 -144 89 -166 135
-45 92 27 178 134 158 29 -5 121 -56 219 -120 22 -15 18 -5 -27 64 -80 122
-100 192 -70 250 20 39 53 60 95 60 70 0 121 -53 199 -207 17 -35 33 -63 35
-63 1 0 -1 24 -6 53 -10 64 -1 189 19 240 30 74 110 101 167 56z m-6044 -1241
c35 -48 66 -126 86 -222 16 -72 23 -303 10 -341 -6 -20 -4 -21 71 -13 205 21
460 -40 546 -130 35 -36 28 -53 -43 -101 -103 -70 -281 -108 -465 -98 l-110 6
6 -67 c14 -158 -11 -330 -67 -451 -25 -56 -78 -121 -99 -121 -21 0 -64 55 -94
120 -55 117 -66 178 -66 355 l0 160 -160 1 c-129 1 -175 5 -237 22 -130 35
-238 101 -238 144 0 43 158 124 289 148 79 14 221 20 291 11 l55 -7 -3 131
c-6 208 43 394 128 485 25 27 32 30 50 20 11 -6 34 -29 50 -52z m2411 -6 c71
-113 102 -255 97 -446 l-3 -132 70 8 c123 14 299 -8 417 -52 68 -25 148 -84
148 -109 0 -43 -101 -104 -235 -143 -68 -19 -104 -23 -240 -23 l-160 0 3 -132
c6 -194 -31 -353 -101 -445 -49 -63 -61 -67 -95 -34 -41 39 -77 108 -104 201
-19 69 -23 103 -23 245 l0 165 -160 1 c-130 0 -174 5 -237 22 -129 35 -238
101 -238 143 0 43 141 118 272 145 82 17 232 24 308 15 l56 -7 -4 124 c-7 191
29 356 98 456 54 79 80 79 131 -2z m2429 6 c35 -48 66 -126 86 -222 16 -72 23
-303 10 -341 -6 -20 -4 -21 71 -13 205 21 460 -40 546 -130 35 -36 28 -53 -43
-101 -103 -70 -281 -108 -465 -98 l-110 6 6 -67 c14 -158 -11 -330 -67 -451
-25 -56 -78 -121 -99 -121 -21 0 -64 55 -94 120 -55 117 -66 178 -66 355 l0
160 -160 1 c-129 1 -175 5 -237 22 -130 35 -238 101 -238 144 0 43 158 124
289 148 79 14 221 20 291 11 l55 -7 -3 131 c-6 208 43 394 128 485 25 27 32
30 50 20 11 -6 34 -29 50 -52z m2411 -6 c71 -113 102 -255 97 -446 l-3 -132
70 8 c123 14 301 -8 416 -52 68 -26 149 -85 149 -108 0 -43 -104 -106 -237
-144 -66 -19 -103 -23 -238 -23 l-160 0 3 -132 c4 -148 -11 -252 -54 -358 -26
-65 -86 -145 -109 -145 -17 0 -70 61 -95 110 -48 94 -64 185 -65 360 l0 165
-160 1 c-130 0 -174 5 -237 22 -129 35 -238 101 -238 143 0 43 141 118 272
145 82 17 232 24 308 15 l55 -6 0 165 c0 129 4 180 19 235 25 92 62 169 102
212 28 30 35 33 54 23 12 -6 35 -32 51 -58z"/>
</g>
</svg>
