<?xml version="1.0" standalone="no"?>
<!DOCTYPE svg PUBLIC "-//W3C//DTD SVG 20010904//EN"
 "http://www.w3.org/TR/2001/REC-SVG-20010904/DTD/svg10.dtd">
<svg version="1.0" xmlns="http://www.w3.org/2000/svg"
 width="960.000000pt" height="960.000000pt" viewBox="0 0 960.000000 960.000000"
 preserveAspectRatio="xMidYMid meet">

<g transform="translate(0.000000,960.000000) scale(0.100000,-0.100000)"
fill="#000000" stroke="none">
<path d="M335 9570 c-38 -16 -85 -29 -102 -29 l-33 -1 0 -75 0 -75 -80 0 -80
0 0 -40 c0 -21 -9 -62 -20 -90 -19 -49 -20 -74 -20 -973 l0 -923 35 -12 c66
-24 113 -113 100 -186 -9 -45 -57 -102 -100 -117 l-35 -13 0 -917 c0 -838 1
-920 17 -955 9 -22 19 -61 22 -89 l6 -50 78 -3 77 -3 0 -74 0 -75 35 0 c20 0
72 -14 117 -31 l81 -31 -88 -34 c-48 -19 -100 -34 -116 -34 l-29 0 0 -75 0
-75 -80 0 -80 0 0 -40 c0 -21 -9 -62 -20 -90 -19 -49 -20 -74 -20 -973 l0
-923 35 -12 c66 -24 113 -113 100 -186 -9 -45 -57 -102 -100 -117 l-35 -13 0
-933 c0 -909 1 -934 20 -983 11 -28 20 -64 20 -80 l0 -30 75 0 75 0 0 -75 c0
-41 3 -75 8 -76 4 0 22 -2 40 -4 19 -2 63 -15 98 -29 l64 -26 910 0 910 0 5
28 c10 46 37 92 68 114 36 26 116 35 157 18 44 -18 89 -74 96 -120 l7 -40 902
0 902 0 73 30 c40 16 88 30 106 30 l34 0 0 75 0 75 75 0 75 0 0 32 c0 30 44
163 60 181 9 11 70 -148 70 -184 l0 -29 75 0 75 0 0 -75 c0 -41 3 -75 8 -76 4
0 22 -2 40 -4 19 -2 63 -15 98 -29 l64 -26 910 0 910 0 5 28 c10 46 37 92 68
114 36 26 116 35 157 18 44 -18 89 -74 96 -120 l7 -40 906 0 906 1 75 29 c41
17 90 30 108 30 l32 0 0 75 0 74 78 3 77 3 1 36 c0 20 13 66 27 103 l27 66 0
909 0 909 -37 7 c-79 15 -135 112 -112 197 14 54 64 104 112 113 l37 7 0 907
-1 906 -29 75 c-17 41 -30 90 -30 108 l0 32 -75 0 -75 0 0 75 0 75 -33 0 c-18
0 -70 15 -116 33 l-83 34 78 32 c44 17 96 31 117 31 l37 0 0 75 0 75 75 0 75
0 0 35 c0 19 14 68 30 110 l30 76 0 898 0 899 -37 7 c-79 15 -135 112 -112
197 14 54 64 104 112 113 l37 7 0 907 -1 906 -29 75 c-17 41 -30 90 -30 108
l0 32 -75 0 -75 0 0 75 0 75 -34 0 c-18 0 -66 14 -106 30 l-73 30 -908 0 -909
0 0 -29 c0 -36 -36 -89 -80 -119 -29 -20 -45 -23 -92 -20 -87 6 -132 48 -152
141 l-6 27 -905 0 -904 0 -76 -30 c-42 -16 -89 -30 -105 -30 l-30 0 0 -75 0
-75 -80 0 -80 0 0 -40 c0 -21 -9 -63 -21 -92 -12 -29 -25 -64 -31 -78 -9 -23
-12 -18 -44 63 -19 49 -34 102 -34 118 l0 29 -75 0 -75 0 0 75 0 75 -32 0
c-18 0 -67 13 -108 30 l-75 29 -902 1 -903 0 0 -29 c0 -36 -36 -89 -80 -119
-29 -20 -45 -23 -92 -20 -87 6 -132 48 -152 141 l-6 27 -908 -1 -907 0 -70
-29z m1776 -71 c72 -34 134 -96 168 -168 l26 -56 0 -555 0 -555 -27 -97 c-111
-397 -417 -687 -813 -769 -81 -17 -141 -19 -612 -19 -504 0 -524 1 -578 21
-77 29 -155 102 -189 178 l-27 61 3 557 c4 537 4 561 25 635 112 398 414 691
795 772 112 24 101 23 653 22 l520 -1 56 -26z m1704 21 c388 -56 723 -336 851
-712 50 -149 55 -222 52 -768 l-3 -505 -33 -67 c-36 -73 -87 -124 -161 -160
-46 -23 -49 -23 -578 -26 -500 -2 -538 -1 -631 18 -278 56 -516 217 -672 453
-100 152 -153 305 -170 497 -13 139 -12 929 1 999 24 127 114 230 232 267 52
16 1003 19 1112 4z m3106 -21 c72 -34 134 -96 168 -168 l26 -56 0 -555 0 -555
-27 -98 c-108 -393 -418 -686 -813 -768 -81 -17 -141 -19 -612 -19 -504 0
-524 1 -578 21 -77 29 -155 102 -189 178 l-27 61 3 557 c4 537 4 561 25 635
112 398 414 691 795 772 112 24 101 23 653 22 l520 -1 56 -26z m1702 20 c422
-62 760 -366 874 -784 l27 -100 1 -555 0 -555 -34 -63 c-38 -70 -90 -120 -160
-154 -46 -23 -49 -23 -578 -26 -500 -2 -538 -1 -631 18 -456 93 -795 467 -841
930 -13 123 -12 954 0 1019 24 127 114 230 232 267 54 16 1000 20 1110 3z
m-6203 -1949 c16 -40 30 -90 30 -111 l0 -38 78 -3 77 -3 5 -75 5 -75 31 -1
c32 -1 184 -54 184 -64 0 -9 -169 -70 -195 -70 -24 0 -25 -2 -25 -75 l0 -75
-80 0 -80 0 0 -37 c0 -21 -14 -73 -31 -116 l-32 -79 -33 87 c-19 48 -34 100
-34 116 l0 29 -75 0 -75 0 0 75 c0 73 -1 75 -24 75 -29 0 -196 59 -196 69 0
12 153 65 187 65 l33 0 0 78 0 78 75 0 75 0 0 28 c0 23 61 204 67 198 2 -1 16
-35 33 -76z m4810 0 c16 -40 30 -90 30 -111 l0 -38 78 -3 77 -3 5 -75 5 -75
31 -1 c32 -1 184 -54 184 -64 0 -9 -169 -70 -195 -70 -24 0 -25 -2 -25 -75 l0
-75 -80 0 -80 0 0 -39 c0 -21 -13 -72 -30 -112 -16 -41 -30 -76 -30 -79 -2
-19 -70 178 -70 201 l0 29 -75 0 -75 0 0 75 c0 73 -1 75 -24 75 -29 0 -196 59
-196 69 0 12 153 65 187 65 l33 0 0 78 0 78 75 0 c74 0 75 0 75 26 0 24 61
206 67 200 2 -1 16 -35 33 -76z m-2354 -235 c33 -21 61 -69 69 -117 5 -30 1
-49 -17 -85 -54 -109 -174 -129 -259 -44 -137 136 45 352 207 246z m-3486
-226 c356 -51 651 -260 808 -574 50 -100 87 -216 102 -320 7 -54 10 -245 8
-585 l-3 -505 -33 -67 c-37 -76 -82 -120 -162 -157 l-55 -26 -555 0 -555 1
-96 26 c-234 64 -439 201 -581 388 -65 84 -151 262 -180 370 -23 84 -23 92
-23 650 l0 565 25 50 c44 89 134 162 227 184 50 12 990 12 1073 0z m3131 -22
c67 -32 142 -109 172 -175 22 -46 22 -58 25 -552 3 -540 0 -602 -45 -745 -105
-335 -363 -594 -698 -698 -143 -45 -205 -48 -750 -45 -503 3 -511 3 -558 25
-70 33 -140 103 -173 176 l-29 62 0 520 c0 465 2 529 18 605 49 228 139 394
296 550 168 167 375 269 606 299 39 5 297 8 575 7 l505 -1 56 -28z m1679 22
c356 -51 651 -260 808 -574 50 -100 87 -216 102 -320 7 -54 10 -245 8 -585
l-3 -505 -33 -67 c-37 -76 -82 -120 -162 -157 l-55 -26 -555 0 -555 1 -96 26
c-234 64 -439 201 -581 388 -65 84 -151 262 -180 370 -23 84 -23 92 -23 650
l0 565 25 50 c44 89 134 162 227 184 50 12 990 12 1073 0z m3131 -22 c67 -32
142 -109 172 -175 22 -46 22 -57 25 -561 3 -550 -1 -612 -49 -753 -119 -350
-384 -596 -756 -701 -76 -21 -91 -22 -638 -22 -558 0 -560 0 -608 22 -70 33
-140 103 -173 176 l-29 62 -3 430 c-5 613 9 744 102 941 61 128 115 205 215
304 168 167 375 269 606 299 39 5 297 8 575 7 l505 -1 56 -28z m-4502 -1910
c17 -43 31 -93 31 -112 l0 -34 78 -3 77 -3 0 -75 0 -75 50 -7 c43 -6 140 -37
168 -55 13 -8 -160 -73 -194 -73 l-29 0 0 -75 0 -75 -80 0 -80 0 0 -40 c0 -21
-9 -63 -21 -92 -12 -29 -25 -64 -31 -78 -9 -23 -12 -18 -44 63 -19 49 -34 102
-34 118 l0 29 -75 0 -75 0 0 75 0 75 -32 0 c-26 0 -182 52 -196 65 -7 7 138
59 178 64 l45 6 5 75 5 75 73 3 c71 3 72 3 72 30 0 35 66 210 75 200 2 -2 17
-38 34 -81z m-2358 -230 c55 -37 79 -81 79 -147 0 -66 -24 -110 -80 -148 -29
-20 -45 -23 -91 -20 -98 7 -152 66 -153 169 -1 100 66 168 165 169 32 0 57 -7
80 -23z m4809 1 c55 -38 74 -71 78 -141 3 -53 0 -67 -20 -97 -40 -59 -84 -82
-149 -78 -98 7 -152 66 -153 169 -1 100 66 168 165 169 32 0 56 -7 79 -22z
m-5169 -249 c72 -34 134 -96 168 -168 l26 -56 0 -555 0 -555 -28 -99 c-110
-395 -417 -685 -812 -767 -81 -17 -141 -19 -612 -19 -504 0 -524 1 -578 21
-77 29 -155 102 -189 178 l-27 61 3 557 c4 537 4 561 25 635 112 398 414 691
795 772 112 24 101 23 653 22 l520 -1 56 -26z m1702 20 c422 -62 760 -366 874
-784 l27 -100 1 -555 0 -555 -34 -63 c-38 -70 -90 -120 -160 -154 -46 -23 -49
-23 -578 -26 -500 -2 -538 -1 -631 18 -456 93 -795 467 -841 930 -13 123 -12
954 0 1019 24 127 114 230 232 267 54 16 1000 20 1110 3z m3108 -20 c72 -34
134 -96 168 -168 l26 -56 0 -555 0 -555 -27 -98 c-108 -393 -418 -686 -813
-768 -81 -17 -141 -19 -612 -19 -504 0 -524 1 -578 21 -77 29 -155 102 -189
178 l-27 61 3 557 c4 537 4 561 25 635 112 398 414 691 795 772 112 24 101 23
653 22 l520 -1 56 -26z m1702 20 c458 -68 816 -420 892 -876 14 -83 16 -175
13 -608 l-3 -510 -34 -63 c-38 -70 -90 -120 -160 -154 -46 -23 -49 -23 -578
-26 -500 -2 -538 -1 -631 18 -456 93 -795 467 -841 930 -13 123 -12 954 0
1019 24 127 114 230 232 267 54 16 1000 20 1110 3z m-6203 -1949 c16 -40 30
-90 30 -111 l0 -38 78 -3 77 -3 5 -75 5 -75 31 -1 c32 -1 184 -54 184 -64 0
-9 -169 -70 -195 -70 -24 0 -25 -2 -25 -75 l0 -75 -80 0 -80 0 0 -39 c0 -21
-13 -72 -30 -112 -16 -41 -30 -76 -30 -79 -2 -19 -70 178 -70 201 l0 29 -75 0
-75 0 0 75 c0 73 -1 75 -24 75 -29 0 -196 59 -196 69 0 12 153 65 187 65 l33
0 0 78 0 78 75 0 c74 0 75 0 75 26 0 24 61 206 67 200 2 -1 16 -35 33 -76z
m4810 0 c16 -40 30 -90 30 -111 l0 -38 78 -3 77 -3 5 -75 5 -75 31 -1 c32 -1
184 -54 184 -64 0 -9 -169 -70 -195 -70 -24 0 -25 -2 -25 -75 l0 -75 -80 0
-80 0 0 -39 c0 -21 -13 -72 -30 -112 -16 -41 -30 -76 -30 -79 -2 -19 -70 178
-70 201 l0 29 -75 0 -75 0 0 75 c0 73 -1 75 -24 75 -29 0 -196 59 -196 69 0
12 153 65 187 65 l33 0 0 78 0 78 75 0 c74 0 75 0 75 26 0 24 61 206 67 200 2
-1 16 -35 33 -76z m-2354 -235 c33 -21 61 -69 69 -117 5 -30 1 -49 -17 -85
-54 -109 -174 -129 -259 -44 -137 136 45 352 207 246z m-3486 -226 c356 -51
651 -260 808 -574 50 -100 87 -216 102 -320 7 -54 10 -245 8 -585 l-3 -505
-33 -67 c-37 -76 -82 -120 -162 -157 l-55 -26 -555 0 -555 1 -96 26 c-234 64
-439 201 -581 388 -65 84 -151 262 -180 370 -23 84 -23 92 -23 650 l0 565 25
50 c44 89 134 162 227 184 50 12 990 12 1073 0z m3131 -22 c67 -32 142 -109
172 -175 22 -46 22 -57 25 -561 3 -550 -1 -612 -49 -753 -119 -350 -384 -596
-756 -701 -76 -21 -91 -22 -638 -22 -558 0 -560 0 -608 22 -70 33 -140 103
-173 176 l-29 62 -2 470 c-1 259 3 509 7 556 18 175 82 354 180 500 56 83 197
223 280 277 136 90 300 151 455 171 39 5 297 8 575 7 l505 -1 56 -28z m1679
22 c356 -51 651 -260 808 -574 50 -100 87 -216 102 -320 7 -54 10 -245 8 -585
l-3 -505 -33 -67 c-37 -76 -82 -120 -162 -157 l-55 -26 -555 0 -555 1 -96 26
c-234 64 -439 201 -581 388 -65 84 -151 262 -180 370 -23 84 -23 92 -23 650
l0 565 25 50 c44 89 134 162 227 184 50 12 990 12 1073 0z m3131 -22 c67 -32
142 -109 172 -175 22 -46 22 -57 25 -561 3 -550 -1 -612 -49 -753 -119 -350
-384 -596 -756 -701 -76 -21 -91 -22 -638 -22 -558 0 -560 0 -608 22 -70 33
-140 103 -173 176 l-29 62 -3 431 c-5 613 9 743 102 940 61 128 115 205 215
304 168 167 375 269 606 299 39 5 297 8 575 7 l505 -1 56 -28z"/>
<path d="M1355 8980 l-69 -70 64 -65 64 -65 -64 -65 -65 -65 73 -72 72 -73 65
65 65 64 65 -64 65 -65 72 73 73 72 -65 65 -64 65 64 65 65 65 -73 72 -72 73
-65 -65 -65 -64 -63 62 c-34 34 -65 62 -68 62 -2 0 -36 -31 -74 -70z"/>
<path d="M602 8237 c-34 -34 -62 -67 -62 -72 0 -5 28 -38 63 -73 l62 -64 -62
-57 c-35 -31 -63 -61 -63 -67 0 -5 31 -40 69 -78 l69 -68 64 65 65 65 67 -67
66 -66 72 72 73 73 -63 63 c-34 34 -62 66 -62 70 0 5 28 35 61 68 l62 61 -71
71 -72 72 -65 -65 -65 -64 -63 62 c-34 34 -67 62 -73 62 -5 0 -38 -28 -72 -63z"/>
<path d="M3015 8970 l-69 -70 64 -65 64 -65 -64 -65 -65 -65 73 -72 72 -73 65
65 65 64 65 -64 65 -65 72 73 73 72 -65 65 -64 65 64 65 65 65 -73 72 -72 73
-65 -65 -65 -64 -63 62 c-34 34 -65 62 -68 62 -2 0 -36 -31 -74 -70z"/>
<path d="M3765 8220 l-69 -70 64 -65 64 -65 -64 -65 -65 -65 73 -72 72 -73 65
65 65 64 65 -64 65 -65 72 73 73 72 -65 65 -64 65 64 65 65 65 -73 72 -72 73
-65 -65 -65 -64 -63 62 c-34 34 -65 62 -68 62 -2 0 -36 -31 -74 -70z"/>
<path d="M6165 8980 l-69 -70 64 -65 64 -65 -64 -65 -65 -65 73 -72 72 -73 65
65 65 64 65 -64 65 -65 72 73 73 72 -65 65 -64 65 64 65 65 65 -73 72 -72 73
-65 -65 -65 -64 -63 62 c-34 34 -65 62 -68 62 -2 0 -36 -31 -74 -70z"/>
<path d="M5412 8237 c-34 -34 -62 -67 -62 -72 0 -5 28 -38 63 -73 l62 -64 -62
-57 c-35 -31 -63 -61 -63 -67 0 -5 31 -40 69 -78 l69 -68 64 65 65 65 67 -67
66 -66 72 72 73 73 -63 63 c-34 34 -62 66 -62 70 0 5 28 35 61 68 l62 61 -71
71 -72 72 -65 -65 -65 -64 -63 62 c-34 34 -67 62 -73 62 -5 0 -38 -28 -72 -63z"/>
<path d="M7825 8970 l-69 -70 64 -65 64 -65 -64 -65 -65 -65 73 -72 72 -73 65
65 65 64 65 -64 65 -65 72 73 73 72 -65 65 -64 65 64 65 65 65 -73 72 -72 73
-65 -65 -65 -64 -63 62 c-34 34 -65 62 -68 62 -2 0 -36 -31 -74 -70z"/>
<path d="M8575 8220 l-69 -70 64 -65 64 -65 -64 -65 -65 -65 73 -72 72 -73 65
65 65 64 65 -64 65 -65 72 73 73 72 -65 65 -64 65 64 65 65 65 -73 72 -72 73
-65 -65 -65 -64 -63 62 c-34 34 -65 62 -68 62 -2 0 -36 -31 -74 -70z"/>
<path d="M607 6582 c-37 -37 -67 -72 -67 -78 0 -5 27 -36 60 -69 l60 -59 -60
-61 c-33 -33 -60 -65 -60 -71 0 -5 30 -40 68 -77 l68 -67 64 65 64 65 67 -66
68 -67 71 73 72 72 -61 62 c-34 34 -61 66 -61 71 0 5 27 37 60 70 l60 61 -73
72 -73 72 -64 -65 -64 -65 -66 65 -66 65 -67 -68z"/>
<path d="M1357 5832 c-37 -37 -67 -72 -67 -78 0 -5 27 -36 60 -69 l60 -59 -60
-61 c-33 -33 -60 -65 -60 -70 0 -5 30 -40 67 -77 l67 -68 66 65 66 66 67 -66
66 -65 72 71 72 71 -62 62 c-33 34 -61 66 -61 71 0 5 28 38 62 72 l63 63 -73
73 -72 72 -67 -68 -68 -67 -65 65 -66 65 -67 -68z"/>
<path d="M3765 6560 l-69 -70 64 -65 64 -65 -64 -65 -65 -65 73 -72 72 -73 65
65 65 64 65 -64 65 -65 72 73 73 72 -65 65 -64 65 64 65 65 65 -73 72 -72 73
-65 -65 -65 -64 -63 62 c-34 34 -65 62 -68 62 -2 0 -36 -31 -74 -70z"/>
<path d="M3018 5816 c-38 -34 -68 -66 -68 -71 0 -5 28 -38 62 -72 l62 -63 -64
-65 -65 -65 73 -72 72 -73 65 65 65 64 65 -64 65 -65 72 73 73 72 -65 65 -64
65 64 65 65 65 -73 72 -72 73 -65 -65 -65 -64 -63 62 c-34 34 -65 62 -67 62
-3 -1 -35 -29 -72 -64z"/>
<path d="M5417 6582 c-37 -37 -67 -72 -67 -78 0 -5 27 -36 60 -69 l60 -59 -60
-61 c-33 -33 -60 -65 -60 -71 0 -5 30 -40 68 -77 l68 -67 64 65 64 65 67 -66
68 -67 71 73 72 72 -61 62 c-34 34 -61 66 -61 71 0 5 27 37 60 70 l60 61 -73
72 -73 72 -64 -65 -64 -65 -66 65 -66 65 -67 -68z"/>
<path d="M6167 5832 c-37 -37 -67 -72 -67 -78 0 -5 27 -36 60 -69 l60 -59 -60
-61 c-33 -33 -60 -65 -60 -70 0 -5 30 -40 67 -77 l67 -68 66 65 66 66 67 -66
66 -65 72 71 72 71 -62 62 c-33 34 -61 66 -61 71 0 5 28 38 62 72 l63 63 -73
73 -72 72 -67 -68 -68 -67 -65 65 -66 65 -67 -68z"/>
<path d="M8575 6560 l-69 -70 64 -65 64 -65 -64 -65 -65 -65 73 -72 72 -73 65
65 65 64 65 -64 65 -65 72 73 73 72 -65 65 -64 65 64 65 65 65 -73 72 -72 73
-65 -65 -65 -64 -63 62 c-34 34 -65 62 -68 62 -2 0 -36 -31 -74 -70z"/>
<path d="M7828 5816 c-38 -34 -68 -66 -68 -71 0 -5 28 -38 62 -72 l62 -63 -64
-65 -65 -65 73 -72 72 -73 65 65 65 64 65 -64 65 -65 72 73 73 72 -65 65 -64
65 64 65 65 65 -73 72 -72 73 -65 -65 -65 -64 -63 62 c-34 34 -65 62 -67 62
-3 -1 -35 -29 -72 -64z"/>
<path d="M1355 4180 l-69 -70 64 -65 64 -65 -64 -65 -65 -65 73 -72 72 -73 65
65 65 64 65 -64 65 -65 72 73 73 72 -65 65 -64 65 64 65 65 65 -73 72 -72 73
-65 -65 -65 -64 -63 62 c-34 34 -65 62 -68 62 -2 0 -36 -31 -74 -70z"/>
<path d="M602 3437 c-34 -34 -62 -67 -62 -72 0 -5 28 -38 63 -73 l62 -64 -62
-57 c-35 -31 -63 -61 -63 -67 0 -5 31 -40 69 -78 l69 -68 64 65 65 65 67 -67
66 -66 72 72 73 73 -63 63 c-34 34 -62 66 -62 70 0 5 28 35 61 68 l62 61 -71
71 -72 72 -65 -65 -65 -64 -63 62 c-34 34 -67 62 -73 62 -5 0 -38 -28 -72 -63z"/>
<path d="M3015 4170 l-69 -70 64 -65 64 -65 -64 -65 -65 -65 73 -72 72 -73 65
65 65 64 65 -64 65 -65 72 73 73 72 -65 65 -64 65 64 65 65 65 -73 72 -72 73
-65 -65 -65 -64 -63 62 c-34 34 -65 62 -68 62 -2 0 -36 -31 -74 -70z"/>
<path d="M3765 3420 l-69 -70 64 -65 64 -65 -64 -65 -65 -65 73 -72 72 -73 65
65 65 64 65 -64 65 -65 72 73 73 72 -65 65 -64 65 64 65 65 65 -73 72 -72 73
-65 -65 -65 -64 -63 62 c-34 34 -65 62 -68 62 -2 0 -36 -31 -74 -70z"/>
<path d="M6165 4180 l-69 -70 64 -65 64 -65 -64 -65 -65 -65 73 -72 72 -73 65
65 65 64 65 -64 65 -65 72 73 73 72 -65 65 -64 65 64 65 65 65 -73 72 -72 73
-65 -65 -65 -64 -63 62 c-34 34 -65 62 -68 62 -2 0 -36 -31 -74 -70z"/>
<path d="M5412 3437 c-34 -34 -62 -67 -62 -72 0 -5 28 -38 63 -73 l62 -64 -62
-57 c-35 -31 -63 -61 -63 -67 0 -5 31 -40 69 -78 l69 -68 64 65 65 65 67 -67
66 -66 72 72 73 73 -63 63 c-34 34 -62 66 -62 70 0 5 28 35 61 68 l62 61 -71
71 -72 72 -65 -65 -65 -64 -63 62 c-34 34 -67 62 -73 62 -5 0 -38 -28 -72 -63z"/>
<path d="M7825 4170 l-69 -70 64 -65 64 -65 -64 -65 -65 -65 73 -72 72 -73 65
65 65 64 65 -64 65 -65 72 73 73 72 -65 65 -64 65 64 65 65 65 -73 72 -72 73
-65 -65 -65 -64 -63 62 c-34 34 -65 62 -68 62 -2 0 -36 -31 -74 -70z"/>
<path d="M8575 3420 l-69 -70 64 -65 64 -65 -64 -65 -65 -65 73 -72 72 -73 65
65 65 64 65 -64 65 -65 72 73 73 72 -65 65 -64 65 64 65 65 65 -73 72 -72 73
-65 -65 -65 -64 -63 62 c-34 34 -65 62 -68 62 -2 0 -36 -31 -74 -70z"/>
<path d="M607 1782 c-37 -37 -67 -72 -67 -78 0 -5 27 -36 60 -69 l60 -59 -60
-61 c-33 -33 -60 -65 -60 -71 0 -5 30 -40 68 -77 l68 -67 64 65 64 65 67 -66
68 -67 71 73 72 72 -61 62 c-34 34 -61 66 -61 71 0 5 27 37 60 70 l60 61 -73
72 -73 72 -64 -65 -64 -65 -66 65 -66 65 -67 -68z"/>
<path d="M1357 1032 c-37 -37 -67 -72 -67 -78 0 -5 27 -36 60 -69 l60 -59 -60
-61 c-33 -33 -60 -65 -60 -70 0 -5 30 -40 67 -77 l67 -68 66 65 66 66 67 -66
66 -65 72 71 72 71 -62 62 c-33 34 -61 66 -61 71 0 5 28 38 62 72 l63 63 -73
73 -72 72 -67 -68 -68 -67 -65 65 -66 65 -67 -68z"/>
<path d="M3765 1760 l-69 -70 64 -65 64 -65 -64 -65 -65 -65 73 -72 72 -73 65
65 65 64 65 -64 65 -65 72 73 73 72 -65 65 -64 65 64 65 65 65 -73 72 -72 73
-65 -65 -65 -64 -63 62 c-34 34 -65 62 -68 62 -2 0 -36 -31 -74 -70z"/>
<path d="M3018 1016 c-38 -34 -68 -66 -68 -71 0 -5 28 -38 62 -72 l62 -63 -64
-65 -65 -65 73 -72 72 -73 65 65 65 64 65 -64 65 -65 72 73 73 72 -65 65 -64
65 64 65 65 65 -73 72 -72 73 -65 -65 -65 -64 -63 62 c-34 34 -65 62 -67 62
-3 -1 -35 -29 -72 -64z"/>
<path d="M5417 1782 c-37 -37 -67 -72 -67 -78 0 -5 27 -36 60 -69 l60 -59 -60
-61 c-33 -33 -60 -65 -60 -71 0 -5 30 -40 68 -77 l68 -67 64 65 64 65 67 -66
68 -67 71 73 72 72 -61 62 c-34 34 -61 66 -61 71 0 5 27 37 60 70 l60 61 -73
72 -73 72 -64 -65 -64 -65 -66 65 -66 65 -67 -68z"/>
<path d="M6167 1032 c-37 -37 -67 -72 -67 -78 0 -5 27 -36 60 -69 l60 -59 -60
-61 c-33 -33 -60 -65 -60 -70 0 -5 30 -40 67 -77 l67 -68 66 65 66 66 67 -66
66 -65 72 71 72 71 -62 62 c-33 34 -61 66 -61 71 0 5 28 38 62 72 l63 63 -73
73 -72 72 -67 -68 -68 -67 -65 65 -66 65 -67 -68z"/>
<path d="M8575 1760 l-69 -70 64 -65 64 -65 -64 -65 -65 -65 73 -72 72 -73 65
65 65 64 65 -64 65 -65 72 73 73 72 -65 65 -64 65 64 65 65 65 -73 72 -72 73
-65 -65 -65 -64 -63 62 c-34 34 -65 62 -68 62 -2 0 -36 -31 -74 -70z"/>
<path d="M7828 1016 c-38 -34 -68 -66 -68 -71 0 -5 28 -38 62 -72 l62 -63 -64
-65 -65 -65 73 -72 72 -73 65 65 65 64 65 -64 65 -65 72 73 73 72 -65 65 -64
65 64 65 65 65 -73 72 -72 73 -65 -65 -65 -64 -63 62 c-34 34 -65 62 -67 62
-3 -1 -35 -29 -72 -64z"/>
</g>
</svg>
