<?xml version="1.0" standalone="no"?>
<!DOCTYPE svg PUBLIC "-//W3C//DTD SVG 20010904//EN"
 "http://www.w3.org/TR/2001/REC-SVG-20010904/DTD/svg10.dtd">
<svg version="1.0" xmlns="http://www.w3.org/2000/svg"
 width="960.000000pt" height="960.000000pt" viewBox="0 0 960.000000 960.000000"
 preserveAspectRatio="xMidYMid meet">

<g transform="translate(0.000000,960.000000) scale(0.100000,-0.100000)"
fill="#000000" stroke="none">
<path d="M287 9531 c-60 -38 -115 -74 -122 -82 -8 -8 -48 -68 -90 -134 l-75
-119 1 -291 1 -290 19 84 c98 424 435 769 862 881 l72 19 -280 0 -280 0 -108
-68z"/>
<path d="M1186 9525 c-27 -290 -140 -531 -345 -736 -204 -204 -437 -314 -719
-341 -107 -10 -122 -14 -122 -30 0 -15 8 -18 43 -18 23 0 85 -7 137 -15 446
-71 807 -378 951 -808 58 -170 67 -432 23 -628 -110 -493 -551 -877 -1047
-914 -71 -5 -100 -12 -104 -22 -8 -20 -6 -20 77 -28 400 -36 738 -248 944
-592 77 -129 121 -260 142 -423 22 -174 26 -160 -57 -160 -152 0 -381 68 -536
158 -265 155 -474 428 -548 715 l-24 92 0 -275 -1 -275 80 -126 80 -127 136
-85 136 -85 -62 -39 c-210 -130 -208 -128 -292 -263 l-78 -125 1 -290 1 -290
19 84 c94 405 404 738 810 866 63 20 284 54 353 55 12 0 0 -149 -19 -238 -48
-229 -154 -423 -324 -593 -204 -204 -437 -314 -719 -341 -107 -10 -122 -14
-122 -30 0 -15 8 -18 43 -18 23 0 85 -7 137 -15 446 -71 807 -378 951 -808 58
-170 67 -432 23 -628 -110 -493 -551 -877 -1047 -914 -71 -5 -100 -12 -104
-22 -8 -20 -6 -20 77 -28 403 -36 745 -252 948 -600 81 -139 123 -272 143
-452 6 -62 16 -113 20 -113 5 0 9 6 9 13 0 57 33 266 51 322 26 83 96 227 151
308 159 235 405 410 676 483 68 18 304 45 313 36 12 -13 -21 -257 -46 -337
-119 -391 -439 -696 -840 -800 l-90 -24 284 -1 285 0 124 78 124 77 80 127
c44 71 84 128 89 128 4 0 44 -58 88 -128 l81 -129 123 -76 124 -77 304 1 c277
1 298 2 239 14 -449 90 -833 461 -925 895 -12 57 -30 236 -26 257 1 5 29 7 64
5 227 -11 464 -96 646 -232 90 -67 221 -202 278 -285 106 -157 166 -320 192
-521 19 -149 25 -148 36 1 10 120 41 226 104 360 67 140 150 254 257 354 194
181 419 284 679 312 471 49 920 -181 1163 -596 81 -139 123 -272 143 -452 6
-62 16 -113 20 -113 5 0 9 6 9 13 0 57 33 266 51 322 26 83 96 227 151 308
159 235 405 410 676 483 68 18 304 45 313 36 12 -13 -21 -257 -46 -337 -119
-391 -439 -696 -840 -800 l-90 -24 284 -1 284 0 124 77 124 77 81 128 c44 70
84 128 89 128 4 0 44 -58 88 -128 l81 -129 123 -76 124 -77 304 1 c277 1 298
2 239 14 -353 70 -667 311 -830 635 -77 153 -105 267 -122 485 l-3 40 65 -3
c229 -11 466 -95 649 -232 90 -67 221 -202 278 -285 106 -157 166 -320 192
-521 19 -149 25 -148 36 1 10 120 41 226 104 360 140 292 386 512 686 614 95
32 168 46 303 57 71 6 82 9 82 25 0 11 -1 19 -2 19 -2 0 -62 6 -133 14 -549
58 -976 483 -1047 1042 -16 128 9 367 53 497 144 432 547 763 974 801 136 13
155 17 155 35 0 15 -18 19 -124 30 -68 6 -156 21 -195 31 -318 88 -600 322
-745 617 -73 147 -108 275 -122 441 l-7 83 59 -6 c233 -25 316 -44 453 -106
159 -72 346 -225 458 -374 94 -125 175 -302 207 -455 14 -61 14 -48 15 226 l1
290 -75 119 c-41 65 -81 126 -89 134 -8 8 -70 49 -138 91 -68 42 -122 81 -122
86 1 4 57 43 125 86 68 43 129 84 136 91 7 7 47 67 88 132 l75 119 -1 305 c-1
203 -4 285 -10 245 -10 -80 -58 -223 -108 -321 -143 -283 -400 -499 -713 -598
-72 -23 -343 -63 -354 -53 -8 9 27 270 45 333 31 104 120 279 189 372 156 205
389 365 633 433 39 10 127 25 195 31 109 11 124 14 124 31 0 10 -1 18 -2 18
-2 0 -62 6 -133 14 -549 58 -976 483 -1047 1042 -16 128 9 367 53 497 147 442
535 754 993 803 72 8 132 14 134 14 1 0 2 8 2 18 0 17 -15 20 -124 31 -68 6
-156 21 -195 31 -350 97 -649 364 -784 701 -41 101 -63 191 -81 324 -12 89
-14 94 -15 44 -3 -131 -53 -312 -126 -459 -117 -231 -305 -417 -539 -530 -333
-162 -749 -160 -1076 5 -285 144 -504 398 -599 695 -27 85 -51 200 -52 253 -2
88 -15 95 -23 12 -32 -342 -200 -646 -469 -847 -195 -145 -388 -216 -631 -234
l-99 -7 7 84 c44 509 397 930 889 1059 l72 19 -279 0 -278 1 -113 -70 c-62
-39 -119 -78 -127 -88 -8 -9 -48 -70 -88 -134 -40 -65 -76 -118 -80 -118 -3 0
-42 56 -85 125 -42 68 -85 130 -94 138 -9 8 -64 44 -122 81 l-106 66 -269 -1
-269 0 70 -18 c327 -86 602 -304 758 -600 25 -47 60 -127 76 -177 29 -85 31
-103 31 -228 0 -116 -2 -136 -15 -136 -54 0 -221 24 -282 40 -292 79 -559 286
-717 556 -76 131 -125 283 -150 469 -12 89 -14 94 -15 44 -3 -131 -53 -312
-126 -459 -117 -231 -305 -417 -539 -530 -333 -162 -749 -160 -1076 5 -285
144 -504 398 -599 695 -27 85 -51 200 -52 253 -2 88 -15 95 -23 12z m57 -805
c13 -30 22 -76 25 -138 l5 -94 36 6 c74 11 224 -28 247 -65 11 -19 -41 -57
-103 -75 -35 -10 -79 -15 -119 -12 l-64 4 0 -71 c0 -84 -21 -164 -54 -202 -20
-23 -26 -25 -39 -14 -32 26 -59 121 -59 206 l0 80 -64 -3 c-93 -5 -224 37
-224 73 0 40 97 77 206 78 l81 0 0 71 c0 87 17 150 50 194 21 28 27 31 41 20
8 -7 24 -33 35 -58z m4800 0 c13 -30 22 -76 25 -138 l5 -94 36 6 c74 11 224
-28 247 -65 11 -19 -41 -57 -103 -75 -35 -10 -79 -15 -119 -12 l-64 4 0 -71
c0 -84 -21 -164 -54 -202 -20 -23 -26 -25 -39 -14 -32 26 -59 121 -59 206 l0
80 -64 -3 c-93 -5 -224 37 -224 73 0 40 97 77 206 78 l81 0 0 71 c0 87 17 150
50 194 21 28 27 31 41 20 8 -7 24 -33 35 -58z m-2411 43 c28 -32 50 -116 51
-194 l1 -77 75 1 c88 1 167 -22 200 -57 l22 -24 -28 -19 c-53 -37 -96 -48
-187 -48 l-88 0 5 -48 c10 -82 -27 -219 -64 -243 -19 -11 -57 41 -75 101 -9
31 -14 83 -13 120 l2 66 -89 2 c-63 2 -102 9 -134 24 -50 22 -75 47 -65 63 22
36 178 76 252 64 l38 -6 0 89 c0 62 6 101 18 133 30 74 49 86 79 53z m4800 0
c28 -32 50 -116 51 -194 l1 -77 75 1 c88 1 167 -22 200 -57 l22 -24 -28 -19
c-53 -37 -96 -48 -187 -48 l-88 0 5 -48 c10 -82 -27 -219 -64 -243 -19 -11
-57 41 -75 101 -9 31 -14 83 -13 120 l2 66 -89 2 c-63 2 -102 9 -134 24 -50
22 -75 47 -65 63 22 36 178 76 252 64 l38 -6 0 89 c0 62 6 101 18 133 30 74
49 86 79 53z m-5842 -377 c452 -69 838 -405 964 -837 54 -187 59 -454 11 -629
-92 -338 -318 -614 -630 -767 -129 -63 -235 -92 -403 -111 -251 -29 -445 1
-649 98 -134 63 -238 136 -337 235 -197 196 -327 475 -343 739 l-6 98 29 -5
c16 -4 65 -9 109 -12 329 -25 662 -224 856 -511 107 -159 181 -360 195 -527 8
-88 19 -109 22 -39 6 120 59 317 116 430 185 366 533 609 931 652 122 13 145
20 66 20 -69 0 -232 33 -323 66 -434 156 -736 534 -782 980 l-12 119 -8 -75
c-20 -197 -48 -296 -127 -450 -147 -286 -413 -505 -723 -595 -78 -22 -233 -45
-309 -45 l-33 0 13 123 c16 154 49 270 112 395 179 357 527 604 911 647 157
17 238 17 350 1z m2190 -126 c0 -123 -3 -149 -26 -217 -121 -365 -406 -650
-769 -768 -76 -25 -134 -35 -290 -53 l-70 -8 122 -12 c68 -7 153 -22 190 -32
383 -107 693 -403 813 -778 24 -75 30 -111 31 -190 l1 -97 19 107 c35 199 104
360 223 519 195 259 495 432 798 460 132 12 183 27 97 28 -31 1 -94 8 -140 16
-437 76 -802 394 -934 815 -20 65 -54 275 -55 343 0 12 88 8 190 -8 446 -71
807 -378 951 -808 58 -170 67 -432 23 -628 -110 -493 -546 -873 -1049 -915
-55 -5 -107 -7 -115 -6 -8 1 -69 9 -135 16 -358 40 -682 249 -871 561 -92 151
-143 298 -166 481 -16 128 9 367 53 497 144 432 532 751 974 802 60 7 116 13
123 14 9 1 12 -33 12 -139z m2610 126 c452 -69 838 -405 964 -837 54 -187 59
-454 11 -629 -92 -338 -318 -614 -630 -767 -129 -63 -235 -92 -403 -111 -251
-29 -445 1 -649 98 -134 63 -238 136 -337 235 -197 196 -327 475 -343 739 l-6
98 29 -5 c16 -4 65 -9 109 -12 329 -25 662 -224 856 -511 107 -159 181 -360
195 -527 8 -88 19 -109 22 -39 6 120 59 317 116 430 185 366 533 609 931 652
122 13 145 20 66 20 -69 0 -232 33 -323 66 -434 156 -736 534 -782 980 l-12
119 -8 -75 c-20 -197 -48 -296 -127 -450 -147 -286 -413 -505 -723 -595 -78
-22 -233 -45 -309 -45 l-33 0 13 123 c16 154 49 270 112 395 179 357 527 604
911 647 157 17 238 17 350 1z m-4902 -870 l83 -134 125 -78 c69 -43 127 -81
130 -85 2 -4 -55 -45 -126 -90 l-131 -83 -82 -133 c-45 -73 -84 -133 -87 -133
-3 1 -42 60 -87 133 l-81 132 -131 83 c-72 46 -129 87 -127 91 3 4 61 42 131
86 l126 79 82 132 c45 73 84 133 87 133 3 0 42 -60 88 -133z m2390 -6 l78
-125 129 -82 c72 -46 128 -86 126 -90 -2 -5 -60 -44 -129 -88 l-125 -80 -77
-123 c-42 -67 -81 -127 -86 -132 -7 -7 -38 33 -93 123 l-83 133 -134 84 -134
84 103 66 c56 36 117 75 135 85 22 13 57 60 114 152 45 74 85 130 90 125 4 -4
43 -64 86 -132z m2410 6 l83 -134 125 -78 c69 -43 127 -81 130 -85 2 -4 -55
-45 -126 -90 l-131 -83 -82 -133 c-45 -73 -84 -133 -87 -133 -3 1 -42 60 -87
133 l-81 132 -131 83 c-72 46 -129 87 -127 91 3 4 61 42 131 86 l126 79 82
132 c45 73 84 133 87 133 3 0 42 -60 88 -133z m-3650 -1168 c30 -49 45 -114
45 -194 l-1 -70 60 4 c68 5 169 -18 208 -48 20 -16 23 -23 14 -37 -25 -42
-152 -79 -235 -68 l-47 7 1 -74 c0 -40 -5 -91 -11 -114 -13 -45 -52 -109 -67
-109 -18 0 -54 67 -65 121 -7 31 -10 83 -8 116 l3 60 -41 -6 c-79 -10 -226 27
-249 64 -10 16 15 41 65 64 33 14 70 20 134 22 l89 2 -2 66 c-3 75 18 160 50
199 26 35 33 34 57 -5z m4800 0 c30 -49 45 -114 45 -194 l-1 -70 60 4 c68 5
169 -18 208 -48 20 -16 23 -23 14 -37 -25 -42 -152 -79 -235 -68 l-47 7 1 -74
c0 -40 -5 -91 -11 -114 -13 -45 -52 -109 -67 -109 -18 0 -54 67 -65 121 -7 31
-10 83 -8 116 l3 60 -41 -6 c-79 -10 -226 27 -249 64 -10 16 15 41 65 64 33
14 70 20 134 22 l89 2 -2 66 c-3 75 18 160 50 199 26 35 33 34 57 -5z m-7199
-33 c20 -39 26 -69 29 -141 l4 -92 93 -4 c74 -3 102 -9 141 -29 65 -33 65 -55
0 -88 -40 -21 -67 -26 -145 -29 l-96 -4 0 -92 c-1 -79 -4 -98 -28 -143 -15
-29 -34 -53 -42 -53 -39 0 -78 110 -77 218 l0 72 -72 0 c-82 0 -161 20 -200
51 -26 20 -26 22 -10 40 30 33 119 59 204 60 l78 1 0 71 c0 82 13 137 42 185
27 44 48 38 79 -23z m4800 0 c20 -39 26 -69 29 -141 l4 -92 93 -4 c74 -3 102
-9 141 -29 65 -33 65 -55 0 -88 -40 -21 -67 -26 -145 -29 l-96 -4 0 -92 c-1
-79 -4 -98 -28 -143 -15 -29 -34 -53 -42 -53 -39 0 -78 110 -77 218 l0 72 -72
0 c-82 0 -161 20 -200 51 -26 20 -26 22 -10 40 30 33 119 59 204 60 l78 1 0
71 c0 82 13 137 42 185 27 44 48 38 79 -23z m-3447 -336 c172 -23 379 -109
527 -219 259 -193 426 -472 466 -777 23 -171 22 -173 -21 -173 -71 0 -247 32
-334 60 -303 99 -557 316 -697 595 -48 95 -77 170 -94 245 -11 48 -37 278 -32
284 4 4 97 -3 185 -15z m4800 0 c172 -23 379 -109 527 -219 259 -193 426 -472
466 -777 23 -171 22 -173 -21 -173 -71 0 -247 32 -334 60 -303 99 -557 316
-697 595 -48 95 -77 170 -94 245 -11 48 -37 278 -32 284 4 4 97 -3 185 -15z
m-4999 4 c10 -18 -25 -264 -48 -338 -142 -464 -562 -799 -1042 -831 -120 -8
-110 -26 -89 151 18 143 43 229 104 350 159 318 428 541 760 631 46 12 146 27
299 43 6 0 14 -2 16 -6z m2630 -18 c337 -70 621 -272 801 -572 77 -129 121
-260 142 -423 22 -174 26 -160 -57 -160 -97 0 -254 34 -369 79 -247 96 -446
265 -586 496 -93 152 -139 293 -162 495 l-9 75 -2 -119 c-1 -102 -5 -130 -31
-207 -123 -368 -407 -645 -782 -764 -72 -23 -343 -63 -354 -53 -8 9 27 270 45
333 31 104 120 279 189 372 191 252 486 426 787 462 106 13 291 6 388 -14z
m2170 18 c10 -18 -25 -264 -48 -338 -142 -464 -562 -799 -1042 -831 -120 -8
-110 -26 -89 151 18 143 43 229 104 350 159 318 428 541 760 631 46 12 146 27
299 43 6 0 14 -2 16 -6z m-4705 -877 l82 -133 127 -79 c70 -43 128 -84 130
-89 2 -6 -40 -37 -94 -70 -156 -97 -162 -103 -247 -238 -43 -70 -82 -127 -86
-127 -4 0 -42 57 -85 126 -84 135 -89 140 -248 239 -53 33 -95 64 -94 70 2 5
62 47 133 92 l129 82 80 130 c44 72 82 130 85 130 3 0 42 -60 88 -133z m2405
2 c40 -64 78 -123 85 -131 7 -8 66 -47 132 -88 66 -41 118 -78 117 -84 -2 -5
-53 -40 -113 -77 -157 -98 -152 -93 -237 -231 -44 -70 -82 -127 -86 -127 -4 0
-40 53 -81 118 -40 64 -80 125 -88 135 -8 9 -71 52 -139 94 -67 42 -123 81
-123 87 0 6 58 47 129 91 l128 79 84 132 c67 107 86 131 101 125 9 -3 50 -59
91 -123z m2395 -2 l82 -133 127 -79 c70 -43 128 -84 130 -89 2 -6 -40 -37 -94
-70 -159 -98 -164 -104 -248 -239 -43 -69 -81 -126 -85 -126 -4 0 -42 57 -85
126 -84 135 -89 140 -248 239 -53 33 -95 64 -94 70 2 5 62 47 133 92 l129 82
80 130 c44 72 82 130 85 130 3 0 42 -60 88 -133z m-5932 -321 c537 -60 958
-474 1037 -1020 l13 -90 7 71 c17 174 102 399 205 543 200 280 500 459 836
496 72 8 134 15 139 15 12 0 8 -124 -8 -209 -71 -372 -311 -687 -649 -851
-202 -99 -429 -137 -666 -113 -562 58 -999 492 -1059 1055 -14 121 -14 118 2
118 6 0 71 -7 143 -15z m2444 -4 c158 -18 323 -81 480 -185 219 -147 386 -364
469 -612 29 -85 31 -103 31 -228 0 -116 -2 -136 -15 -136 -54 0 -221 24 -282
40 -316 85 -602 321 -747 617 -73 147 -108 275 -122 441 l-7 83 54 -5 c30 -4
92 -10 139 -15z m2186 -65 c-26 -342 -197 -655 -469 -858 -195 -145 -388 -216
-631 -234 l-99 -7 7 84 c32 368 222 691 526 894 164 109 320 168 510 189 63 8
126 14 139 15 l24 1 -7 -84z m170 69 c537 -60 958 -474 1037 -1020 l13 -90 7
71 c17 174 102 399 205 543 200 281 500 459 836 496 72 8 134 15 139 15 12 0
8 -124 -8 -209 -81 -423 -377 -766 -786 -909 -219 -77 -529 -81 -754 -11 -373
117 -664 402 -784 768 -43 131 -74 361 -49 361 7 0 72 -7 144 -15z m-4913
-885 c13 -30 22 -76 25 -138 l5 -94 36 6 c74 11 224 -28 247 -65 11 -19 -41
-57 -103 -75 -35 -10 -79 -15 -119 -12 l-64 4 0 -71 c0 -84 -21 -164 -54 -202
-20 -23 -26 -25 -39 -14 -32 26 -59 121 -59 206 l0 80 -64 -3 c-93 -5 -224 37
-224 73 0 40 97 77 206 78 l81 0 0 71 c0 87 17 150 50 194 21 28 27 31 41 20
8 -7 24 -33 35 -58z m4800 0 c13 -30 22 -76 25 -138 l5 -94 36 6 c74 11 224
-28 247 -65 11 -19 -41 -57 -103 -75 -35 -10 -79 -15 -119 -12 l-64 4 0 -71
c0 -84 -21 -164 -54 -202 -20 -23 -26 -25 -39 -14 -32 26 -59 121 -59 206 l0
80 -64 -3 c-93 -5 -224 37 -224 73 0 40 97 77 206 78 l81 0 0 71 c0 87 17 150
50 194 21 28 27 31 41 20 8 -7 24 -33 35 -58z m-2411 43 c28 -32 50 -116 51
-194 l1 -77 75 1 c88 1 167 -22 200 -57 l22 -24 -28 -19 c-53 -37 -96 -48
-187 -48 l-88 0 5 -48 c10 -82 -27 -219 -64 -243 -19 -11 -57 41 -75 101 -9
31 -14 83 -13 120 l2 66 -89 2 c-63 2 -102 9 -134 24 -50 22 -75 47 -65 63 22
36 178 76 252 64 l38 -6 0 89 c0 62 6 101 18 133 30 74 49 86 79 53z m4815
-28 c27 -48 46 -150 37 -203 l-6 -40 78 1 c91 1 170 -21 203 -57 l22 -24 -28
-20 c-46 -32 -138 -55 -208 -50 l-63 4 0 -81 c1 -84 -26 -180 -59 -206 -39
-33 -96 100 -92 216 l2 66 -89 2 c-63 2 -102 9 -134 24 -50 22 -75 47 -65 63
22 36 178 76 252 64 l38 -6 0 89 c0 53 6 102 14 123 38 91 62 99 98 35z
m-5857 -349 c452 -69 838 -405 964 -837 54 -187 59 -454 11 -629 -92 -338
-318 -614 -630 -767 -129 -63 -235 -92 -403 -111 -251 -29 -445 1 -649 98
-134 63 -238 136 -337 235 -197 196 -327 475 -343 739 l-6 98 29 -5 c16 -4 65
-9 109 -12 329 -25 662 -224 856 -511 107 -159 181 -360 195 -527 8 -88 19
-109 22 -39 6 120 59 317 116 430 185 366 533 609 931 652 122 13 145 20 66
20 -69 0 -232 33 -323 66 -434 156 -736 534 -782 980 l-12 119 -8 -75 c-20
-197 -48 -296 -127 -450 -147 -286 -413 -505 -723 -595 -78 -22 -233 -45 -309
-45 l-33 0 13 123 c16 154 49 270 112 395 179 357 527 604 911 647 157 17 238
17 350 1z m2190 -126 c0 -124 -3 -148 -26 -217 -123 -368 -406 -649 -769 -768
-76 -25 -134 -35 -290 -53 l-70 -8 122 -12 c68 -7 153 -22 190 -32 383 -107
693 -403 813 -778 24 -75 30 -111 31 -190 l1 -97 19 107 c35 199 104 360 223
519 195 259 495 432 798 460 132 12 183 27 97 28 -31 1 -94 8 -140 16 -437 76
-802 394 -934 815 -20 65 -54 275 -55 343 0 12 88 8 190 -8 446 -71 807 -378
951 -808 58 -170 67 -432 23 -628 -110 -493 -546 -873 -1049 -915 -55 -5 -107
-7 -115 -6 -8 1 -69 9 -135 16 -358 40 -682 249 -871 561 -92 151 -143 298
-166 481 -16 128 9 367 53 497 144 432 532 751 974 802 60 7 116 13 123 14 9
1 12 -33 12 -139z m2668 116 c435 -93 786 -414 906 -828 31 -108 50 -303 43
-433 -20 -323 -210 -659 -485 -855 -178 -127 -345 -192 -556 -215 -72 -8 -138
-17 -147 -19 -31 -7 -271 23 -347 44 -100 27 -262 105 -359 172 -100 69 -224
193 -291 291 -119 173 -197 390 -209 581 l-6 98 29 -5 c16 -4 65 -9 109 -12
329 -25 662 -224 856 -511 106 -157 180 -356 196 -526 7 -78 23 -102 23 -35 0
102 56 310 114 425 185 366 533 609 931 652 122 13 145 20 66 20 -69 0 -232
33 -323 66 -434 156 -734 532 -783 980 -7 66 -13 110 -14 99 -1 -11 -8 -72
-16 -135 -54 -445 -393 -835 -839 -965 -78 -22 -233 -45 -309 -45 l-33 0 13
123 c16 154 49 270 112 395 144 288 404 510 711 607 165 52 443 66 608 31z
m-4960 -860 l83 -134 125 -78 c69 -43 127 -81 130 -85 2 -4 -55 -45 -126 -90
l-131 -83 -82 -133 c-45 -73 -84 -133 -87 -133 -3 1 -42 60 -87 133 l-81 132
-131 83 c-72 46 -129 87 -127 91 3 4 61 42 131 86 l126 79 82 132 c45 73 84
133 87 133 3 0 42 -60 88 -133z m2390 -6 l78 -125 129 -82 c72 -46 128 -86
126 -90 -2 -5 -60 -44 -129 -88 l-125 -80 -77 -123 c-42 -67 -81 -127 -86
-132 -7 -7 -38 33 -93 123 l-83 133 -134 84 -134 84 103 66 c56 36 117 75 135
85 22 13 57 60 114 152 45 74 85 130 90 125 4 -4 43 -64 86 -132z m2409 6 l82
-132 126 -79 c70 -44 128 -82 131 -86 2 -4 -55 -45 -126 -90 l-131 -83 -82
-133 c-45 -73 -84 -133 -87 -133 -3 1 -42 60 -87 133 l-81 132 -131 83 c-72
46 -129 87 -127 91 3 4 61 42 131 86 l126 79 82 132 c45 73 84 133 87 133 3 0
42 -60 87 -133z m-3649 -1168 c30 -49 45 -114 45 -194 l-1 -70 60 4 c68 5 169
-18 208 -48 20 -16 23 -23 14 -37 -25 -42 -152 -79 -235 -68 l-47 7 1 -74 c0
-40 -5 -91 -11 -114 -13 -45 -52 -109 -67 -109 -18 0 -54 67 -65 121 -7 31
-10 83 -8 116 l3 60 -41 -6 c-79 -10 -226 27 -249 64 -10 16 15 41 65 64 33
14 70 20 134 22 l89 2 -2 66 c-3 75 18 160 50 199 26 35 33 34 57 -5z m4800 0
c30 -49 45 -114 45 -194 l-1 -70 60 4 c68 5 169 -18 208 -48 20 -16 23 -23 14
-37 -25 -43 -153 -79 -238 -67 l-49 6 6 -45 c11 -81 -24 -210 -66 -246 -12
-10 -19 -7 -36 15 -33 42 -53 125 -49 205 l3 71 -41 -6 c-79 -10 -226 27 -249
64 -10 16 15 41 65 64 33 14 70 20 134 22 l89 2 -2 66 c-3 75 18 160 50 199
26 35 33 34 57 -5z m-7199 -33 c20 -39 26 -69 29 -141 l4 -92 93 -4 c74 -3
102 -9 141 -29 65 -33 65 -55 0 -88 -40 -21 -67 -26 -145 -29 l-96 -4 0 -92
c-1 -79 -4 -98 -28 -143 -15 -29 -34 -53 -42 -53 -39 0 -78 110 -77 218 l0 72
-72 0 c-82 0 -161 20 -200 51 -26 20 -26 22 -10 40 30 33 119 59 204 60 l78 1
0 71 c0 82 13 137 42 185 27 44 48 38 79 -23z m4800 0 c20 -39 26 -69 29 -141
l4 -92 93 -4 c74 -3 102 -9 141 -29 65 -33 65 -55 0 -88 -40 -21 -67 -26 -145
-29 l-96 -4 0 -92 c-1 -79 -4 -98 -28 -143 -15 -29 -34 -53 -42 -53 -39 0 -78
110 -77 218 l0 72 -72 0 c-82 0 -161 20 -200 51 -26 20 -26 22 -10 40 30 33
119 59 204 60 l78 1 0 71 c0 82 13 137 42 185 27 44 48 38 79 -23z"/>
<path d="M1520 9579 c462 -124 804 -513 873 -994 l13 -90 7 71 c17 174 102
399 205 543 165 231 403 396 682 472 l65 18 -279 0 -280 1 -113 -71 c-122 -76
-129 -83 -222 -236 -35 -57 -66 -103 -70 -103 -5 0 -42 56 -84 123 -42 68 -85
131 -94 139 -10 8 -65 45 -122 82 l-104 66 -276 -1 -276 0 75 -20z"/>
<path d="M6320 9579 c462 -124 804 -513 873 -994 l13 -90 7 71 c17 174 102
399 205 543 165 231 403 396 682 472 l65 18 -279 0 -280 1 -113 -71 c-122 -76
-129 -83 -222 -236 -35 -57 -66 -103 -70 -103 -5 0 -42 56 -84 123 -42 68 -85
131 -94 139 -10 8 -65 45 -122 82 l-104 66 -276 -1 -276 0 75 -20z"/>
<path d="M8715 9581 c327 -86 604 -305 758 -600 51 -97 91 -205 111 -301 14
-61 14 -48 15 226 l1 290 -73 116 c-40 64 -79 123 -86 131 -7 9 -63 47 -126
86 l-113 71 -278 -1 -279 0 70 -18z"/>
<path d="M1 7945 l-1 -311 78 -124 78 -125 129 -82 c72 -46 130 -85 130 -88 0
-3 -58 -42 -129 -88 l-129 -82 -79 -125 -78 -124 0 -281 1 -280 25 95 c48 187
182 411 328 547 192 180 430 292 668 314 132 12 183 27 97 28 -31 1 -94 8
-140 16 -307 53 -590 232 -772 486 -93 131 -178 336 -196 474 -6 39 -9 -47
-10 -250z"/>
<path d="M9588 8190 c-9 -76 -46 -196 -93 -295 -137 -288 -402 -519 -710 -620
-76 -25 -134 -35 -290 -53 l-70 -8 122 -12 c68 -7 153 -22 190 -32 427 -119
753 -466 848 -901 13 -60 13 -46 14 229 l1 294 -80 127 -80 126 -134 85 -135
85 87 55 c48 31 109 69 135 85 40 25 62 52 128 156 l79 127 -2 308 c-2 192 -6
284 -10 244z"/>
<path d="M1 3125 l-1 -311 78 -124 78 -125 129 -82 c72 -46 130 -85 130 -88 0
-3 -58 -42 -129 -88 l-129 -82 -79 -125 -78 -124 0 -281 1 -280 25 95 c48 187
182 411 328 547 192 180 430 292 668 314 132 12 183 27 97 28 -31 1 -94 8
-140 16 -307 53 -590 232 -772 486 -93 131 -178 336 -196 474 -6 39 -9 -47
-10 -250z"/>
<path d="M9588 3370 c-13 -122 -86 -305 -175 -438 -158 -238 -401 -415 -675
-491 -40 -11 -127 -26 -193 -33 l-120 -12 70 -8 c223 -25 305 -47 452 -119
315 -155 538 -434 629 -783 l23 -91 1 287 0 288 -80 127 -79 128 -135 85 -135
85 87 55 c48 31 109 69 135 85 40 25 62 52 128 156 l79 127 -2 308 c-2 191 -6
284 -10 244z"/>
<path d="M4781 1018 c-1 -96 -6 -132 -27 -200 -115 -364 -410 -654 -786 -773
-46 -15 -110 -30 -143 -34 -40 -6 44 -9 243 -10 l304 -1 123 77 123 78 83 131
c46 73 86 130 89 127 3 -2 41 -61 85 -131 l80 -127 120 -77 120 -77 285 0 285
0 -90 24 c-306 80 -556 267 -721 540 -93 152 -139 293 -162 495 l-9 75 -2
-117z"/>
<path d="M9592 984 c-6 -114 -98 -342 -194 -481 -172 -250 -495 -456 -773
-492 -39 -6 47 -9 251 -10 l310 -1 119 75 c66 41 127 83 136 92 9 10 49 69 88
132 l71 113 -3 307 c-1 168 -3 287 -5 265z"/>
<path d="M1 675 l0 -280 78 -120 77 -120 120 -77 119 -77 285 0 285 0 -90 24
c-414 108 -746 437 -850 838 l-24 92 0 -280z"/>
</g>
</svg>
