<?xml version="1.0" standalone="no"?>
<!DOCTYPE svg PUBLIC "-//W3C//DTD SVG 20010904//EN"
 "http://www.w3.org/TR/2001/REC-SVG-20010904/DTD/svg10.dtd">
<svg version="1.0" xmlns="http://www.w3.org/2000/svg"
 width="960.000000pt" height="960.000000pt" viewBox="0 0 960.000000 960.000000"
 preserveAspectRatio="xMidYMid meet">

<g transform="translate(0.000000,960.000000) scale(0.100000,-0.100000)"
fill="#000000" stroke="none">
<path d="M570 9466 l-275 -133 -147 -294 -147 -294 0 -1530 0 -1530 147 -294
147 -295 293 -140 c160 -78 292 -144 292 -147 0 -3 -49 -29 -108 -57 -59 -28
-193 -93 -297 -144 l-189 -93 -143 -292 -143 -293 0 -1533 0 -1532 96 -195
c53 -107 117 -240 143 -295 l48 -101 64 -29 c35 -15 163 -77 284 -137 l219
-108 1544 0 1544 0 236 116 c131 63 258 125 284 137 l47 21 147 301 148 300
146 -300 147 -300 284 -138 284 -137 1550 0 1550 0 283 140 282 139 135 277
135 277 0 1563 0 1564 -136 279 -136 279 -294 143 c-162 79 -294 146 -294 149
0 3 134 70 296 150 l297 144 32 71 c18 38 78 164 134 278 l101 208 0 1554 0
1554 -136 280 -136 279 -280 136 -279 136 -1567 -2 -1567 -3 -269 -134 -269
-134 -147 -299 -146 -298 -147 298 -147 299 -280 136 -279 137 -1553 0 -1553
-1 -275 -133z m1757 62 c13 -12 28 -39 35 -60 24 -80 -56 -169 -137 -154 -74
14 -124 87 -105 155 25 92 137 125 207 59z m330 16 c55 -34 74 -116 40 -168
-58 -87 -178 -82 -222 11 -53 110 77 222 182 157z m4461 -2 c32 -21 52 -64 52
-113 0 -33 -6 -47 -33 -74 -43 -43 -79 -52 -131 -34 -73 25 -107 110 -72 178
34 64 120 84 184 43z m340 5 c32 -15 62 -68 62 -108 0 -76 -74 -138 -148 -124
-21 4 -50 21 -69 40 -27 27 -33 41 -33 74 0 109 90 165 188 118z m-5802 -22
c258 -65 487 -256 599 -497 57 -123 76 -208 82 -354 9 -205 -31 -359 -138
-534 -44 -71 -100 -133 -338 -371 -169 -169 -312 -304 -350 -329 -279 -186
-617 -217 -906 -81 -241 113 -407 297 -491 544 -33 98 -46 177 -46 292 -1 192
53 363 165 530 50 74 512 543 622 631 223 179 516 241 801 169z m1849 24 c108
-13 247 -57 332 -105 103 -57 194 -138 464 -411 277 -279 334 -352 390 -498
48 -124 63 -205 63 -345 -1 -138 -14 -209 -64 -339 -148 -383 -570 -628 -977
-567 -175 26 -324 90 -454 194 -41 33 -193 180 -339 328 -295 300 -335 353
-397 534 -79 231 -64 469 46 695 151 314 454 508 816 524 17 0 70 -4 120 -10z
m2834 1 c313 -40 579 -231 716 -515 68 -139 89 -233 89 -400 0 -123 -3 -152
-27 -240 -31 -111 -93 -235 -160 -322 -25 -32 -175 -186 -334 -343 -256 -254
-298 -291 -373 -333 -326 -182 -711 -159 -1007 61 -168 125 -285 301 -340 509
-36 140 -37 317 0 454 32 121 99 255 175 350 85 106 566 578 637 626 150 100
317 153 510 162 17 0 68 -4 114 -9z m1966 -1 c152 -19 283 -67 410 -152 72
-48 586 -554 657 -647 64 -83 131 -222 160 -330 18 -68 22 -112 22 -225 1
-165 -19 -255 -88 -400 -135 -283 -411 -478 -728 -515 -217 -25 -454 37 -633
165 -33 24 -189 173 -347 332 -345 347 -392 413 -451 628 -30 109 -31 334 -3
445 97 381 399 648 791 700 88 11 111 11 210 -1z m-917 -1799 c62 -129 119
-240 125 -246 7 -6 141 -74 299 -150 158 -76 287 -142 288 -145 0 -3 -134 -71
-297 -151 l-298 -146 -139 -292 c-77 -160 -143 -293 -146 -295 -4 -2 -72 129
-151 292 l-144 297 -300 147 -300 147 302 148 c166 81 304 153 305 160 2 7 66
140 143 297 l140 285 29 -57 c17 -31 81 -162 144 -291z m-4828 46 l144 -294
300 -147 301 -146 -300 -148 -300 -147 -147 -300 -147 -299 -146 300 -147 301
-298 144 c-164 80 -295 148 -292 151 4 4 138 70 297 147 272 132 291 143 310
179 11 21 76 154 145 296 68 141 127 257 131 257 3 0 70 -132 149 -294z
m-2318 -314 c55 -32 73 -112 39 -168 -44 -72 -137 -80 -199 -18 -33 33 -34 37
-30 89 9 106 97 150 190 97z m4445 12 c93 -54 94 -179 0 -227 -51 -26 -100
-16 -145 29 -33 33 -34 38 -30 89 5 60 24 89 73 111 40 18 68 17 102 -2z m340
1 c31 -9 71 -59 78 -99 10 -50 -23 -108 -74 -131 -35 -15 -47 -16 -81 -6 -48
14 -77 43 -89 88 -18 64 21 133 85 153 29 8 38 7 81 -5z m4524 -24 c34 -34 39
-44 39 -85 0 -39 -6 -52 -34 -84 -32 -34 -38 -37 -91 -37 -53 0 -59 3 -91 37
-28 32 -34 45 -34 84 0 41 5 51 39 85 34 34 44 39 86 39 42 0 52 -5 86 -39z
m-9305 -337 c26 -17 54 -72 54 -104 0 -78 -83 -141 -159 -120 -114 31 -125
188 -17 236 35 16 87 10 122 -12z m4460 0 c26 -17 54 -72 54 -104 0 -78 -83
-141 -159 -120 -114 31 -125 188 -17 236 35 16 87 10 122 -12z m361 -19 c52
-55 55 -104 12 -160 -33 -41 -81 -58 -128 -45 -117 31 -128 186 -16 236 45 21
95 9 132 -31z m4461 31 c60 -33 82 -128 41 -180 -45 -58 -114 -71 -170 -33
-46 31 -61 63 -55 117 6 63 57 110 118 110 24 -1 53 -6 66 -14z m-8313 -27
c88 -23 178 -62 268 -115 95 -57 630 -592 707 -705 108 -162 154 -317 153
-519 -1 -168 -21 -251 -97 -405 -91 -182 -219 -313 -396 -404 -143 -73 -259
-101 -421 -102 -189 0 -356 50 -508 151 -65 44 -156 129 -372 347 -157 158
-299 308 -316 333 -50 74 -101 184 -130 277 -24 79 -26 105 -27 243 -1 132 3
168 22 239 96 352 388 617 747 677 104 17 269 10 370 -17z m2837 2 c314 -81
559 -309 656 -611 31 -98 42 -172 42 -296 0 -170 -43 -322 -137 -478 -55 -93
-600 -639 -714 -716 -152 -101 -317 -151 -508 -151 -359 0 -668 193 -827 516
-70 142 -87 222 -87 400 0 123 4 165 21 230 27 99 89 229 147 309 54 76 602
621 668 666 108 72 254 128 395 150 83 13 255 4 344 -19z m1865 18 c166 -23
322 -90 457 -198 111 -89 568 -560 622 -642 111 -166 159 -343 151 -549 -5
-129 -19 -195 -64 -314 -55 -145 -203 -325 -346 -419 -309 -205 -731 -197
-1032 18 -33 24 -191 175 -351 337 -310 313 -351 364 -413 518 -49 124 -65
224 -58 375 7 154 28 240 92 370 107 216 298 386 520 461 148 49 279 63 422
43z m2839 0 c207 -29 383 -116 530 -263 177 -178 266 -398 266 -656 0 -200
-52 -362 -170 -530 -56 -80 -498 -528 -606 -616 -172 -138 -358 -204 -573
-205 -211 0 -391 57 -553 177 -337 248 -462 688 -309 1084 55 142 113 215 403
508 293 296 359 352 481 412 177 86 349 115 531 89z m-3787 -1743 l144 -294
296 -145 296 -144 -95 -46 c-52 -24 -189 -90 -303 -146 l-208 -102 -148 -299
-148 -299 -147 298 -147 298 -294 144 c-162 79 -295 146 -295 150 0 3 48 29
108 57 59 28 192 92 296 143 l188 92 145 298 c86 175 150 295 157 293 6 -3 76
-137 155 -298z m-2670 -300 c84 -44 89 -167 9 -216 -62 -38 -141 -19 -178 43
-25 41 -25 68 1 118 31 62 106 86 168 55z m354 -5 c15 -10 35 -28 44 -41 19
-27 21 -96 4 -128 -19 -35 -70 -62 -119 -62 -36 0 -50 6 -77 33 -20 20 -36 48
-40 70 -19 100 104 184 188 128z m4479 -18 c79 -80 25 -213 -87 -213 -47 0
-84 22 -114 67 -21 33 -22 40 -11 77 14 49 25 63 65 88 44 28 108 19 147 -19z
m325 17 c74 -45 83 -139 19 -197 -28 -26 -44 -33 -76 -33 -52 0 -96 23 -115
60 -60 115 63 237 172 170z m-5125 -379 c57 -63 40 -155 -35 -194 -93 -48
-204 42 -177 142 26 97 144 126 212 52z m325 23 c55 -34 74 -116 40 -168 -58
-87 -178 -82 -222 10 -53 112 77 224 182 158z m4470 -5 c25 -21 43 -66 43
-108 0 -51 -48 -106 -101 -116 -102 -19 -182 92 -134 185 32 62 138 83 192 39z
m331 8 c32 -15 62 -68 62 -108 0 -76 -74 -138 -148 -124 -21 4 -50 21 -69 40
-27 27 -33 41 -33 74 0 74 35 120 98 131 39 7 53 5 90 -13z m-5802 -22 c257
-65 487 -256 599 -498 65 -141 80 -213 80 -392 0 -175 -9 -224 -66 -362 -60
-142 -115 -210 -413 -509 -292 -292 -347 -338 -491 -405 -237 -111 -523 -111
-760 0 -333 156 -534 465 -536 826 -2 200 51 372 164 540 49 73 512 543 620
630 224 180 518 242 803 170z m1934 10 c36 -7 101 -27 145 -44 153 -59 215
-109 540 -435 255 -255 308 -314 349 -383 218 -370 162 -829 -138 -1129 -232
-233 -564 -321 -891 -238 -77 20 -232 93 -298 141 -69 49 -544 519 -617 609
-154 192 -228 438 -201 666 15 132 35 199 90 313 59 123 147 236 245 313 154
123 279 173 511 206 47 7 193 -4 265 -19z m2835 0 c134 -32 218 -69 332 -148
177 -121 311 -317 365 -534 31 -123 31 -332 -1 -448 -28 -104 -96 -243 -159
-325 -27 -36 -180 -193 -338 -350 -256 -253 -299 -291 -374 -333 -156 -87
-362 -136 -515 -122 -281 26 -513 152 -674 366 -248 329 -248 780 -1 1107 76
100 578 597 655 649 86 58 148 87 246 117 152 46 321 54 464 21z m1877 15
c149 -17 286 -68 413 -153 67 -44 582 -550 651 -639 339 -436 216 -1071 -262
-1356 -308 -183 -707 -166 -999 43 -33 24 -189 173 -347 332 -343 345 -386
405 -450 621 -19 66 -23 100 -23 232 0 168 9 218 65 357 83 206 256 387 462
482 162 75 317 101 490 81z m-915 -1800 c63 -129 119 -240 126 -246 7 -6 141
-74 299 -150 158 -76 287 -142 288 -145 0 -3 -134 -71 -297 -151 l-298 -146
-140 -292 c-77 -160 -143 -293 -146 -295 -3 -3 -71 129 -150 292 l-144 297
-300 147 -300 147 302 148 302 148 25 55 c14 31 78 165 143 299 l118 242 29
-57 c16 -32 81 -164 143 -293z m-4826 46 l144 -294 300 -147 300 -147 -300
-147 -300 -147 -80 -164 c-44 -91 -110 -225 -147 -300 l-66 -135 -148 302
-148 302 -80 37 c-45 21 -179 86 -299 145 l-218 108 299 146 299 147 144 293
c79 162 147 294 150 295 3 0 71 -132 150 -294z m-2335 -306 c98 -48 97 -178
-1 -224 -50 -24 -99 -14 -143 30 -33 33 -34 37 -30 89 5 63 32 100 82 114 44
13 46 13 92 -9z m4469 -2 c89 -58 84 -178 -10 -222 -50 -24 -99 -14 -143 30
-33 33 -34 37 -30 89 5 63 32 100 82 114 49 14 64 13 101 -11z m329 8 c71 -29
102 -108 69 -173 -51 -98 -186 -90 -229 14 -27 63 13 142 82 163 40 12 41 12
78 -4z m4527 -25 c34 -34 39 -44 39 -86 0 -42 -5 -52 -40 -87 -39 -39 -42 -40
-92 -36 -44 5 -57 11 -86 43 -32 34 -34 41 -30 86 8 76 53 117 132 118 32 1
45 -6 77 -38z m-9305 -337 c26 -17 54 -72 54 -104 0 -78 -83 -141 -159 -120
-114 31 -125 188 -17 236 35 16 87 10 122 -12z m4460 0 c26 -17 54 -72 54
-104 0 -78 -83 -141 -159 -120 -114 31 -125 188 -17 236 35 16 87 10 122 -12z
m361 -19 c52 -55 55 -104 12 -160 -33 -41 -81 -58 -128 -45 -117 31 -128 186
-16 236 45 21 95 9 132 -31z m4461 31 c60 -33 82 -128 41 -180 -45 -58 -114
-71 -170 -33 -40 27 -59 60 -59 106 0 38 33 94 65 110 29 14 96 13 123 -3z
m-8313 -26 c93 -25 200 -73 282 -126 32 -21 187 -166 346 -323 316 -313 378
-391 437 -542 50 -129 64 -207 63 -354 -1 -98 -6 -149 -21 -207 -85 -317 -309
-557 -612 -656 -98 -33 -164 -43 -281 -43 -189 0 -356 50 -508 151 -65 44
-156 129 -372 347 -157 158 -299 308 -316 333 -50 74 -101 184 -130 277 -24
79 -27 103 -27 243 0 130 3 169 22 238 47 173 126 306 260 433 140 134 319
224 498 248 100 14 266 5 359 -19z m2837 1 c314 -81 559 -309 656 -611 31 -98
42 -172 42 -296 0 -170 -43 -322 -137 -478 -55 -93 -600 -639 -714 -716 -399
-267 -951 -174 -1241 210 -224 295 -247 703 -60 1024 39 68 94 128 342 379
162 165 323 319 357 343 112 81 260 140 411 164 83 13 255 4 344 -19z m1889
14 c169 -29 300 -88 432 -195 119 -96 567 -556 620 -637 101 -152 145 -288
154 -468 9 -185 -16 -302 -98 -468 -199 -404 -685 -598 -1121 -448 -168 58
-234 109 -574 453 -310 313 -351 364 -413 518 -47 118 -64 233 -58 380 9 209
70 372 201 536 205 256 540 385 857 329z m2843 0 c369 -64 649 -322 743 -684
34 -132 36 -307 3 -436 -26 -105 -80 -226 -141 -316 -51 -77 -502 -535 -613
-625 -172 -138 -358 -204 -573 -205 -373 -1 -689 199 -843 535 -146 317 -100
685 118 957 87 108 566 578 641 628 195 132 439 185 665 146z m-6461 -2084
c28 -28 32 -38 32 -87 0 -51 -3 -58 -37 -90 -30 -27 -46 -34 -79 -34 -77 0
-129 52 -129 130 0 36 6 48 40 82 38 39 42 40 91 36 40 -4 58 -12 82 -37z
m349 0 c53 -59 50 -130 -8 -180 -40 -36 -95 -41 -144 -16 -56 29 -78 117 -43
176 39 67 144 77 195 20z m4428 24 c56 -29 78 -99 51 -161 -46 -102 -190 -96
-230 10 -40 104 78 203 179 151z m354 -4 c38 -26 55 -57 56 -104 1 -97 -95
-157 -180 -114 -34 17 -70 74 -70 112 0 38 36 95 70 112 37 19 91 16 124 -6z"/>
<path d="M1347 9023 l-37 -38 97 -97 98 -98 -98 -98 -97 -98 40 -39 40 -39 98
97 97 97 97 -97 98 -97 40 39 40 39 -97 98 -98 98 98 98 97 98 -40 39 -40 39
-98 -97 -97 -97 -95 95 c-52 52 -97 95 -100 95 -3 0 -22 -17 -43 -37z"/>
<path d="M585 8270 l-39 -40 97 -98 97 -97 -97 -97 -97 -98 39 -40 39 -40 98
97 98 98 98 -98 98 -97 39 40 39 40 -97 98 -97 97 97 97 97 98 -39 40 -39 40
-98 -97 -98 -98 -98 98 -98 97 -39 -40z"/>
<path d="M3002 9027 c-18 -18 -32 -37 -32 -43 0 -5 43 -52 95 -104 l95 -95
-97 -97 -98 -98 38 -37 37 -38 98 98 97 97 95 -95 c52 -52 99 -95 105 -95 6 0
26 16 45 35 l34 35 -99 101 -100 100 99 95 99 95 -39 40 -38 39 -98 -97 -98
-98 -98 98 c-53 53 -100 97 -103 97 -3 0 -19 -15 -37 -33z"/>
<path d="M3757 8272 l-38 -39 95 -97 c53 -53 96 -100 96 -104 0 -4 -43 -50
-95 -102 l-95 -94 37 -38 37 -38 96 95 c52 52 98 95 102 95 3 0 50 -43 104
-95 l99 -94 38 37 37 36 -95 96 c-52 52 -95 100 -95 105 0 6 41 51 90 100 50
49 90 94 90 100 0 6 -15 25 -33 43 l-33 32 -94 -95 c-52 -52 -99 -95 -105 -95
-5 0 -53 43 -105 95 l-96 95 -37 -38z"/>
<path d="M6156 9021 l-38 -39 97 -97 97 -97 -98 -99 -98 -99 34 -35 c19 -19
37 -35 42 -35 4 0 50 43 103 95 l95 95 95 -95 c52 -52 98 -95 103 -95 4 0 23
16 42 35 l34 35 -98 99 -98 99 97 97 97 97 -38 39 -38 39 -98 -97 -98 -98 -98
98 -98 97 -38 -39z"/>
<path d="M5395 8270 l-39 -40 97 -98 97 -97 -97 -97 -97 -98 39 -40 39 -40 98
97 98 98 98 -98 98 -97 39 40 39 40 -97 98 -97 97 97 97 97 98 -39 40 -39 40
-98 -97 -98 -98 -98 98 -98 97 -39 -40z"/>
<path d="M7807 9023 l-37 -38 97 -97 98 -98 -98 -98 -97 -98 40 -39 40 -39 98
97 97 97 97 -97 98 -97 35 34 c19 19 35 39 35 44 0 6 -42 52 -92 103 l-93 93
98 98 97 98 -40 39 -40 39 -98 -97 -97 -97 -95 95 c-52 52 -97 95 -100 95 -3
0 -22 -17 -43 -37z"/>
<path d="M8565 8270 l-39 -40 97 -98 97 -97 -97 -97 -97 -98 39 -40 39 -40 98
97 98 98 98 -98 98 -97 39 40 39 40 -97 98 -97 97 97 97 97 98 -39 40 -39 40
-98 -97 -98 -98 -98 98 -98 97 -39 -40z"/>
<path d="M590 6615 l-34 -35 97 -98 97 -97 -95 -95 c-52 -52 -95 -99 -95 -105
0 -6 16 -26 35 -45 l35 -34 100 99 100 100 98 -98 97 -97 38 37 37 38 -97 97
-98 98 100 100 99 100 -34 35 c-19 19 -39 35 -45 35 -6 0 -53 -43 -105 -95
l-95 -95 -95 95 c-52 52 -98 95 -101 95 -3 0 -20 -16 -39 -35z"/>
<path d="M1347 5863 l-37 -38 97 -97 98 -98 -100 -100 -100 -100 40 -40 40
-40 100 100 100 100 97 -97 98 -98 37 38 38 37 -93 93 c-50 51 -92 97 -92 102
0 5 43 53 95 105 l95 96 -40 39 -40 39 -100 -99 -100 -100 -98 98 -97 97 -38
-37z"/>
<path d="M3757 6613 l-37 -38 97 -97 98 -98 -98 -98 -97 -98 40 -39 40 -39 98
97 97 97 97 -97 98 -97 40 39 40 39 -97 98 -98 98 98 98 97 98 -40 39 -40 39
-98 -97 -97 -97 -95 95 c-52 52 -97 95 -100 95 -3 0 -22 -17 -43 -37z"/>
<path d="M2997 5863 l-37 -38 97 -97 98 -98 -100 -100 -99 -100 39 -40 39 -40
96 95 c52 52 100 95 105 95 5 0 51 -42 102 -92 l93 -93 37 38 38 37 -98 98
-97 97 100 100 100 100 -40 40 -40 40 -100 -100 -100 -100 -98 98 -97 97 -38
-37z"/>
<path d="M5402 6617 c-18 -18 -32 -37 -32 -42 0 -5 42 -51 92 -102 l93 -93
-98 -98 -97 -98 40 -39 40 -39 98 97 97 97 97 -97 98 -97 40 39 40 39 -97 98
-98 98 98 98 97 98 -40 39 -40 39 -98 -97 -97 -97 -95 95 c-52 52 -97 95 -100
95 -3 0 -20 -15 -38 -33z"/>
<path d="M6155 5860 l-39 -40 97 -98 97 -97 -97 -97 -97 -98 39 -40 39 -40 98
97 98 98 98 -98 98 -97 39 40 39 40 -97 98 -97 97 97 97 97 98 -39 40 -39 40
-98 -97 -98 -98 -98 98 -98 97 -39 -40z"/>
<path d="M8562 6617 c-18 -18 -32 -37 -32 -42 0 -5 42 -51 92 -102 l93 -93
-98 -98 -97 -98 40 -39 40 -39 98 97 97 97 97 -97 98 -97 40 39 40 39 -97 98
-98 98 98 98 97 98 -40 39 -40 39 -98 -97 -97 -97 -95 95 c-52 52 -97 95 -100
95 -3 0 -20 -15 -38 -33z"/>
<path d="M7797 5862 l-37 -38 100 -99 100 -100 -97 -97 -98 -98 38 -37 37 -38
93 93 c51 50 97 92 102 92 6 0 51 -40 100 -90 49 -49 94 -90 100 -90 6 0 26
16 45 35 l34 35 -99 100 -100 100 98 98 97 97 -37 38 -38 37 -97 -97 -98 -98
-98 98 c-53 53 -100 97 -103 97 -3 0 -22 -17 -42 -38z"/>
<path d="M1347 4213 l-37 -38 97 -97 98 -98 -98 -98 -97 -98 40 -39 40 -39 98
97 97 97 97 -97 98 -97 40 39 40 39 -97 98 -98 98 98 98 97 98 -40 39 -40 39
-98 -97 -97 -97 -95 95 c-52 52 -97 95 -100 95 -3 0 -22 -17 -43 -37z"/>
<path d="M585 3460 l-39 -40 97 -98 97 -97 -97 -97 -97 -98 39 -40 39 -40 98
97 98 98 98 -98 98 -97 39 40 39 40 -97 98 -97 97 97 97 97 98 -39 40 -39 40
-98 -97 -98 -98 -98 98 -98 97 -39 -40z"/>
<path d="M3002 4217 c-18 -18 -32 -37 -32 -43 0 -5 43 -52 95 -104 l95 -95
-97 -97 -98 -98 38 -37 37 -38 98 98 97 97 95 -95 c52 -52 99 -95 105 -95 6 0
26 16 45 35 l34 35 -99 101 -100 100 99 95 100 94 -39 40 -39 40 -98 -97 -98
-98 -98 98 c-53 53 -100 97 -103 97 -3 0 -19 -15 -37 -33z"/>
<path d="M3756 3461 l-38 -39 96 -96 c53 -53 96 -99 96 -103 0 -4 -43 -51 -95
-103 l-95 -96 38 -37 38 -37 94 95 c52 52 98 95 102 95 4 0 51 -43 105 -95
l97 -95 38 37 38 37 -95 96 c-52 52 -95 100 -95 105 0 6 41 51 90 100 50 49
90 94 90 100 0 6 -15 25 -33 43 l-33 32 -94 -95 c-52 -52 -99 -95 -105 -95 -5
0 -53 43 -105 95 l-96 95 -38 -39z"/>
<path d="M6156 4211 l-38 -39 97 -97 97 -97 -98 -99 -98 -99 34 -35 c19 -19
38 -35 42 -35 5 0 51 43 103 95 l95 95 95 -95 c53 -52 99 -95 103 -95 5 0 23
16 42 35 l34 35 -98 99 -98 99 97 97 97 97 -38 39 -38 39 -98 -97 -98 -98 -98
98 -98 97 -38 -39z"/>
<path d="M5395 3460 l-39 -40 97 -98 97 -97 -97 -97 -97 -98 39 -40 39 -40 98
97 98 98 98 -98 98 -97 39 40 39 40 -97 98 -97 97 97 97 97 98 -39 40 -39 40
-98 -97 -98 -98 -98 98 -98 97 -39 -40z"/>
<path d="M7807 4213 l-37 -38 97 -97 98 -98 -98 -98 -97 -98 40 -39 40 -39 98
97 97 97 97 -97 98 -97 35 34 c19 19 35 39 35 44 0 6 -42 52 -92 103 l-93 93
98 98 97 98 -40 39 -40 39 -98 -97 -97 -97 -95 95 c-52 52 -97 95 -100 95 -3
0 -22 -17 -43 -37z"/>
<path d="M8565 3460 l-39 -40 97 -98 97 -97 -97 -97 -97 -98 39 -40 39 -40 98
97 98 98 98 -98 98 -97 39 40 39 40 -97 98 -97 97 97 97 97 98 -39 40 -39 40
-98 -97 -98 -98 -98 98 -98 97 -39 -40z"/>
<path d="M590 1805 l-34 -35 97 -98 97 -97 -95 -95 c-52 -52 -95 -99 -95 -105
0 -6 16 -26 35 -45 l35 -34 100 99 100 100 98 -98 97 -97 38 37 37 38 -97 97
-98 98 100 100 99 100 -34 35 c-19 19 -39 35 -45 35 -6 0 -53 -43 -105 -95
l-95 -95 -95 95 c-52 52 -98 95 -101 95 -3 0 -20 -16 -39 -35z"/>
<path d="M1347 1053 l-37 -38 97 -97 98 -98 -100 -100 -100 -100 40 -40 40
-40 100 100 100 100 97 -97 98 -98 37 38 38 37 -93 93 c-50 51 -92 97 -92 102
0 5 43 53 95 105 l95 96 -40 39 -40 39 -100 -99 -100 -100 -98 98 -97 97 -38
-37z"/>
<path d="M3757 1803 l-37 -38 97 -97 98 -98 -98 -98 -97 -98 40 -39 40 -39 98
97 97 97 97 -97 98 -97 40 39 40 39 -97 98 -98 98 98 98 97 98 -40 39 -40 39
-98 -97 -97 -97 -95 95 c-52 52 -97 95 -100 95 -3 0 -22 -17 -43 -37z"/>
<path d="M2997 1053 l-37 -38 97 -97 98 -98 -100 -100 -99 -100 34 -35 c19
-19 39 -35 45 -35 6 0 51 40 100 90 49 50 94 90 100 90 5 0 51 -42 102 -92
l93 -93 37 38 38 37 -93 93 c-50 51 -92 97 -92 102 0 5 43 53 95 105 l95 96
-40 39 -40 39 -100 -99 -100 -100 -98 98 -97 97 -38 -37z"/>
<path d="M5397 1803 l-37 -38 97 -97 98 -98 -98 -98 -97 -98 40 -39 40 -39 98
97 97 97 97 -97 98 -97 40 39 40 39 -97 98 -98 98 98 98 97 98 -40 39 -40 39
-98 -97 -97 -97 -95 95 c-52 52 -97 95 -100 95 -3 0 -22 -17 -43 -37z"/>
<path d="M6155 1050 l-39 -40 97 -98 97 -97 -97 -97 -97 -98 39 -40 39 -40 98
97 98 98 98 -98 98 -97 39 40 39 40 -97 98 -97 97 97 97 97 98 -39 40 -39 40
-98 -97 -98 -98 -98 98 -98 97 -39 -40z"/>
<path d="M8557 1803 l-37 -38 97 -97 98 -98 -98 -98 -97 -98 40 -39 40 -39 98
97 97 97 97 -97 98 -97 40 39 40 39 -97 98 -98 98 98 98 97 98 -40 39 -40 39
-98 -97 -97 -97 -95 95 c-52 52 -97 95 -100 95 -3 0 -22 -17 -43 -37z"/>
<path d="M7797 1052 l-37 -38 100 -99 100 -100 -97 -97 -98 -98 38 -37 37 -38
93 93 c51 50 97 92 102 92 6 0 51 -40 100 -90 49 -49 94 -90 100 -90 6 0 26
16 45 35 l34 35 -99 100 -100 100 98 98 97 97 -37 38 -38 37 -97 -97 -98 -98
-98 98 c-53 53 -100 97 -103 97 -3 0 -22 -17 -42 -38z"/>
</g>
</svg>
