<?xml version="1.0" standalone="no"?>
<!DOCTYPE svg PUBLIC "-//W3C//DTD SVG 20010904//EN"
 "http://www.w3.org/TR/2001/REC-SVG-20010904/DTD/svg10.dtd">
<svg version="1.0" xmlns="http://www.w3.org/2000/svg"
 width="960.000000pt" height="960.000000pt" viewBox="0 0 960.000000 960.000000"
 preserveAspectRatio="xMidYMid meet">

<g transform="translate(0.000000,960.000000) scale(0.100000,-0.100000)"
fill="#000000" stroke="none">
<path d="M305 9573 c-32 -155 -113 -243 -251 -274 l-54 -12 0 -889 0 -888 24
0 c53 0 129 -35 181 -82 70 -64 98 -129 99 -228 1 -67 -3 -82 -33 -138 -19
-35 -52 -77 -73 -94 -45 -35 -125 -68 -168 -68 l-30 0 0 -888 0 -888 59 -12
c36 -8 81 -27 111 -47 29 -19 53 -35 55 -35 2 0 20 39 40 88 159 379 199 950
101 1434 -25 120 -74 286 -102 341 -8 15 -13 27 -12 27 2 0 191 -188 420 -417
l418 -418 -68 -1 c-122 -2 -245 -55 -229 -98 17 -42 190 -91 286 -79 l47 5 1
-93 c0 -73 5 -107 22 -151 28 -71 53 -103 74 -95 42 16 99 207 82 275 -4 19
112 -91 394 -373 220 -219 399 -400 398 -401 -1 -1 -47 13 -102 31 -510 167
-1222 147 -1692 -47 -72 -30 -86 -45 -59 -67 8 -6 24 -35 36 -63 43 -101 26
-221 -46 -315 -32 -42 -114 -89 -181 -104 l-53 -12 0 -889 0 -888 24 0 c53 0
129 -35 181 -82 70 -64 98 -129 99 -228 1 -67 -3 -82 -33 -138 -19 -35 -52
-77 -73 -94 -45 -35 -125 -68 -168 -68 l-30 0 0 -889 0 -888 60 -12 c37 -7 79
-25 111 -47 40 -27 54 -32 61 -22 4 7 26 59 48 116 147 379 181 926 86 1395
-25 119 -74 282 -103 342 -8 17 175 -159 406 -390 232 -231 421 -420 421 -420
0 0 -30 0 -68 -1 -122 -2 -245 -55 -229 -98 17 -43 199 -92 295 -79 l44 6 -6
-59 c-4 -32 -2 -83 4 -113 13 -70 54 -159 76 -168 41 -16 96 115 98 232 l1 65
408 -408 c224 -224 407 -407 407 -408 0 -1 -51 16 -112 37 -285 97 -672 138
-1025 108 -286 -23 -566 -88 -720 -167 l-34 -18 21 -26 c25 -32 45 -87 54
-150 l7 -48 893 0 894 0 7 47 c17 118 102 224 206 258 186 62 389 -74 401
-267 l2 -38 892 0 891 0 7 56 c6 54 34 122 63 155 12 15 5 20 -69 51 -469 199
-1225 210 -1719 24 -49 -18 -89 -33 -89 -32 0 1 189 190 421 421 379 378 421
416 415 385 -13 -81 39 -261 80 -277 46 -17 100 123 98 253 l-1 82 81 -1 c122
-1 262 49 254 90 -9 46 -174 102 -264 89 -24 -3 -44 -5 -44 -3 0 1 196 198
435 437 394 393 434 430 414 385 -186 -433 -221 -1088 -85 -1600 32 -120 84
-255 101 -261 7 -3 31 6 53 21 45 29 120 55 163 55 58 0 131 -23 181 -56 28
-19 52 -33 53 -32 10 12 47 96 69 156 135 376 163 915 72 1365 -25 119 -74
282 -103 342 -8 17 175 -159 406 -390 232 -231 421 -420 421 -420 0 0 -30 0
-68 -1 -122 -2 -245 -55 -229 -98 17 -43 199 -92 295 -79 l44 6 -6 -59 c-4
-32 -2 -83 4 -113 13 -70 54 -159 76 -168 41 -16 96 115 98 232 l1 65 408
-408 c224 -224 407 -407 407 -408 0 -1 -51 16 -112 37 -285 97 -672 138 -1025
108 -285 -23 -566 -89 -719 -167 l-34 -17 24 -35 c26 -39 41 -84 51 -147 l7
-43 893 0 893 0 7 48 c17 117 102 223 206 257 186 62 389 -74 401 -267 l2 -38
892 0 891 0 7 56 c6 54 34 122 63 155 12 15 5 20 -69 51 -470 200 -1225 210
-1720 24 l-91 -34 419 419 c230 230 420 419 422 419 2 0 1 -17 -2 -38 -13 -78
39 -253 80 -269 45 -17 99 122 98 253 l0 82 80 -1 c122 -1 262 49 254 90 -9
46 -171 101 -265 90 l-46 -5 439 439 c241 241 440 439 442 439 1 0 -8 -21 -22
-47 -104 -207 -176 -591 -176 -938 0 -217 33 -481 85 -672 27 -102 82 -250 95
-258 5 -3 25 6 46 20 21 14 61 32 91 41 l53 15 0 887 0 887 -58 17 c-157 46
-247 222 -196 384 14 45 31 72 74 115 50 51 86 71 168 95 9 3 12 191 12 899
l0 895 -22 0 c-27 0 -106 35 -130 57 -10 9 -19 14 -21 12 -2 -2 -17 -35 -34
-74 -195 -441 -216 -1196 -48 -1696 19 -56 34 -104 32 -105 -2 -2 -187 182
-412 408 -294 294 -402 409 -383 404 72 -16 259 39 275 81 18 46 -113 97 -247
97 l-86 0 0 86 c0 132 -53 264 -98 247 -40 -15 -96 -207 -80 -274 5 -21 -104
82 -405 382 -226 225 -411 411 -411 412 0 1 36 -11 79 -27 477 -174 1204 -170
1667 11 141 55 140 54 104 108 -38 56 -50 100 -50 181 0 64 32 157 59 174 26
17 5 36 -75 70 -464 194 -1214 205 -1707 25 l-82 -29 410 410 c225 225 411
410 413 410 2 0 1 -17 -3 -38 -14 -85 47 -267 90 -267 48 0 104 180 90 284
l-7 48 94 1 c71 0 107 5 150 21 106 41 122 71 56 111 -45 27 -170 54 -225 47
l-46 -5 439 439 c241 241 440 439 442 439 1 0 -7 -18 -18 -39 -105 -207 -180
-597 -180 -944 0 -212 34 -487 85 -674 28 -106 82 -250 96 -259 6 -3 18 1 27
9 25 21 92 53 130 62 l32 7 0 886 0 887 -58 17 c-157 46 -247 222 -196 384 14
45 31 72 74 115 50 51 86 71 168 95 9 3 12 191 12 899 l0 895 -22 0 c-27 0
-122 43 -132 59 -15 23 -26 8 -65 -93 -190 -485 -201 -1189 -27 -1695 14 -41
25 -76 23 -77 -2 -2 -186 180 -410 404 l-407 407 73 2 c77 2 168 29 209 63 19
15 21 22 12 37 -30 48 -175 89 -278 78 l-58 -6 7 50 c13 96 -31 256 -79 285
-40 25 -97 -105 -100 -231 l-1 -63 -412 412 c-227 227 -411 414 -409 415 2 2
33 -8 69 -22 430 -161 1072 -178 1552 -39 102 29 255 92 255 105 0 4 -11 25
-25 45 -27 40 -45 94 -45 137 l0 27 -897 -2 -898 -3 -6 -47 c-23 -160 -188
-278 -347 -248 -135 25 -228 113 -253 242 l-12 58 -893 0 -894 0 -5 -27 c-24
-116 -66 -184 -144 -230 -82 -49 -145 -60 -228 -39 -37 9 -84 27 -105 41 -21
14 -39 25 -42 25 -6 0 -46 -96 -73 -175 -157 -459 -162 -1121 -13 -1579 22
-66 38 -121 37 -123 -2 -1 -186 181 -410 405 l-407 407 73 2 c77 2 168 29 209
63 19 15 21 22 12 37 -30 48 -175 89 -278 78 l-58 -6 7 50 c13 96 -31 256 -79
285 -40 25 -97 -105 -100 -231 l-1 -63 -412 412 c-227 227 -411 414 -409 415
2 2 33 -8 69 -22 430 -161 1076 -178 1554 -39 100 29 253 92 253 105 0 4 -11
25 -25 45 -27 40 -45 94 -45 137 l0 27 -897 -2 -898 -3 -6 -47 c-23 -160 -188
-278 -347 -248 -135 25 -228 113 -253 242 l-12 58 -893 0 -894 0 -5 -27z m14
-228 c444 -188 1184 -205 1680 -39 57 19 105 33 107 31 2 -1 -176 -182 -395
-401 l-399 -399 -7 64 c-9 84 -33 161 -61 196 -19 23 -26 26 -41 17 -48 -29
-90 -186 -77 -285 l7 -50 -59 6 c-109 12 -284 -44 -284 -90 0 -33 108 -77 220
-90 30 -4 56 -8 57 -9 1 -1 -180 -184 -403 -406 -224 -223 -404 -398 -401
-390 109 297 160 601 156 929 -4 343 -63 669 -165 899 -12 28 -22 52 -21 52 2
0 40 -16 86 -35z m4820 0 c444 -188 1184 -205 1680 -39 57 19 105 33 107 31 2
-1 -176 -182 -395 -401 l-399 -399 -7 64 c-9 84 -33 161 -61 196 -19 23 -26
26 -41 17 -48 -29 -90 -186 -77 -285 l7 -50 -59 6 c-109 12 -284 -44 -284 -90
0 -38 153 -92 265 -95 14 0 -104 -124 -385 -405 -222 -222 -405 -403 -407
-401 -2 1 7 29 20 62 191 491 178 1304 -29 1772 -12 28 -22 52 -21 52 2 0 40
-16 86 -35z m-2996 -92 c-138 -364 -177 -870 -103 -1328 25 -150 59 -279 109
-406 21 -55 38 -99 36 -99 -1 0 -32 14 -69 30 -205 93 -585 160 -904 160 -300
0 -675 -62 -861 -142 -24 -10 -45 -17 -47 -15 -2 1 182 188 409 415 l412 412
1 -69 c1 -120 56 -254 98 -238 43 17 92 187 80 283 l-6 51 84 0 c120 -1 258
47 258 88 0 42 -174 102 -269 92 l-44 -5 419 419 c230 230 420 419 421 419 1
0 -9 -30 -24 -67z m4820 0 c-190 -503 -185 -1266 12 -1750 18 -46 32 -83 31
-83 -2 0 -33 14 -70 30 -205 93 -585 160 -904 160 -303 0 -670 -61 -861 -142
-24 -10 -45 -17 -47 -15 -2 1 182 188 409 415 l412 412 1 -69 c1 -120 56 -254
98 -238 43 17 92 187 80 283 l-6 51 84 0 c120 -1 258 47 258 88 0 43 -177 103
-270 91 l-45 -6 420 420 c231 231 421 420 422 420 1 0 -9 -30 -24 -67z m-3574
-770 c-125 -17 -210 -59 -196 -97 16 -41 171 -86 273 -80 l61 4 1 -92 c0 -71
5 -107 21 -150 27 -71 52 -103 74 -95 39 15 97 196 84 262 -2 14 -1 25 2 25 3
0 191 -185 416 -411 397 -397 408 -409 355 -388 -226 90 -569 149 -870 149
-215 0 -492 -35 -680 -85 -95 -26 -267 -90 -284 -106 -5 -5 1 -24 16 -46 36
-55 51 -109 50 -180 -1 -67 -27 -141 -64 -180 l-20 -22 48 -24 c70 -35 180
-73 292 -101 497 -123 1087 -93 1527 79 11 4 -160 -173 -380 -394 l-400 -401
-12 81 c-14 86 -47 165 -76 183 -45 27 -100 -112 -100 -252 l0 -83 -56 7
c-110 12 -288 -48 -279 -94 7 -35 99 -71 222 -87 l49 -7 -393 -393 c-217 -217
-396 -393 -397 -391 -2 2 8 34 22 72 181 480 162 1275 -41 1722 l-33 73 -34
-25 c-93 -71 -246 -76 -341 -11 -20 14 -41 25 -45 25 -9 0 -50 -93 -81 -185
-160 -468 -154 -1170 14 -1620 l27 -70 -406 405 c-223 223 -405 405 -405 405
0 0 27 1 60 2 101 3 230 52 230 88 0 46 -169 102 -279 91 l-64 -7 6 48 c13 98
-35 273 -79 290 -41 16 -94 -103 -97 -221 -1 -35 -3 -63 -4 -62 -11 8 -813
810 -813 812 0 1 26 -8 58 -21 129 -52 384 -106 587 -123 409 -36 866 22 1152
145 l82 35 -27 42 c-45 65 -57 106 -56 181 2 248 282 390 482 245 l42 -30 14
29 c26 49 65 159 91 256 127 466 109 1096 -44 1515 -17 46 -31 86 -31 89 0 3
185 -179 410 -404 l410 -410 -91 -12z m4820 0 c-125 -17 -210 -59 -196 -97 16
-42 171 -86 276 -80 l64 5 -7 -58 c-10 -98 37 -263 81 -280 36 -14 87 97 100
216 l8 71 410 -410 c396 -397 408 -410 355 -389 -221 89 -569 149 -870 149
-215 0 -492 -35 -680 -85 -95 -26 -267 -90 -284 -106 -5 -5 1 -24 16 -46 36
-55 51 -109 50 -180 -1 -67 -27 -141 -64 -180 l-20 -22 48 -24 c70 -35 180
-73 292 -101 497 -123 1087 -93 1527 79 11 4 -160 -173 -380 -394 l-400 -401
-12 81 c-14 86 -47 165 -76 183 -45 27 -100 -112 -100 -252 l0 -83 -56 7
c-110 12 -288 -48 -279 -94 7 -35 99 -71 222 -87 l49 -7 -393 -393 c-217 -217
-396 -393 -397 -391 -2 2 8 34 22 72 181 480 161 1276 -41 1722 l-33 73 -34
-25 c-93 -71 -246 -76 -341 -11 -20 14 -41 25 -45 25 -9 0 -50 -93 -81 -185
-160 -468 -154 -1170 14 -1620 l27 -70 -406 405 c-223 223 -405 405 -405 405
0 0 27 1 60 2 101 3 230 52 230 88 0 46 -169 102 -279 91 l-64 -7 6 48 c13 98
-35 273 -79 290 -41 16 -94 -103 -97 -221 -1 -35 -3 -63 -4 -62 -11 8 -813
810 -813 812 0 1 26 -8 58 -21 129 -52 384 -106 587 -123 409 -36 866 22 1152
145 l82 35 -27 42 c-45 65 -57 105 -56 181 1 87 29 156 87 213 108 105 275
119 395 32 l42 -30 14 29 c26 49 65 159 91 256 128 467 109 1094 -44 1515 -17
46 -31 86 -31 89 0 3 185 -179 410 -404 l410 -410 -91 -12z m-3289 -990 c70
-23 150 -96 181 -165 17 -39 23 -73 23 -128 1 -67 -3 -82 -33 -139 -98 -179
-325 -214 -490 -75 -71 59 -107 188 -81 292 40 167 231 270 400 215z m-341
-590 c-186 -425 -221 -1087 -85 -1598 28 -106 83 -252 97 -261 5 -3 30 8 55
24 202 135 473 -11 477 -257 1 -73 -27 -149 -77 -208 -32 -39 -131 -90 -190
-98 -54 -9 -157 17 -208 50 -21 14 -39 25 -42 25 -2 0 -18 -33 -34 -72 -111
-269 -163 -592 -157 -968 5 -295 38 -517 110 -731 19 -56 34 -104 32 -105 -2
-2 -187 182 -412 408 -298 298 -403 409 -383 404 70 -16 259 40 275 81 9 24
-38 60 -105 80 -35 11 -90 17 -145 17 l-88 0 6 48 c13 94 -31 253 -79 282 -40
25 -97 -106 -100 -231 0 -35 -1 -63 -1 -63 0 0 -185 185 -410 410 l-410 410
82 -29 c429 -157 1062 -172 1531 -37 64 19 152 50 196 70 78 36 78 36 62 58
-42 60 -59 106 -64 173 -5 81 8 137 43 189 14 20 25 41 25 45 0 5 -39 25 -86
45 -463 194 -1215 205 -1705 26 -43 -16 -79 -28 -79 -27 0 1 183 185 408 410
l407 407 2 -77 c2 -118 56 -246 97 -230 22 9 63 98 76 168 6 30 8 79 5 110
l-7 56 94 1 c71 0 107 5 150 21 106 41 122 71 56 111 -45 27 -170 54 -225 47
l-46 -5 434 434 c239 239 435 434 436 434 1 0 -7 -21 -18 -47z m913 -400 l418
-418 -68 -1 c-122 -2 -245 -55 -229 -98 17 -42 190 -91 286 -79 l47 5 1 -93
c0 -73 5 -107 22 -151 28 -71 53 -103 74 -95 42 16 99 207 82 275 -4 19 112
-91 394 -373 220 -219 399 -400 398 -401 -1 -1 -47 13 -102 31 -512 168 -1254
146 -1704 -52 -30 -13 -56 -21 -58 -19 -3 2 4 21 15 43 134 264 201 780 157
1210 -23 227 -86 497 -141 606 -8 15 -13 27 -12 27 2 0 191 -188 420 -417z
m-2958 -1414 c68 -32 113 -76 146 -143 76 -154 17 -331 -136 -409 -152 -78
-344 -8 -417 152 -29 63 -29 177 0 242 71 157 256 229 407 158z m4820 0 c68
-32 113 -76 146 -143 76 -154 17 -331 -136 -409 -152 -78 -344 -8 -417 152
-29 63 -29 177 0 242 71 157 256 229 407 158z m-6947 -577 c278 -96 668 -139
1013 -113 243 18 499 69 634 126 21 9 40 15 42 13 2 -2 -174 -181 -390 -397
l-393 -393 -7 63 c-14 125 -62 230 -99 216 -46 -17 -95 -199 -81 -295 l6 -43
-58 6 c-109 12 -284 -44 -284 -90 0 -35 123 -84 223 -88 31 -1 57 -4 57 -7 0
-3 -182 -187 -405 -410 -223 -223 -405 -402 -405 -399 0 4 11 36 25 72 188
500 176 1282 -26 1755 -11 24 -19 45 -19 47 0 2 24 -6 53 -19 28 -13 80 -33
114 -44z m4820 0 c278 -96 668 -139 1013 -113 243 18 499 69 634 126 21 9 40
15 42 13 2 -2 -174 -181 -390 -397 l-393 -393 -7 63 c-14 125 -62 230 -99 216
-46 -17 -95 -199 -81 -295 l6 -43 -58 6 c-109 12 -284 -44 -284 -90 0 -35 123
-84 223 -88 31 -1 57 -4 57 -7 0 -3 -183 -187 -406 -410 -224 -223 -403 -396
-399 -385 3 11 15 43 25 70 183 490 168 1277 -31 1743 -11 24 -19 45 -19 47 0
2 24 -6 53 -19 28 -13 80 -33 114 -44z m-3070 -19 c-41 -81 -96 -288 -121
-453 -25 -164 -35 -321 -30 -500 7 -332 50 -574 143 -811 21 -54 38 -99 36
-99 -1 0 -32 14 -69 30 -205 93 -585 160 -904 160 -303 0 -670 -61 -861 -142
-24 -10 -45 -17 -47 -15 -2 1 184 189 412 417 371 371 415 411 409 380 -14
-77 40 -261 81 -277 45 -17 98 116 97 248 l0 87 81 -1 c117 -1 256 47 256 88
0 43 -177 103 -270 91 l-45 -6 420 419 c230 231 421 419 423 417 2 -2 -3 -17
-11 -33z m4820 0 c-36 -71 -88 -253 -112 -393 -25 -143 -36 -268 -40 -440 -7
-355 41 -669 144 -931 21 -55 38 -99 36 -99 -1 0 -32 14 -69 30 -205 93 -585
160 -904 160 -303 0 -670 -61 -861 -142 -24 -10 -45 -17 -47 -15 -2 1 184 189
412 417 371 371 415 411 409 380 -14 -77 40 -261 81 -277 45 -17 98 116 97
248 l0 87 81 -1 c117 -1 256 47 256 88 0 43 -177 103 -270 91 l-45 -6 420 419
c230 231 421 419 423 417 2 -2 -3 -17 -11 -33z m-3497 -793 c0 -3 -30 -6 -65
-7 -119 -3 -238 -55 -222 -97 17 -43 197 -92 292 -79 l48 6 -6 -50 c-12 -102
35 -273 79 -290 40 -15 97 117 98 228 1 32 3 59 6 59 3 0 190 -185 415 -411
396 -396 408 -409 355 -388 -30 12 -106 37 -168 55 -480 142 -1140 118 -1576
-56 -54 -22 -99 -40 -101 -40 -2 0 13 37 32 83 194 459 204 1222 24 1717 -17
46 -31 86 -31 89 0 3 185 -179 410 -404 226 -225 410 -412 410 -415z m4820 0
c0 -3 -30 -6 -65 -7 -119 -3 -238 -55 -222 -97 17 -43 197 -92 292 -79 l48 6
-6 -50 c-12 -102 35 -273 79 -290 41 -16 95 109 98 224 0 35 3 63 6 63 3 0
190 -185 415 -411 396 -396 408 -409 355 -388 -221 89 -569 149 -870 149 -215
0 -492 -35 -680 -85 -90 -25 -266 -89 -283 -104 -4 -4 9 -39 29 -77 31 -60 36
-80 36 -140 0 -76 -24 -148 -64 -191 l-20 -22 48 -24 c265 -133 752 -203 1167
-166 231 20 531 84 628 135 17 8 33 14 35 12 2 -2 -176 -183 -395 -402 l-398
-398 -7 58 c-14 124 -62 225 -100 211 -43 -17 -92 -197 -80 -291 l7 -47 -59 6
c-113 13 -291 -46 -282 -93 7 -35 99 -71 222 -87 l49 -7 -393 -393 c-217 -217
-396 -393 -397 -391 -2 2 5 26 16 53 78 198 131 534 131 828 0 337 -64 689
-166 912 l-33 74 -34 -25 c-93 -71 -246 -76 -341 -11 -20 14 -40 25 -44 25
-13 -1 -72 -147 -106 -266 -135 -470 -121 -1101 34 -1527 l30 -82 -405 405
c-223 223 -405 405 -405 405 0 0 27 1 60 2 101 3 230 52 230 88 0 46 -169 102
-276 91 l-61 -6 1 87 c0 93 -20 174 -56 225 -26 38 -43 35 -72 -10 -31 -47
-45 -102 -49 -185 -1 -36 -3 -64 -4 -63 -38 31 -817 816 -805 811 517 -211
1368 -202 1834 21 l37 17 -29 42 c-44 63 -64 136 -56 202 28 240 292 362 484
223 49 -35 43 -41 97 98 177 459 180 1195 6 1672 -17 46 -31 86 -31 89 0 3
185 -179 410 -404 226 -225 410 -412 410 -415z m-5756 -1014 c65 -32 110 -80
144 -154 44 -97 26 -239 -40 -309 l-20 -22 48 -24 c263 -132 755 -203 1164
-167 263 23 442 63 655 145 11 4 -160 -173 -380 -394 l-400 -401 -12 81 c-14
86 -47 165 -76 183 -46 28 -101 -112 -100 -252 l1 -83 -57 6 c-110 13 -288
-47 -279 -93 7 -35 99 -71 222 -87 l49 -7 -393 -393 c-217 -217 -396 -393
-397 -391 -2 2 5 28 17 57 173 453 171 1204 -5 1661 -18 47 -41 100 -50 117
l-16 31 -33 -25 c-92 -70 -245 -75 -340 -10 -20 14 -39 25 -41 25 -10 0 -64
-119 -88 -195 -49 -150 -77 -290 -102 -504 -11 -97 -13 -384 -4 -501 17 -210
62 -436 120 -593 l29 -82 -405 405 c-223 223 -405 405 -405 405 0 0 27 1 60 2
101 3 230 52 230 88 0 46 -169 102 -276 91 l-61 -6 0 87 c1 133 -51 267 -96
250 -30 -11 -67 -104 -79 -193 -6 -46 -12 -83 -14 -82 -128 123 -808 808 -796
803 517 -211 1367 -202 1834 21 l37 17 -29 42 c-64 94 -75 201 -29 304 68 155
258 223 413 147z m2376 17 c70 -22 150 -96 181 -165 17 -40 23 -72 23 -128 0
-67 -4 -82 -34 -139 -96 -179 -324 -214 -489 -75 -71 59 -107 188 -81 292 40
167 231 270 400 215z"/>
</g>
</svg>
