<?xml version="1.0" standalone="no"?>
<!DOCTYPE svg PUBLIC "-//W3C//DTD SVG 20010904//EN"
 "http://www.w3.org/TR/2001/REC-SVG-20010904/DTD/svg10.dtd">
<svg version="1.0" xmlns="http://www.w3.org/2000/svg"
 width="960.000000pt" height="960.000000pt" viewBox="0 0 960.000000 960.000000"
 preserveAspectRatio="xMidYMid meet">

<g transform="translate(0.000000,960.000000) scale(0.100000,-0.100000)"
fill="#000000" stroke="none">
<path d="M224 9548 l-101 -51 -62 -131 -61 -131 0 -269 c0 -255 1 -272 21
-314 14 -27 23 -68 25 -110 l3 -66 39 3 c46 3 115 -14 149 -36 22 -15 23 -17
7 -34 -23 -26 -80 -42 -144 -42 l-55 1 0 -67 c0 -49 -6 -77 -23 -109 -21 -41
-22 -52 -22 -320 l0 -277 61 -126 61 -126 129 -64 c71 -35 129 -66 129 -69 0
-3 -58 -34 -129 -70 l-129 -64 -61 -126 -61 -126 0 -269 c0 -257 1 -271 22
-314 14 -30 23 -68 24 -109 l3 -63 63 -3 c63 -2 144 -31 142 -51 -4 -28 -55
-48 -131 -53 l-78 -4 0 -67 c0 -51 -6 -76 -23 -104 -21 -37 -22 -46 -21 -315
l0 -277 62 -123 62 -122 135 -66 135 -66 -136 -65 -137 -65 -61 -129 -61 -129
0 -275 c0 -263 1 -278 22 -318 15 -29 21 -62 22 -108 l1 -66 55 0 c65 0 121
-16 145 -43 16 -18 15 -20 -27 -41 -31 -16 -61 -23 -108 -23 l-65 -1 0 -65 c0
-47 -7 -78 -23 -111 -21 -44 -22 -56 -22 -321 l0 -276 61 -126 62 -127 133
-67 134 -67 -134 -67 -135 -67 -60 -127 -61 -127 0 -273 c0 -261 1 -274 21
-309 16 -27 22 -54 23 -106 l1 -69 54 0 c65 0 125 -17 147 -41 14 -16 14 -19
-9 -34 -35 -23 -84 -35 -142 -35 l-50 0 0 -63 c0 -43 -7 -76 -23 -108 -21 -43
-22 -57 -22 -318 l0 -273 61 -128 61 -128 132 -61 131 -61 283 0 c195 0 290 4
305 12 12 6 51 12 88 12 l67 1 4 71 c5 70 31 137 53 137 22 0 48 -67 53 -137
l4 -71 67 -1 c37 0 76 -6 88 -12 15 -8 113 -12 317 -12 l295 0 129 61 128 61
66 136 66 137 65 -135 65 -135 126 -62 126 -63 289 0 c234 0 295 3 324 15 20
8 63 15 95 15 l59 0 6 75 c5 75 29 135 54 135 23 0 46 -64 51 -137 l5 -73 59
0 c32 0 75 -7 95 -15 29 -12 90 -15 319 -15 l284 0 128 64 128 64 63 134 63
133 65 -136 65 -137 131 -61 132 -61 283 0 c195 0 290 4 305 12 12 6 51 12 88
12 l67 1 4 71 c5 69 31 139 53 139 22 0 48 -70 53 -139 l4 -71 67 -1 c37 0 76
-6 88 -12 15 -8 113 -12 317 -12 l295 0 129 61 128 61 66 136 66 137 65 -135
65 -135 126 -62 126 -63 289 0 c234 0 295 3 324 15 20 8 63 15 95 15 l59 0 5
73 c5 75 30 137 55 137 23 0 46 -64 51 -137 l5 -73 59 0 c32 0 75 -7 95 -15
29 -12 91 -15 334 -15 l298 0 119 56 118 56 52 104 52 104 0 309 c0 251 -3
321 -16 372 -9 35 -14 79 -11 99 l5 37 -57 0 c-65 0 -122 16 -145 42 -16 17
-15 19 8 35 34 22 120 39 159 32 l32 -6 1 68 c0 37 6 77 12 89 9 15 12 116 12
345 l0 323 -51 106 -51 106 -129 63 c-71 36 -129 67 -129 70 0 3 58 34 128 69
l129 64 51 104 52 103 0 304 c0 246 -3 316 -16 367 -9 36 -14 78 -10 100 l6
38 -34 -6 c-41 -6 -128 11 -162 33 -23 16 -24 18 -8 35 23 26 80 42 144 42
l55 0 1 66 c0 36 6 76 12 88 9 15 12 114 12 335 l0 313 -51 111 -51 112 -137
65 -136 65 135 65 135 66 53 106 52 105 0 301 c0 247 -3 311 -16 356 -10 35
-14 72 -10 99 l5 43 -33 -6 c-40 -6 -132 12 -164 33 -23 15 -23 16 -6 35 22
24 84 41 149 41 l50 1 1 66 c0 36 6 76 12 88 9 15 12 115 12 341 l0 319 -51
107 -51 107 -134 67 -134 67 136 68 135 68 50 102 49 102 0 313 c0 221 -3 320
-12 335 -6 12 -12 52 -12 88 l-1 67 -57 0 c-66 0 -119 15 -143 42 -16 17 -15
19 7 34 32 21 123 39 161 32 l32 -6 1 68 c0 37 6 77 12 89 9 15 12 116 12 342
l0 321 -52 103 -51 104 -104 51 -103 52 -311 0 c-257 0 -321 -3 -366 -16 -34
-10 -72 -14 -97 -11 l-42 6 0 -67 c0 -76 -32 -156 -58 -146 -24 9 -48 85 -49
150 l-1 61 -43 -5 c-25 -3 -63 2 -92 12 -42 13 -101 16 -365 16 l-316 0 -102
-52 -103 -51 -66 -136 -67 -136 -63 133 -63 134 -108 54 -108 54 -320 0 c-229
0 -328 -3 -343 -12 -12 -6 -51 -12 -87 -12 l-65 -1 0 -60 c0 -71 -28 -145 -56
-145 -25 0 -54 82 -53 151 l1 56 -43 -5 c-26 -3 -63 2 -93 12 -42 13 -101 16
-360 16 l-311 0 -104 -52 -104 -52 -66 -135 -65 -135 -66 135 -65 134 -102 52
-103 52 -310 0 c-258 1 -318 -2 -355 -15 -28 -10 -62 -14 -90 -11 l-45 5 -1
-66 c-1 -76 -33 -156 -59 -146 -23 9 -50 94 -49 155 l1 56 -43 -5 c-26 -3 -63
2 -93 12 -42 13 -101 16 -365 16 l-316 0 -104 -52 -105 -52 -64 -135 -64 -136
-64 133 -63 134 -108 54 -108 54 -320 0 c-229 0 -328 -3 -343 -12 -12 -6 -51
-12 -87 -12 l-65 -1 0 -60 c0 -71 -28 -145 -56 -145 -25 0 -54 82 -53 151 l1
56 -43 -5 c-26 -3 -63 2 -93 12 -42 13 -100 16 -363 15 l-313 0 -101 -51z
m616 -78 c119 -36 237 -122 299 -218 l31 -49 0 -216 0 -217 -72 76 c-164 173
-351 274 -509 274 -69 0 -89 -14 -96 -68 -21 -155 128 -429 310 -574 l49 -38
-219 0 -219 0 -48 30 c-103 65 -192 189 -230 319 -20 70 -21 205 0 284 46 176
191 335 359 392 104 35 236 37 345 5z m1055 -9 c168 -59 312 -220 354 -395 15
-63 15 -200 0 -262 -31 -125 -111 -246 -212 -318 l-65 -46 -215 0 -214 0 101
103 c106 108 161 189 211 312 24 58 29 85 29 157 1 47 -3 90 -7 95 -5 4 -45 8
-90 8 -160 -1 -315 -81 -484 -251 l-103 -103 0 213 0 214 41 61 c139 208 412
297 654 212z m1357 15 c124 -39 244 -126 307 -224 l31 -49 0 -216 0 -216 -47
51 c-140 151 -270 240 -412 282 -59 17 -177 21 -200 7 -22 -14 -26 -116 -6
-190 38 -147 154 -321 288 -433 l58 -48 -219 0 -218 0 -45 29 c-54 35 -138
121 -173 178 -98 160 -104 386 -13 557 70 133 222 246 377 281 76 17 201 13
272 -9z m1028 -2 c171 -51 306 -178 370 -349 28 -73 38 -224 21 -306 -27 -129
-128 -277 -240 -348 l-48 -31 -217 0 -218 0 62 53 c131 110 250 291 286 437
18 71 14 168 -8 181 -28 18 -148 9 -223 -16 -134 -45 -300 -161 -392 -275
l-43 -53 0 220 0 220 26 39 c136 204 393 298 624 228z m1370 -4 c119 -36 237
-122 299 -218 l31 -49 0 -216 0 -217 -72 76 c-164 173 -351 274 -509 274 -69
0 -89 -14 -96 -68 -21 -155 128 -429 310 -574 l49 -38 -219 0 -219 0 -48 30
c-103 65 -192 189 -230 319 -20 70 -21 205 0 284 46 176 191 335 359 392 104
35 236 37 345 5z m1055 -9 c131 -46 253 -157 314 -286 114 -241 40 -537 -172
-689 l-65 -46 -215 0 -216 0 93 93 c131 129 218 273 247 406 11 55 8 155 -5
168 -4 5 -44 8 -89 8 -160 -1 -315 -81 -484 -251 l-103 -103 0 213 0 214 41
61 c139 208 412 297 654 212z m1357 15 c124 -39 244 -126 307 -224 l31 -49 0
-216 0 -216 -47 51 c-142 153 -272 241 -417 283 -58 17 -186 18 -202 2 -4 -4
-10 -33 -12 -65 -11 -161 120 -402 301 -554 l58 -48 -219 0 -218 0 -45 29
c-103 66 -195 192 -233 321 -21 71 -22 216 -1 294 51 195 221 355 425 401 76
17 201 13 272 -9z m982 9 c192 -41 346 -174 416 -360 28 -73 38 -224 21 -306
-27 -129 -128 -277 -240 -348 l-48 -31 -217 0 -218 0 61 51 c130 108 251 293
287 439 18 71 14 168 -8 181 -28 18 -148 9 -223 -16 -134 -45 -300 -161 -392
-275 l-43 -53 0 220 0 220 26 39 c128 191 356 286 578 239z m-5326 -801 c55
-22 106 -69 138 -126 25 -46 29 -63 29 -133 0 -63 -5 -89 -22 -121 -35 -66
-70 -101 -130 -131 -187 -91 -403 44 -403 253 0 199 203 334 388 258z m4810 0
c55 -23 106 -69 138 -126 25 -46 29 -63 29 -133 0 -63 -5 -89 -22 -121 -35
-66 -70 -101 -130 -131 -187 -91 -403 44 -403 253 0 199 204 334 388 258z
m-7223 -8 c182 -86 222 -311 81 -451 -209 -208 -555 9 -460 288 21 62 87 135
149 163 69 33 161 33 230 0z m4810 0 c182 -86 222 -311 81 -451 -209 -208
-555 9 -460 288 21 62 87 135 149 163 69 33 161 33 230 0z m-3670 -59 c8 -28
15 -71 15 -96 l0 -46 63 0 c64 -1 137 -27 145 -53 7 -21 -85 -54 -152 -55
l-61 0 0 -61 c0 -67 -28 -146 -52 -146 -24 0 -53 79 -53 146 l0 61 -60 1 c-66
1 -154 33 -148 54 8 26 81 52 145 53 l63 0 0 56 c0 61 14 114 38 141 21 25 38
8 57 -55z m2405 -22 c6 -31 10 -70 8 -88 -3 -32 -3 -32 38 -29 47 4 116 -12
151 -35 22 -15 23 -17 7 -34 -23 -26 -80 -42 -144 -42 l-55 1 0 -62 c0 -65
-28 -146 -50 -146 -31 0 -55 65 -56 152 -1 57 -1 58 -25 52 -35 -9 -141 15
-167 38 l-22 18 23 20 c30 25 84 40 143 40 l47 0 1 59 c1 63 13 105 39 134 16
18 17 18 34 -3 9 -11 22 -45 28 -75z m2405 22 c8 -28 15 -71 15 -96 l0 -46 63
0 c64 -1 137 -27 145 -53 7 -21 -85 -54 -152 -55 l-61 0 -1 -66 c0 -71 -25
-141 -51 -141 -24 0 -53 79 -53 146 l0 61 -60 1 c-66 1 -154 33 -148 54 8 26
81 52 145 53 l63 0 0 56 c0 61 14 114 38 141 21 25 38 8 57 -55z m-6415 -214
c0 -2 -35 -37 -78 -78 -135 -128 -227 -276 -258 -413 -17 -77 -15 -155 5 -175
18 -18 148 -13 211 7 132 44 243 117 362 237 l88 88 0 -219 0 -218 -45 -60
c-163 -216 -454 -282 -704 -159 -84 41 -195 149 -238 232 -102 196 -79 442 58
615 45 57 135 128 176 139 25 7 423 10 423 4z m1152 -14 c24 -12 72 -52 108
-88 110 -111 161 -234 161 -393 1 -156 -51 -281 -165 -394 -174 -174 -419
-213 -644 -103 -73 36 -177 128 -221 198 l-31 48 0 223 0 223 26 -39 c39 -59
100 -119 188 -185 136 -104 255 -152 374 -153 62 -1 76 2 88 18 20 29 17 123
-7 202 -41 136 -121 256 -256 385 l-79 76 207 2 c197 2 210 1 251 -20z m1184
-63 c-163 -161 -266 -351 -266 -496 0 -93 11 -103 114 -101 154 2 384 134 521
300 l45 53 0 -219 0 -220 -31 -46 c-93 -141 -290 -247 -459 -247 -141 0 -300
67 -400 169 -112 114 -161 233 -161 391 0 112 25 204 77 291 38 64 151 174
198 195 23 9 85 13 238 12 l207 -2 -83 -80z m1265 47 c108 -75 202 -216 228
-341 51 -246 -64 -496 -280 -612 -70 -37 -194 -70 -263 -70 -75 0 -177 25
-251 60 -71 34 -170 119 -216 186 l-29 43 0 221 0 221 50 -60 c133 -160 364
-290 519 -292 83 -1 99 6 107 47 28 153 -114 432 -296 579 -27 22 -49 43 -50
46 0 3 98 5 218 5 l217 -1 46 -32z m1209 30 c0 -2 -35 -37 -78 -78 -135 -128
-227 -276 -258 -413 -17 -77 -15 -155 5 -175 18 -18 148 -13 211 7 132 44 243
117 363 237 l87 88 0 -219 0 -218 -45 -60 c-163 -216 -454 -282 -704 -159 -84
41 -195 149 -238 232 -102 196 -79 442 58 615 45 57 135 128 176 139 25 7 423
10 423 4z m1149 -12 c61 -31 152 -122 194 -192 56 -95 78 -176 78 -289 -1
-162 -50 -282 -165 -396 -174 -174 -419 -213 -644 -103 -73 36 -177 128 -221
198 l-31 48 0 223 0 223 26 -39 c39 -59 100 -119 188 -185 136 -104 255 -152
374 -153 90 -1 102 10 102 95 0 152 -100 339 -269 502 l-87 84 207 2 c192 2
211 1 248 -18z m1187 -65 c-163 -161 -266 -351 -266 -496 0 -93 11 -103 114
-101 150 2 389 139 519 296 l47 57 0 -219 0 -220 -31 -46 c-45 -68 -138 -149
-215 -186 -164 -80 -333 -78 -504 6 -92 44 -191 141 -237 229 -91 172 -85 392
13 555 37 62 151 175 195 193 18 8 101 12 238 12 l210 0 -83 -80z m1265 47
c108 -75 202 -216 228 -341 51 -246 -64 -496 -280 -612 -70 -37 -194 -70 -263
-70 -75 0 -177 25 -251 60 -71 34 -170 119 -216 186 l-29 43 0 221 0 221 49
-58 c133 -161 364 -292 515 -294 88 -2 104 5 112 47 28 153 -114 432 -296 579
-27 22 -49 43 -50 46 0 3 98 5 218 5 l217 -1 46 -32z m-6584 -1096 l135 -66
-135 -67 -135 -67 -64 -135 -64 -135 -67 137 -66 137 -131 61 c-71 34 -130 64
-130 68 0 4 59 35 130 68 l130 62 67 135 66 135 65 -133 64 -134 135 -66z
m4810 0 l135 -66 -135 -67 -135 -68 -64 -134 -65 -134 -66 136 -67 137 -130
61 c-71 34 -130 64 -130 68 0 4 59 35 130 68 l130 62 67 135 66 135 65 -133
64 -134 135 -66z m-2608 194 l64 -128 128 -64 c71 -35 129 -66 129 -69 0 -3
-58 -34 -129 -70 l-129 -64 -65 -135 -65 -136 -66 138 -65 137 -130 62 c-72
33 -131 65 -131 70 0 4 60 38 134 75 l134 67 58 122 c33 68 61 123 64 123 3 1
34 -57 69 -128z m-1225 -26 c12 -24 20 -61 20 -100 l1 -63 71 -4 c70 -5 137
-30 137 -53 1 -23 -87 -55 -148 -55 l-60 0 0 -62 c0 -69 -29 -143 -55 -143
-26 0 -52 71 -53 140 l-1 63 -70 4 c-80 5 -139 30 -134 56 5 25 94 54 156 50
53 -3 53 -3 48 24 -12 63 28 194 58 185 6 -2 20 -20 30 -42z m4810 0 c12 -24
20 -61 20 -100 l1 -63 71 -4 c70 -5 137 -30 137 -53 1 -23 -87 -55 -148 -55
l-60 0 0 -62 c0 -69 -29 -143 -55 -143 -26 0 -54 73 -54 141 l0 62 -70 4 c-80
5 -139 30 -134 56 5 23 83 51 148 51 l55 1 2 59 c1 65 35 155 55 149 7 -2 22
-21 32 -43z m-7229 -21 c13 -26 20 -60 20 -100 l0 -60 60 0 c66 1 138 -27 143
-55 4 -24 -80 -54 -148 -53 l-56 1 1 -56 c0 -70 -30 -153 -54 -149 -27 5 -55
76 -55 143 l0 60 -61 1 c-67 0 -140 29 -140 54 0 26 73 54 143 54 l64 0 -7 32
c-11 61 29 181 58 172 7 -2 21 -22 32 -44z m4810 0 c13 -26 20 -60 20 -100 l0
-60 60 0 c66 1 138 -27 143 -55 4 -24 -80 -54 -148 -53 l-56 1 1 -56 c0 -70
-30 -153 -54 -149 -27 5 -55 76 -55 143 l0 60 -61 1 c-67 0 -140 29 -140 54 0
26 73 54 143 54 l64 0 -7 32 c-11 61 29 181 58 172 7 -2 21 -22 32 -44z
m-2810 -359 c133 -34 266 -127 334 -233 l31 -49 -2 -216 -3 -216 -43 52 c-143
172 -366 298 -530 301 -91 1 -102 -9 -102 -102 0 -161 134 -397 306 -537 l56
-45 -218 0 -217 0 -48 31 c-71 45 -159 145 -197 222 -18 37 -40 102 -49 145
-61 293 157 605 457 655 59 10 170 6 225 -8z m1024 0 c199 -47 369 -217 416
-416 52 -222 -38 -459 -223 -586 l-63 -43 -216 0 -215 0 77 72 c100 94 166
181 221 293 52 107 72 208 55 271 -10 37 -15 43 -47 48 -73 14 -187 -14 -302
-75 -97 -51 -174 -112 -256 -200 l-66 -71 0 220 0 220 44 60 c127 172 363 257
575 207z m3786 0 c133 -34 266 -127 334 -233 l31 -49 0 -217 0 -217 -51 58
c-155 177 -363 294 -527 297 -91 1 -102 -9 -102 -102 0 -159 126 -382 298
-528 l63 -54 -217 0 -217 0 -48 31 c-72 46 -163 149 -199 225 -76 158 -76 322
0 482 78 163 237 286 410 315 59 10 170 6 225 -8z m1024 0 c249 -59 430 -290
431 -549 0 -177 -96 -358 -241 -455 l-61 -41 -215 0 -215 0 81 75 c147 139
248 307 272 453 17 101 3 147 -47 156 -73 14 -187 -14 -302 -75 -97 -51 -174
-112 -256 -200 l-66 -71 0 220 0 220 44 60 c127 172 363 257 575 207z m-8249
-10 c129 -34 248 -118 324 -228 l36 -53 -2 -216 -3 -217 -43 52 c-161 193
-416 327 -576 303 -53 -8 -60 -21 -58 -112 1 -76 36 -180 90 -272 50 -84 157
-210 218 -256 l47 -36 -220 0 -219 0 -45 28 c-58 37 -147 135 -182 199 -35 66
-67 190 -67 262 1 253 183 489 423 547 71 17 211 17 277 -1z m1012 4 c87 -18
192 -75 262 -143 178 -173 223 -426 116 -651 -35 -74 -123 -175 -189 -217
l-45 -28 -219 0 -219 0 53 44 c115 95 232 259 273 384 27 79 35 202 17 231
-14 22 -108 25 -182 7 -144 -37 -274 -118 -406 -255 l-83 -85 0 214 0 213 31
48 c67 106 197 199 327 234 59 16 194 18 264 4z m3798 -4 c129 -34 248 -118
324 -228 l36 -53 -2 -216 -3 -217 -43 52 c-161 193 -416 327 -576 303 -53 -8
-60 -21 -58 -112 1 -76 36 -180 90 -272 50 -84 157 -210 218 -256 l47 -36
-220 0 -219 0 -45 28 c-58 37 -147 135 -182 199 -35 66 -67 190 -67 262 1 253
183 489 423 547 71 17 211 17 277 -1z m1012 4 c87 -18 192 -75 262 -143 221
-215 233 -556 26 -780 -30 -33 -75 -72 -99 -88 l-45 -28 -219 0 -219 0 53 44
c115 95 232 259 273 384 27 79 35 202 17 231 -14 22 -108 25 -182 7 -144 -37
-274 -118 -406 -255 l-83 -85 0 214 0 213 31 48 c67 106 197 199 327 234 59
16 194 18 264 4z m-2932 -788 c71 -27 125 -74 155 -135 54 -110 40 -223 -37
-311 -132 -150 -374 -120 -462 57 -35 71 -36 171 -2 243 60 131 215 196 346
146z m4797 4 c195 -58 265 -298 131 -450 -132 -150 -374 -120 -462 57 -21 41
-26 66 -26 122 0 91 29 156 95 214 76 67 164 86 262 57z m-7178 -30 c132 -72
184 -233 118 -368 -30 -60 -65 -95 -131 -130 -32 -17 -58 -22 -121 -22 -63 0
-89 5 -121 22 -105 56 -158 141 -158 252 0 115 52 198 157 251 56 29 69 31
133 27 53 -3 83 -11 123 -32z m3516 -11 c11 -24 20 -64 21 -102 l3 -63 63 -3
c61 -2 140 -30 142 -50 1 -5 -11 -18 -26 -29 -20 -15 -48 -21 -105 -25 l-78
-4 0 -67 c0 -67 -24 -129 -53 -139 -20 -6 -53 81 -53 141 l-1 54 -65 6 c-70 7
-136 34 -141 59 -5 23 63 50 140 56 l68 5 0 60 c0 65 32 151 54 144 6 -2 20
-21 31 -43z m1294 11 c132 -72 184 -233 118 -368 -30 -60 -65 -95 -131 -130
-32 -17 -58 -22 -121 -22 -63 0 -89 5 -121 22 -105 56 -158 141 -158 252 0
115 52 198 157 251 56 29 69 31 133 27 53 -3 83 -11 123 -32z m-3699 -20 c15
-30 22 -64 22 -107 l0 -63 67 -1 c71 0 141 -25 141 -51 0 -24 -79 -53 -147
-53 l-61 0 -1 -60 c0 -66 -32 -155 -53 -148 -29 10 -53 72 -53 139 l0 67 -78
4 c-76 5 -128 26 -130 53 -1 20 78 49 143 53 l66 4 -4 34 c-7 60 31 174 57
174 5 0 19 -20 31 -45z m4810 0 c15 -31 22 -64 22 -107 l0 -63 40 3 c69 7 168
-28 168 -60 0 -20 -86 -48 -147 -48 l-61 0 -1 -60 c0 -66 -32 -155 -53 -148
-29 10 -53 72 -53 139 l0 67 -78 4 c-76 5 -128 26 -130 53 -1 20 78 49 143 53
l66 4 -4 34 c-7 60 31 174 57 174 5 0 19 -20 31 -45z m-6444 -281 c-201 -166
-344 -449 -304 -601 7 -28 13 -33 53 -39 159 -23 413 109 575 299 l50 59 0
-218 0 -217 -31 -48 c-68 -106 -200 -200 -329 -234 -72 -19 -200 -19 -275 0
-249 64 -425 289 -425 544 0 73 31 197 67 264 33 61 163 196 213 220 29 14 70
17 249 17 l213 0 -56 -46z m1200 17 c68 -39 164 -145 203 -226 147 -297 6
-652 -305 -771 -91 -35 -229 -43 -328 -20 -128 30 -263 124 -335 233 l-31 46
0 220 0 219 51 -61 c107 -128 295 -251 438 -287 74 -18 168 -15 182 7 14 23
10 141 -7 200 -47 158 -213 383 -338 456 -17 10 22 12 199 13 l220 0 51 -29z
m1170 -63 c-171 -170 -256 -335 -256 -493 0 -87 4 -90 107 -89 157 0 302 74
470 240 l103 101 0 -214 c0 -185 -2 -217 -17 -241 -119 -187 -336 -291 -549
-261 -97 13 -167 39 -241 89 -159 106 -247 273 -247 465 0 156 53 284 164 395
99 100 99 100 347 100 l212 0 -93 -92z m1264 62 c145 -93 236 -253 247 -435
20 -319 -236 -589 -557 -588 -184 0 -359 92 -461 240 l-29 42 0 217 0 217 73
-75 c161 -167 352 -268 507 -268 28 0 59 4 69 10 42 22 33 160 -18 281 -47
112 -153 251 -269 352 l-42 37 217 0 216 0 47 -30z m1176 -16 c-201 -166 -344
-449 -304 -601 7 -28 13 -33 53 -39 159 -23 413 109 575 299 l50 59 0 -218 0
-217 -31 -48 c-68 -106 -200 -200 -329 -234 -72 -19 -200 -19 -275 0 -249 64
-425 289 -425 544 0 73 31 197 67 264 33 61 163 196 213 220 29 14 70 17 249
17 l213 0 -56 -46z m1186 25 c98 -50 202 -179 246 -303 30 -85 36 -239 13
-321 -49 -175 -179 -317 -347 -381 -91 -35 -229 -43 -328 -20 -128 30 -263
124 -335 233 l-31 46 0 220 0 219 51 -61 c107 -128 295 -251 438 -287 74 -18
168 -15 182 7 14 23 10 141 -7 200 -47 158 -213 383 -338 456 -17 10 21 12
197 13 202 0 221 -2 259 -21z m1184 -71 c-171 -170 -256 -335 -256 -493 0 -87
4 -90 107 -89 157 0 302 74 470 240 l103 101 0 -214 c0 -235 3 -222 -69 -311
-44 -55 -143 -126 -218 -156 -268 -109 -581 9 -708 268 -110 223 -70 471 105
646 99 100 99 100 347 100 l212 0 -93 -92z m1265 61 c149 -95 249 -282 249
-464 0 -185 -102 -372 -257 -471 -250 -161 -596 -92 -764 153 l-29 42 0 216 0
216 83 -84 c124 -124 257 -208 384 -241 69 -18 155 -21 183 -6 42 23 31 170
-23 292 -47 106 -156 248 -255 333 l-54 45 218 0 217 0 48 -31z m-6771 -878
l63 -129 136 -67 136 -68 -135 -66 -135 -66 -66 -135 -67 -135 -64 135 -65
135 -132 65 c-72 35 -131 67 -130 70 0 3 58 33 129 67 l130 62 61 131 c34 71
65 130 69 130 4 0 35 -58 70 -129z m2418 -2 l62 -130 132 -64 132 -63 -141
-67 -141 -67 -65 -137 -65 -136 -65 135 -65 134 -134 67 -133 67 134 66 133
67 61 130 c40 84 67 129 77 128 9 0 39 -49 78 -130z m2392 2 l63 -129 136 -67
136 -68 -135 -66 -135 -66 -66 -135 -67 -135 -64 135 -65 135 -132 65 c-72 35
-131 67 -130 70 0 3 58 33 129 67 l130 62 61 131 c34 71 65 130 69 130 4 0 35
-58 70 -129z m-6056 -46 c12 -24 20 -61 20 -101 l1 -63 61 0 c64 0 120 -17
142 -43 10 -13 8 -18 -12 -31 -35 -23 -111 -40 -154 -35 l-37 5 -1 -66 c0 -66
-31 -151 -54 -151 -23 0 -54 85 -54 151 l0 67 -37 -5 c-43 -6 -125 12 -154 33
-43 32 30 74 132 75 l53 1 0 42 c0 48 22 129 41 152 17 21 31 13 53 -31z
m2420 0 c12 -24 20 -61 20 -101 l1 -63 61 0 c64 0 120 -17 142 -43 10 -13 8
-18 -12 -31 -35 -23 -111 -40 -154 -35 l-37 5 -1 -66 c0 -68 -26 -141 -52
-149 -22 -7 -55 86 -56 153 l0 61 -34 -4 c-43 -5 -130 14 -157 34 -42 32 32
74 133 75 l52 1 0 42 c0 48 22 129 41 152 17 21 31 13 53 -31z m2390 0 c12
-24 20 -61 20 -101 l1 -63 61 0 c64 0 120 -17 142 -43 10 -13 8 -18 -12 -31
-35 -23 -111 -40 -154 -35 l-37 5 -1 -66 c0 -66 -31 -151 -54 -151 -23 0 -54
85 -54 151 l0 67 -37 -5 c-43 -6 -125 12 -154 33 -43 32 30 74 132 75 l53 1 0
42 c0 48 22 129 41 152 17 21 31 13 53 -31z m2420 0 c12 -24 20 -61 20 -101
l1 -63 61 0 c64 0 120 -17 142 -43 10 -13 8 -18 -12 -31 -35 -24 -111 -40
-154 -34 l-38 5 0 -67 c0 -68 -25 -140 -52 -149 -21 -7 -55 87 -56 153 l0 61
-32 -4 c-41 -5 -133 15 -159 34 -43 32 30 74 132 75 l53 1 0 42 c0 48 22 129
41 152 17 21 31 13 53 -31z m-5203 -371 c119 -35 222 -108 294 -206 l45 -60 0
-218 0 -217 -97 96 c-110 109 -181 159 -298 210 -72 32 -89 35 -172 36 -50 0
-95 -3 -99 -8 -16 -15 -16 -124 0 -185 20 -79 76 -190 137 -273 50 -68 181
-199 199 -199 6 0 10 -3 10 -7 0 -5 -100 -6 -222 -5 l-223 4 -61 44 c-103 72
-183 193 -213 318 -15 63 -15 200 0 262 48 196 199 354 389 408 30 8 69 17 85
20 50 7 169 -3 226 -20z m1043 -4 c157 -49 294 -181 356 -345 28 -74 38 -224
20 -308 -26 -128 -120 -268 -231 -344 l-45 -31 -220 -4 -220 -3 91 90 c135
132 214 259 251 405 16 61 15 163 -1 179 -4 3 -48 6 -98 5 -81 0 -101 -4 -171
-34 -114 -48 -209 -116 -309 -219 l-87 -90 0 218 0 218 31 46 c81 122 235 216
394 241 53 8 174 -4 239 -24z m3767 4 c119 -35 222 -108 294 -206 l45 -60 0
-218 0 -217 -97 96 c-110 109 -181 159 -298 210 -72 32 -89 35 -172 36 -50 0
-95 -4 -100 -8 -4 -5 -8 -48 -7 -95 0 -74 5 -99 33 -166 17 -44 53 -111 78
-150 46 -70 186 -219 231 -247 21 -12 -4 -14 -205 -11 l-228 4 -63 45 c-173
124 -261 362 -212 575 51 221 244 397 475 432 50 7 169 -3 226 -20z m1043 -4
c173 -54 323 -214 371 -396 55 -214 -30 -457 -206 -585 l-60 -44 -223 -5 -222
-5 91 90 c101 99 160 180 211 289 60 131 71 286 21 300 -40 10 -118 6 -180
-10 -130 -34 -258 -116 -384 -248 l-83 -86 0 219 0 218 31 46 c69 105 211 202
329 226 30 6 64 13 75 15 38 9 166 -5 229 -24z m-8281 5 c119 -31 228 -106
302 -207 l45 -60 0 -218 0 -218 -97 97 c-163 162 -319 243 -470 245 -52 1 -86
-3 -94 -11 -20 -20 -23 -113 -5 -181 35 -138 131 -289 264 -414 l78 -73 -220
3 -221 3 -53 36 c-143 98 -232 270 -232 452 0 162 50 283 164 397 75 75 156
124 249 149 69 18 219 19 290 0z m1054 -10 c231 -78 384 -287 385 -524 0 -47
-6 -108 -12 -136 -28 -124 -127 -269 -227 -333 l-48 -31 -218 -3 c-119 -2
-217 -2 -217 -1 0 2 38 39 84 83 82 79 163 184 204 265 54 107 79 268 49 309
-19 26 -98 31 -180 12 -141 -33 -300 -135 -427 -275 l-70 -76 0 214 c0 202 1
216 22 250 41 67 92 123 154 167 108 77 187 102 327 103 80 1 112 -4 174 -24z
m3756 10 c119 -31 228 -106 302 -207 l45 -60 0 -218 0 -218 -97 97 c-163 162
-319 243 -470 245 -52 1 -86 -3 -94 -11 -20 -20 -23 -113 -5 -181 35 -138 131
-289 264 -414 l78 -73 -220 3 -221 3 -53 36 c-143 98 -232 270 -232 452 0 162
50 283 164 397 75 75 156 124 249 149 69 18 219 19 290 0z m1054 -10 c191 -65
329 -216 374 -413 18 -77 13 -208 -10 -282 -38 -121 -124 -238 -218 -298 l-48
-31 -218 -3 c-119 -2 -217 -2 -217 -1 0 2 38 39 84 83 82 79 163 184 204 265
54 107 79 268 49 309 -19 26 -98 31 -180 12 -141 -33 -300 -135 -427 -275
l-70 -76 0 214 c0 202 1 216 22 250 41 67 92 123 154 167 108 77 187 102 327
103 80 1 112 -4 174 -24z m-5404 -781 c57 -19 131 -83 159 -138 13 -26 23 -67
26 -112 4 -61 1 -80 -20 -125 -31 -69 -78 -116 -147 -147 -45 -21 -64 -24
-125 -20 -83 6 -134 29 -187 85 -50 52 -70 96 -76 163 -8 90 17 162 80 225 81
80 185 105 290 69z m2437 -5 c100 -45 170 -151 170 -258 0 -238 -285 -367
-464 -210 -59 53 -87 107 -93 184 -10 121 42 218 146 273 53 27 73 32 129 32
46 0 82 -7 112 -21z m2373 5 c57 -19 131 -83 159 -138 13 -26 23 -67 26 -112
4 -61 1 -80 -20 -125 -31 -69 -78 -116 -147 -147 -45 -21 -64 -24 -125 -20
-83 6 -134 29 -187 85 -50 52 -70 96 -76 163 -8 90 17 162 80 225 81 80 185
105 290 69z m2437 -5 c65 -29 127 -94 150 -157 82 -219 -117 -434 -342 -368
-65 19 -139 80 -170 139 -25 50 -34 147 -19 204 32 119 144 203 269 203 46 0
82 -7 112 -21z m-6094 -36 c11 -25 18 -62 18 -104 l1 -66 61 0 c66 -1 159 -34
152 -55 -9 -26 -82 -53 -145 -53 l-61 0 -4 -65 c-4 -64 -33 -143 -53 -143 -26
0 -48 54 -53 130 l-4 78 -67 1 c-96 2 -161 38 -128 72 20 19 131 43 169 35
l28 -5 0 59 c0 84 25 153 55 153 7 0 21 -17 31 -37z m2400 -4 c11 -26 18 -65
19 -104 l0 -62 55 0 c65 0 121 -16 145 -43 16 -18 15 -20 -27 -41 -31 -16 -61
-23 -109 -23 l-66 -1 5 -37 c5 -42 -12 -122 -34 -156 -15 -22 -17 -23 -34 -7
-26 24 -42 78 -42 140 l0 52 -63 6 c-70 5 -140 34 -140 57 0 25 72 53 141 54
l62 1 1 54 c0 29 6 70 12 90 24 73 47 80 75 20z m2410 4 c11 -25 18 -62 18
-104 l1 -66 61 0 c66 -1 159 -34 152 -55 -9 -26 -82 -53 -145 -53 l-61 0 -4
-65 c-4 -64 -33 -143 -53 -143 -26 0 -48 54 -53 130 l-4 78 -67 1 c-96 2 -161
38 -128 72 20 19 131 43 169 35 l28 -5 0 59 c0 84 25 153 55 153 7 0 21 -17
31 -37z m-6494 -330 c-172 -170 -273 -371 -259 -517 6 -62 24 -76 96 -76 154
0 336 96 499 264 l82 84 0 -218 0 -217 -26 -39 c-169 -253 -521 -325 -773
-158 -159 106 -251 278 -251 469 0 183 79 341 225 450 l60 45 218 0 217 0 -88
-87z m1288 40 c141 -105 221 -267 222 -447 2 -447 -498 -714 -871 -465 -66 44
-118 98 -162 167 l-29 46 0 225 c0 213 1 224 16 194 24 -48 179 -192 264 -245
118 -74 199 -101 302 -102 47 -1 90 2 94 7 4 4 10 33 12 65 11 154 -99 368
-275 532 l-75 70 220 0 220 0 62 -47z m1134 -35 c-90 -87 -170 -195 -209 -280
-50 -110 -71 -253 -42 -292 20 -27 95 -32 180 -11 138 33 269 114 400 247 l87
88 0 -215 c0 -214 0 -216 -26 -256 -57 -91 -165 -175 -279 -219 -83 -31 -235
-39 -324 -15 -249 65 -421 282 -422 533 0 48 5 110 11 137 27 123 125 267 227
334 l46 31 217 0 218 0 -84 -82z m1284 37 c143 -104 222 -266 222 -450 0 -156
-51 -279 -164 -391 -120 -120 -253 -171 -425 -161 -168 8 -320 88 -416 218
l-45 61 0 220 0 220 70 -75 c90 -96 185 -167 291 -216 126 -58 221 -75 283
-51 33 12 43 64 27 153 -24 142 -99 273 -237 414 l-100 103 217 0 217 0 60
-45z m1104 -42 c-172 -170 -273 -371 -259 -517 6 -62 24 -76 96 -76 154 0 336
96 499 264 l82 84 0 -218 0 -217 -26 -39 c-169 -253 -521 -325 -773 -158 -159
106 -251 278 -251 469 0 183 79 341 225 450 l60 45 218 0 217 0 -88 -87z
m1288 40 c69 -52 141 -141 175 -218 107 -241 30 -530 -180 -681 -269 -192
-630 -123 -806 154 l-29 46 0 225 c0 213 1 224 16 194 24 -48 179 -192 264
-245 118 -74 199 -101 302 -102 47 -1 90 2 94 7 4 4 10 33 12 65 11 154 -99
368 -275 532 l-75 70 220 0 220 0 62 -47z m1134 -35 c-90 -87 -170 -195 -209
-280 -50 -110 -71 -253 -42 -292 20 -27 95 -32 180 -11 138 33 269 114 400
247 l87 88 0 -215 0 -215 -27 -43 c-64 -102 -202 -199 -329 -232 -75 -19 -200
-19 -277 1 -132 34 -259 126 -333 241 -105 162 -114 392 -23 564 38 71 115
158 176 198 l46 31 217 0 218 0 -84 -82z m1284 37 c143 -104 222 -266 222
-450 0 -153 -53 -280 -164 -391 -120 -120 -253 -171 -425 -161 -168 8 -320 88
-416 218 l-45 61 0 220 0 220 70 -75 c90 -96 185 -167 291 -216 126 -58 221
-75 283 -51 81 30 15 291 -117 466 -26 33 -80 93 -122 132 l-75 72 219 0 219
0 60 -45z m-6599 -1085 l131 -65 -131 -66 -132 -66 -67 -134 -68 -134 -68 137
-68 136 -123 58 c-68 32 -126 61 -129 66 -3 5 54 37 127 72 l133 64 64 134 64
133 68 -135 68 -135 131 -65z m2399 1 l132 -66 -134 -67 -134 -67 -65 -133
-64 -133 -68 136 -68 135 -130 62 c-100 48 -127 65 -119 74 6 7 65 40 132 73
l122 60 66 130 65 130 66 -134 66 -134 133 -66z m2411 -1 l131 -65 -131 -66
-132 -66 -67 -134 -68 -134 -68 137 -68 136 -123 58 c-68 32 -126 61 -129 66
-3 5 54 37 127 72 l132 63 64 134 65 134 68 -135 68 -135 131 -65z m-3835 165
c12 -24 20 -61 20 -100 l1 -61 62 -1 c67 -1 136 -27 141 -54 5 -25 -72 -54
-143 -54 l-60 0 0 -60 c0 -71 -29 -148 -54 -143 -27 5 -53 74 -54 141 l-1 62
-68 1 c-71 2 -133 27 -133 55 0 25 72 51 142 52 l65 1 -6 28 c-12 61 28 185
57 176 7 -2 21 -21 31 -43z m4810 6 c12 -21 19 -53 20 -99 l1 -68 60 0 c66 0
138 -28 143 -55 5 -25 -72 -54 -143 -54 l-60 0 0 -60 c0 -71 -29 -148 -54
-143 -27 5 -53 74 -54 141 l-1 62 -61 1 c-67 0 -140 29 -140 54 0 26 71 52
142 53 l65 1 -6 28 c-12 61 28 185 57 175 7 -2 20 -18 31 -36z m-7231 -14 c12
-23 19 -62 20 -102 l2 -65 60 0 c61 0 149 -33 148 -55 0 -23 -67 -48 -137 -53
l-71 -4 -1 -62 c0 -68 -29 -141 -54 -141 -25 0 -52 71 -54 140 l-1 63 -71 4
c-70 5 -137 31 -137 53 0 22 67 48 137 53 l71 4 1 58 c1 78 32 155 58 147 6
-2 19 -20 29 -40z m4810 0 c12 -23 19 -62 20 -102 l2 -65 60 0 c61 0 149 -33
148 -55 0 -23 -67 -48 -137 -53 l-71 -4 -1 -62 c0 -68 -29 -141 -54 -141 -25
0 -52 71 -54 140 l-1 63 -71 4 c-70 5 -137 31 -137 53 0 22 67 48 137 53 l71
4 1 58 c1 78 32 155 58 147 6 -2 19 -20 29 -40z m-2808 -369 c132 -29 253
-113 336 -235 l29 -42 0 -221 0 -222 -38 49 c-108 136 -316 274 -460 304 -55
11 -156 9 -169 -5 -13 -13 -15 -123 -3 -180 13 -64 71 -187 124 -261 45 -62
171 -192 211 -217 30 -18 28 -18 -188 -18 -256 0 -260 1 -369 110 -234 234
-215 615 40 826 135 111 310 151 487 112z m1037 -3 c96 -24 177 -71 253 -149
82 -84 118 -146 145 -252 60 -235 -32 -474 -234 -610 l-51 -34 -213 0 -213 0
94 93 c166 164 259 338 261 489 1 51 -3 81 -12 90 -20 20 -156 16 -225 -6
-125 -41 -274 -146 -389 -273 l-48 -53 0 218 0 218 28 45 c16 24 55 68 87 97
141 129 325 174 517 127z m3773 3 c141 -31 291 -143 354 -265 7 -14 11 -97 11
-238 l0 -216 -49 59 c-114 137 -308 263 -449 293 -56 11 -156 9 -169 -5 -16
-16 -15 -144 2 -202 20 -70 71 -172 119 -239 45 -63 171 -192 211 -217 30 -18
28 -18 -188 -18 -256 0 -260 1 -368 109 -127 127 -187 304 -159 474 53 332
356 537 685 465z m1044 -5 c173 -48 316 -180 378 -349 87 -240 -5 -514 -221
-660 l-51 -34 -213 0 -213 0 94 93 c164 162 259 339 261 489 1 51 -3 81 -12
90 -20 20 -156 16 -225 -6 -125 -41 -274 -146 -389 -273 l-48 -53 0 221 0 220
29 43 c64 93 182 179 296 216 87 29 219 30 314 3z m-8248 -9 c123 -36 242
-125 308 -229 l31 -49 0 -218 0 -218 -53 62 c-107 127 -287 249 -417 283 -75
20 -174 20 -194 -1 -25 -25 -25 -129 1 -209 46 -145 133 -270 281 -408 l51
-47 -216 0 -216 0 -49 31 c-27 17 -73 58 -102 91 -193 213 -192 540 1 749 92
99 195 157 316 179 67 12 189 4 258 -16z m1049 -8 c289 -100 449 -427 347
-708 -45 -124 -102 -202 -201 -275 l-58 -43 -217 0 -217 0 106 108 c158 162
239 320 240 469 0 99 -9 107 -114 101 -158 -10 -303 -86 -463 -245 l-103 -102
0 213 0 214 41 61 c133 199 407 288 639 207z m3761 8 c123 -36 242 -125 308
-229 l31 -49 0 -218 0 -218 -53 62 c-107 127 -287 249 -417 283 -75 20 -174
20 -194 -1 -25 -25 -25 -129 1 -209 46 -145 133 -270 281 -408 l51 -47 -216 0
-216 0 -49 31 c-27 17 -73 58 -102 91 -193 213 -192 540 1 749 92 99 195 157
316 179 67 12 189 4 258 -16z m1049 -8 c182 -63 326 -226 365 -413 28 -130 15
-235 -45 -358 -45 -95 -93 -152 -173 -212 l-59 -43 -217 0 -217 0 106 108
c158 162 239 320 240 469 0 99 -9 107 -114 101 -158 -10 -303 -86 -463 -245
l-103 -102 0 213 0 214 41 61 c133 199 407 288 639 207z m-2988 -772 c61 -20
123 -75 156 -138 22 -42 26 -64 26 -126 0 -62 -4 -84 -26 -126 -55 -104 -157
-161 -273 -152 -230 19 -334 275 -190 464 14 18 53 46 86 63 72 36 146 41 221
15z m4810 0 c62 -20 123 -75 155 -138 39 -74 39 -180 1 -252 -55 -104 -157
-161 -273 -152 -230 19 -335 274 -190 464 14 18 53 46 86 63 72 36 146 41 221
15z m-7204 -20 c171 -85 210 -315 76 -449 -55 -56 -115 -79 -199 -79 -163 0
-279 115 -279 279 0 81 29 147 86 202 80 77 216 97 316 47z m3526 -13 c13 -23
19 -54 20 -102 l1 -69 54 0 c65 0 125 -17 147 -41 14 -16 14 -19 -9 -34 -35
-23 -84 -35 -142 -35 l-50 0 0 -63 c-1 -64 -27 -137 -53 -145 -21 -6 -53 82
-53 146 l-1 57 -59 2 c-66 2 -149 35 -149 59 0 25 79 54 147 54 l61 0 1 60 c0
66 32 155 53 148 7 -3 21 -19 32 -37z m1284 13 c171 -85 210 -315 76 -449 -55
-56 -115 -79 -199 -79 -163 0 -279 115 -279 279 0 81 29 147 86 202 80 77 216
97 316 47z m-3687 -29 c12 -27 20 -69 21 -104 l1 -59 71 -4 c74 -5 136 -29
136 -52 0 -25 -71 -51 -142 -51 l-67 0 0 -62 c0 -69 -31 -158 -53 -151 -26 8
-53 81 -53 144 l0 62 -71 4 c-68 5 -135 30 -138 52 -1 5 11 18 26 29 20 15 48
21 108 25 75 4 80 6 74 24 -16 51 25 188 56 188 6 0 20 -20 31 -45z m4810 0
c12 -27 20 -69 21 -104 l1 -59 71 -4 c74 -5 136 -29 136 -52 0 -25 -71 -51
-142 -51 l-66 0 0 -61 c0 -68 -32 -159 -54 -152 -26 8 -53 81 -53 144 l0 62
-71 4 c-68 5 -135 30 -138 52 -1 5 11 18 26 29 20 15 48 21 106 25 72 4 79 6
75 23 -15 54 27 189 57 189 6 0 20 -20 31 -45z m-6468 -300 c-174 -159 -282
-355 -286 -520 -2 -89 10 -100 106 -99 150 2 305 83 470 245 l107 105 0 -214
0 -214 -36 -54 c-108 -162 -292 -252 -494 -241 -382 20 -626 397 -490 758 39
106 123 209 217 269 l47 30 215 0 215 0 -71 -65z m1227 36 c196 -131 294 -366
246 -585 -59 -264 -282 -446 -546 -446 -187 0 -373 98 -469 249 l-31 48 0 218
0 218 43 -49 c141 -162 311 -271 471 -304 65 -13 145 -7 158 13 16 26 8 146
-15 219 -43 135 -155 296 -277 397 l-61 51 219 0 219 0 43 -29z m1178 -48
c-177 -173 -268 -345 -268 -508 0 -33 4 -66 9 -74 14 -22 116 -26 190 -6 133
34 267 118 394 247 l87 88 0 -213 0 -213 -29 -46 c-98 -154 -274 -248 -463
-248 -164 0 -288 50 -399 161 -101 100 -169 259 -169 394 0 170 107 372 247
464 l46 31 218 0 217 0 -80 -77z m1255 48 c156 -110 247 -281 247 -466 0 -243
-164 -462 -400 -536 -80 -25 -219 -27 -304 -4 -119 31 -248 121 -317 221 l-29
43 0 221 0 222 43 -50 c148 -174 375 -302 536 -302 85 0 96 12 95 102 -3 166
-133 397 -302 535 l-53 43 221 0 221 0 42 -29z m1150 -36 c-174 -159 -282
-355 -286 -520 -2 -89 10 -100 106 -99 150 2 305 83 470 245 l107 105 0 -214
0 -214 -36 -54 c-108 -162 -292 -252 -494 -241 -382 20 -626 397 -490 758 39
106 123 209 217 269 l47 30 215 0 215 0 -71 -65z m1227 36 c196 -131 294 -366
246 -585 -59 -264 -282 -446 -546 -446 -187 0 -373 98 -469 249 l-31 48 0 218
0 218 43 -49 c141 -162 311 -271 471 -304 65 -13 145 -7 158 13 16 26 8 146
-15 219 -43 135 -155 296 -277 397 l-61 51 219 0 219 0 43 -29z m1178 -48
c-44 -43 -100 -105 -125 -138 -58 -76 -118 -200 -134 -273 -11 -56 -9 -165 4
-179 16 -15 124 -14 186 2 133 34 267 118 394 247 l87 88 0 -213 0 -213 -29
-46 c-98 -154 -274 -248 -463 -248 -51 0 -118 7 -148 15 -203 54 -361 222
-405 430 -19 90 -19 128 1 222 29 141 119 278 231 352 l46 31 218 0 217 0 -80
-77z m1255 48 c160 -112 247 -280 247 -476 0 -233 -168 -454 -400 -526 -80
-25 -219 -27 -304 -4 -119 31 -248 121 -317 221 l-29 43 0 221 0 222 44 -52
c146 -171 375 -300 535 -300 85 0 96 12 95 102 -3 166 -133 397 -302 535 l-53
43 221 0 221 0 42 -29z"/>
</g>
</svg>
